<svg version="1.1" id="Layer_1" xmlns="http://www.w3.org/2000/svg" xmlns:xlink="http://www.w3.org/1999/xlink" x="0px" y="0px"
	 width="100%" viewBox="0 0 800 800" enable-background="new 0 0 800 800" xml:space="preserve">
<path fill="#000000" opacity="1.000000" stroke="none" 
	d="
M529.000000,801.000000 
	C352.666656,801.000000 176.833328,801.000000 1.000000,801.000000 
	C1.000000,534.333313 1.000000,267.666656 1.000000,1.000000 
	C267.666656,1.000000 534.333313,1.000000 801.000000,1.000000 
	C801.000000,267.666656 801.000000,534.333313 801.000000,801.000000 
	C710.500000,801.000000 620.000000,801.000000 529.000000,801.000000 
M703.456360,460.953186 
	C705.621155,446.406403 708.889526,431.918060 709.663696,417.297638 
	C710.574829,400.090515 710.252319,382.687653 708.750305,365.519684 
	C707.232178,348.168793 704.948059,330.653473 700.557251,313.848328 
	C695.863953,295.885406 689.212219,278.280212 681.819031,261.210327 
	C668.529114,230.526016 650.021912,202.924896 627.541260,178.201126 
	C611.010254,160.020615 592.621582,143.766266 572.291138,129.833527 
	C553.550171,116.990097 533.885132,105.707954 512.701660,97.503456 
	C497.998688,91.808861 482.929230,86.876556 467.711975,82.753273 
	C455.984497,79.575577 443.823730,77.826050 431.760559,76.109573 
	C421.200897,74.607033 410.523926,73.460930 399.871887,73.181389 
	C382.211334,72.717934 364.496155,72.539795 347.020691,76.013809 
	C332.081970,78.983528 316.975525,81.322937 302.260040,85.156944 
	C273.389984,92.678848 246.407959,105.043541 221.067917,120.617378 
	C193.465408,137.581711 168.915619,158.409531 147.660965,182.952255 
	C142.455307,188.963226 137.386215,195.153030 132.866760,201.684387 
	C124.868134,213.243683 116.643791,224.739410 109.802673,236.981888 
	C102.454887,250.131104 95.486145,263.708893 90.365929,277.829895 
	C84.292198,294.580627 79.560593,311.934296 75.754646,329.355927 
	C72.418877,344.625336 70.288918,360.292023 69.258278,375.891083 
	C68.342133,389.757141 69.010864,403.826202 70.177422,417.705048 
	C71.448296,432.824799 73.130859,448.039154 76.352135,462.838287 
	C82.663803,491.835297 92.982208,519.478699 107.152817,545.683960 
	C119.722572,568.928894 134.532791,590.665100 152.641922,609.750610 
	C166.453751,624.307190 181.315887,638.184631 197.259903,650.330627 
	C225.393265,671.762268 256.632141,687.874878 290.427734,698.821411 
	C321.190918,708.785706 352.775574,714.050293 385.010742,714.526001 
	C400.986023,714.761841 417.157684,714.016663 432.940002,711.683044 
	C450.176544,709.134338 467.298584,705.037842 484.051239,700.172363 
	C508.680176,693.019470 531.813232,682.215576 553.962036,669.116394 
	C576.591553,655.732849 597.007629,639.601746 615.834534,621.453064 
	C623.968445,613.612122 631.373474,604.902222 638.326538,595.977051 
	C647.588013,584.088745 656.971741,572.136963 664.700684,559.251404 
	C675.860046,540.646729 685.631897,521.172668 692.162292,500.352753 
	C696.165649,487.589447 699.436462,474.596375 703.456360,460.953186 
z"/>
<path fill="#FCFCFC" opacity="1.000000" stroke="none" 
	d="
M703.246338,461.329834 
	C699.436462,474.596375 696.165649,487.589447 692.162292,500.352753 
	C685.631897,521.172668 675.860046,540.646729 664.700684,559.251404 
	C656.971741,572.136963 647.588013,584.088745 638.326538,595.977051 
	C631.373474,604.902222 623.968445,613.612122 615.834534,621.453064 
	C597.007629,639.601746 576.591553,655.732849 553.962036,669.116394 
	C531.813232,682.215576 508.680176,693.019470 484.051239,700.172363 
	C467.298584,705.037842 450.176544,709.134338 432.940002,711.683044 
	C417.157684,714.016663 400.986023,714.761841 385.010742,714.526001 
	C352.775574,714.050293 321.190918,708.785706 290.427734,698.821411 
	C256.632141,687.874878 225.393265,671.762268 197.259903,650.330627 
	C181.315887,638.184631 166.453751,624.307190 152.641922,609.750610 
	C134.532791,590.665100 119.722572,568.928894 107.152817,545.683960 
	C92.982208,519.478699 82.663803,491.835297 76.352135,462.838287 
	C73.130859,448.039154 71.448296,432.824799 70.177422,417.705048 
	C69.010864,403.826202 68.342133,389.757141 69.258278,375.891083 
	C70.288918,360.292023 72.418877,344.625336 75.754646,329.355927 
	C79.560593,311.934296 84.292198,294.580627 90.365929,277.829895 
	C95.486145,263.708893 102.454887,250.131104 109.802673,236.981888 
	C116.643791,224.739410 124.868134,213.243683 132.866760,201.684387 
	C137.386215,195.153030 142.455307,188.963226 147.660965,182.952255 
	C168.915619,158.409531 193.465408,137.581711 221.067917,120.617378 
	C246.407959,105.043541 273.389984,92.678848 302.260040,85.156944 
	C316.975525,81.322937 332.081970,78.983528 347.020691,76.013809 
	C364.496155,72.539795 382.211334,72.717934 399.871887,73.181389 
	C410.523926,73.460930 421.200897,74.607033 431.760559,76.109573 
	C443.823730,77.826050 455.984497,79.575577 467.711975,82.753273 
	C482.929230,86.876556 497.998688,91.808861 512.701660,97.503456 
	C533.885132,105.707954 553.550171,116.990097 572.291138,129.833527 
	C592.621582,143.766266 611.010254,160.020615 627.541260,178.201126 
	C650.021912,202.924896 668.529114,230.526016 681.819031,261.210327 
	C689.212219,278.280212 695.863953,295.885406 700.557251,313.848328 
	C704.948059,330.653473 707.232178,348.168793 708.750305,365.519684 
	C710.252319,382.687653 710.574829,400.090515 709.663696,417.297638 
	C708.889526,431.918060 705.621155,446.406403 703.246338,461.329834 
M227.394562,311.892334 
	C227.394562,282.702789 227.394562,253.513260 227.394562,223.877396 
	C224.610611,223.877396 222.319717,223.877396 219.356384,223.396255 
	C199.563980,223.596497 179.755554,223.387146 159.985519,224.159760 
	C149.157013,224.582932 141.877808,232.870407 141.192856,243.377701 
	C140.537872,253.425369 146.418777,261.642426 156.665695,264.333649 
	C163.199478,266.049652 169.883331,267.194275 176.632065,268.623077 
	C176.632065,328.901947 176.632065,389.410461 176.632065,449.886322 
	C171.088470,450.291290 165.928452,450.462555 160.822418,451.080200 
	C146.092407,452.861969 137.827316,464.916992 142.434753,478.571320 
	C143.867767,482.818054 147.258301,486.404266 149.930344,490.948547 
	C154.193604,498.213928 161.254395,500.708801 168.940857,500.966125 
	C185.066315,501.506012 201.211395,501.487427 217.349060,501.623291 
	C226.790955,501.702789 226.790634,501.637756 227.997177,492.584381 
	C228.017029,492.435425 228.151321,492.301727 228.367828,491.924774 
	C229.218887,492.173309 230.215515,492.284790 231.031296,492.728638 
	C257.259644,506.998993 285.199463,511.431427 314.572968,506.968994 
	C351.782288,501.316132 379.406372,482.326752 395.139862,447.604797 
	C398.245178,440.751801 399.839142,433.213959 402.203308,425.761047 
	C404.781250,426.171021 407.370667,426.724213 409.988678,426.959595 
	C412.630493,427.197144 415.300659,427.119415 418.412750,427.719879 
	C423.338470,437.664001 427.396027,448.168579 433.375702,457.432404 
	C444.847900,475.205200 462.390076,485.901337 481.497772,495.420197 
	C487.450897,497.961792 493.234863,501.051788 499.386566,502.949554 
	C525.266785,510.933319 550.837952,509.878693 575.955261,500.215424 
	C574.417053,507.101807 574.119995,514.602051 571.081238,520.746277 
	C564.832031,533.382202 553.144165,538.694153 539.475647,539.065308 
	C523.828308,539.490173 508.161865,539.181213 492.504547,539.298279 
	C488.184418,539.330566 483.852753,539.596069 479.551331,540.012512 
	C467.454742,541.183411 460.177368,548.274780 459.291107,559.562683 
	C458.458160,570.172424 464.901978,578.176331 476.889648,581.759277 
	C481.940582,590.894348 490.698853,592.832642 499.935394,592.952881 
	C519.427246,593.206604 538.925598,593.088135 558.419861,592.931519 
	C562.555908,592.898315 566.741516,592.333679 570.809204,591.531738 
	C603.097107,585.166382 639.191345,557.544189 638.377197,509.900543 
	C637.506226,458.926392 638.182861,407.925781 638.184021,356.936737 
	C638.184082,355.030823 638.184021,353.124878 638.184021,351.473938 
	C645.193115,350.876984 651.390625,350.790924 657.420044,349.740051 
	C668.629089,347.786285 674.957642,340.187500 675.071655,329.443390 
	C675.190674,318.222900 669.123108,310.529816 657.883850,308.214600 
	C654.011475,307.416870 649.965332,307.462769 645.193481,306.949036 
	C622.465454,301.426666 599.417908,305.409485 576.295471,303.884735 
	C576.163574,306.077209 576.076050,307.532166 575.251282,308.936890 
	C565.510681,306.408813 555.770020,303.880707 545.206726,301.116760 
	C531.422058,298.644836 517.646912,296.951660 503.564362,298.781464 
	C465.311981,303.751678 438.188934,324.014954 422.975616,359.063293 
	C419.079346,368.039490 413.820953,370.551971 405.615479,370.912231 
	C402.460693,371.050720 399.295288,370.946381 395.958038,370.242188 
	C395.253876,368.553802 394.631348,366.825806 393.833435,365.182983 
	C379.948181,336.594482 358.555267,316.400543 327.454437,306.048340 
	C322.800873,304.818481 318.158112,303.545837 313.491943,302.365784 
	C285.067932,295.177399 257.840637,298.296722 231.786636,311.795349 
	C230.481766,312.471405 228.784607,312.390259 227.394562,311.892334 
z"/>
<path fill="#FFB54C" opacity="1.000000" stroke="none" 
	d="
M481.017090,494.922028 
	C462.390076,485.901337 444.847900,475.205200 433.375702,457.432404 
	C427.396027,448.168579 423.338470,437.664001 418.201447,427.020081 
	C417.660797,419.971771 416.864319,419.865540 410.809845,420.399323 
	C404.772308,420.931580 398.581390,420.482361 392.532593,419.799927 
	C389.623993,419.471802 388.556305,419.473755 387.891846,422.736847 
	C381.819885,452.555511 364.523254,473.977875 337.876831,487.978516 
	C324.490967,495.011749 310.024719,497.961243 294.901489,499.281006 
	C278.229828,500.735901 262.118591,499.255829 246.362808,494.128357 
	C237.571533,491.267395 229.100235,487.423248 220.230301,483.921753 
	C220.153946,484.924438 219.858185,486.054169 220.023193,487.112030 
	C220.795212,492.061920 218.612030,493.260773 213.904480,493.106232 
	C203.417648,492.761963 192.909729,493.125580 182.414291,492.957367 
	C174.454468,492.829803 166.493134,492.443146 158.548126,491.929504 
	C155.593384,491.738464 152.683167,490.858612 149.752655,490.292877 
	C147.258301,486.404266 143.867767,482.818054 142.434753,478.571320 
	C137.827316,464.916992 146.092407,452.861969 160.822418,451.080200 
	C165.928452,450.462555 171.088470,450.291290 176.632065,449.886322 
	C176.632065,389.410461 176.632065,328.901947 176.632065,268.623077 
	C169.883331,267.194275 163.199478,266.049652 156.665695,264.333649 
	C146.418777,261.642426 140.537872,253.425369 141.192856,243.377701 
	C141.877808,232.870407 149.157013,224.582932 159.985519,224.159760 
	C179.755554,223.387146 199.563980,223.596497 219.679352,224.114410 
	C220.002335,255.740204 220.002335,286.647827 220.002335,317.555420 
	C220.544144,317.785614 221.085938,318.015778 221.627747,318.245972 
	C223.508530,316.384521 225.389328,314.523102 227.270111,312.661652 
	C228.784607,312.390259 230.481766,312.471405 231.786636,311.795349 
	C257.840637,298.296722 285.067932,295.177399 313.491943,302.365784 
	C318.158112,303.545837 322.800873,304.818481 327.861420,306.593567 
	C334.031769,310.680206 340.076477,313.839447 345.505310,317.835358 
	C361.212372,329.396759 373.892517,343.565552 381.443542,361.840149 
	C384.593933,369.464569 386.863800,370.920044 396.134705,370.952698 
	C399.295288,370.946381 402.460693,371.050720 405.615479,370.912231 
	C413.820953,370.551971 419.079346,368.039490 422.975616,359.063293 
	C438.188934,324.014954 465.311981,303.751678 503.564362,298.781464 
	C517.646912,296.951660 531.422058,298.644836 545.718994,301.562683 
	C556.023071,306.389557 565.814819,310.770538 575.988586,315.322418 
	C575.988586,313.237183 575.988586,311.112183 575.988525,308.987152 
	C576.076050,307.532166 576.163574,306.077209 576.295471,303.884735 
	C599.417908,305.409485 622.465454,301.426666 645.636841,307.373169 
	C647.104004,309.079529 648.034424,310.451508 649.166931,311.629181 
	C656.004089,318.738861 655.873657,332.210358 649.226135,339.372101 
	C642.741699,346.358215 634.239014,346.556793 625.803467,346.934082 
	C619.002563,347.238251 619.023132,347.006317 618.982971,353.643982 
	C618.663391,406.424164 618.604431,459.208862 617.721375,511.979675 
	C617.581909,520.312317 615.225159,529.402283 611.279968,536.736145 
	C596.032959,565.079590 571.864990,580.543884 539.490906,581.885803 
	C523.688599,582.540710 507.836182,582.071716 492.007568,581.958496 
	C486.879578,581.921814 481.755066,581.398682 476.628967,581.098022 
	C464.901978,578.176331 458.458160,570.172424 459.291107,559.562683 
	C460.177368,548.274780 467.454742,541.183411 479.551331,540.012512 
	C483.852753,539.596069 488.184418,539.330566 492.504547,539.298279 
	C508.161865,539.181213 523.828308,539.490173 539.475647,539.065308 
	C553.144165,538.694153 564.832031,533.382202 571.081238,520.746277 
	C574.119995,514.602051 574.417053,507.101807 575.960205,499.288361 
	C575.965210,493.017273 575.965210,487.673248 575.965210,481.878357 
	C574.264465,482.532074 573.592834,482.672638 573.049377,483.016022 
	C548.395081,498.594360 521.674744,502.337219 493.348663,497.003998 
	C489.252655,496.232788 485.128326,495.612274 481.017090,494.922028 
M238.128983,442.916840 
	C238.128983,442.916840 238.113083,442.789490 238.297119,443.348694 
	C238.625000,443.545837 238.952866,443.743011 239.845474,444.267273 
	C245.527969,447.269745 251.210464,450.272217 257.445892,453.730804 
	C259.579498,454.206055 261.713074,454.681305 264.519531,455.601532 
	C276.430878,455.719604 288.458801,456.937378 300.225403,455.690002 
	C316.609711,453.953125 330.194122,445.985596 339.336609,431.820923 
	C355.008301,407.540344 346.770264,371.181641 321.551056,353.380188 
	C316.696381,350.965302 311.841736,348.550415 306.593689,345.507935 
	C284.793549,337.536499 264.200256,339.932495 245.332886,353.463135 
	C222.379379,369.924103 213.911133,398.061676 223.881058,424.565155 
	C226.213531,430.765717 229.053177,437.205750 236.059311,439.983734 
	C236.059311,439.983734 236.074417,439.890106 236.067459,440.547699 
	C236.481842,440.977142 236.896240,441.406586 237.171204,441.885223 
	C237.171204,441.885223 237.179535,441.737610 237.286469,442.304596 
	C237.606018,442.490479 237.925583,442.676361 238.128983,442.916840 
M555.620605,479.699127 
	C559.475647,476.852875 560.979614,473.233551 559.364807,468.175751 
	C554.157898,470.478607 553.747803,466.874573 553.589783,463.416534 
	C548.285645,461.997559 544.512024,463.366913 541.944275,468.801758 
	C540.168152,472.969055 541.831299,476.357849 544.809387,479.016327 
	C547.791138,481.678101 551.381836,481.833801 555.620605,479.699127 
M482.402863,321.401031 
	C478.627838,329.482147 482.186859,335.538239 491.613708,335.864136 
	C499.388580,332.761444 501.542358,327.206726 496.922241,321.277405 
	C495.315979,320.195526 493.709686,319.113647 491.606354,317.499878 
	C488.735382,318.634766 485.864380,319.769684 482.402863,321.401031 
M600.694214,439.923676 
	C607.571716,436.773743 609.026855,432.667480 605.379944,426.359833 
	C603.670288,426.322662 601.752258,426.185944 600.893860,425.161407 
	C597.304749,420.877533 595.994690,420.712982 591.312683,425.208130 
	C588.475952,428.236786 588.150208,431.658112 590.089722,435.187347 
	C592.207153,439.040405 595.509033,440.793793 600.694214,439.923676 
M365.607513,363.304749 
	C359.510132,360.340302 355.259277,361.826904 351.907715,368.722443 
	C350.651245,376.620972 355.011688,380.662628 364.557098,379.653015 
	C367.768677,376.780762 371.894745,374.283936 368.991516,368.149567 
	C367.983124,366.759155 366.974731,365.368774 365.607513,363.304749 
M446.959167,364.384094 
	C445.640472,363.256470 444.321808,362.128845 442.477509,360.462219 
	C437.015045,358.927582 433.720337,361.788605 430.935028,366.767487 
	C429.208710,374.924286 435.156006,380.453644 443.707062,377.926270 
	C449.550720,373.971191 450.703461,369.551727 446.959167,364.384094 
M542.395142,322.387543 
	C538.951660,330.360229 543.092102,336.232880 552.696045,335.940857 
	C554.634460,334.526062 557.242493,333.502167 558.351013,331.602997 
	C559.931458,328.895386 561.931763,325.297516 557.037903,322.408478 
	C556.025269,321.271667 555.012634,320.134857 553.476624,318.422943 
	C549.208984,317.274597 545.535828,317.918793 542.395142,322.387543 
M304.428497,469.370331 
	C303.073700,474.017212 304.821899,477.558746 308.771576,479.817444 
	C311.872620,481.590851 315.282318,482.243988 318.871796,478.961945 
	C320.135284,476.143250 321.720459,473.398163 322.396362,470.444977 
	C322.534912,469.839661 319.268890,468.455109 317.165924,467.184265 
	C317.442047,463.808716 315.199615,462.500366 311.367645,462.946869 
	C307.818451,463.360413 305.660339,465.250671 304.428497,469.370331 
M481.746460,467.747955 
	C480.238403,471.689758 480.659149,475.399597 483.940216,478.146912 
	C486.795380,480.537598 490.123596,482.161896 494.622772,479.725769 
	C498.492401,477.788849 500.618927,474.328430 499.570953,470.430115 
	C499.040588,468.457336 495.596252,467.267914 493.114105,465.466461 
	C493.877167,462.474609 492.687073,460.990479 488.737854,462.385590 
	C486.288422,463.250885 484.311737,465.454224 481.746460,467.747955 
M601.629639,379.730988 
	C605.832153,377.974243 607.425781,374.513702 607.540344,370.272766 
	C607.731628,363.194366 599.456116,366.390961 597.361450,362.025085 
	C594.917358,363.683594 592.473267,365.342133 589.662415,367.689331 
	C587.729736,375.905823 591.974854,380.498047 601.629639,379.730988 
M244.464874,467.567780 
	C243.146301,471.868317 243.667358,475.774536 247.285522,478.757477 
	C250.174408,481.139191 253.407501,481.889984 257.537415,479.636902 
	C261.091614,477.302551 263.326233,473.696167 261.741058,469.920532 
	C260.453339,466.853394 257.454895,463.651062 254.429352,462.381989 
	C250.607971,460.779144 247.134720,463.310303 244.464874,467.567780 
M440.662292,438.816406 
	C448.434387,436.412659 451.037079,431.319122 446.005646,424.062408 
	C445.887360,425.499603 445.769073,426.936798 445.650787,428.373993 
	C443.950562,423.919342 444.596069,419.244476 438.993317,420.197327 
	C436.838959,420.563721 434.955109,422.520874 432.289215,424.217987 
	C428.559906,431.747986 431.335693,437.023682 440.662292,438.816406 
M352.699982,426.643982 
	C349.303009,434.489349 353.856628,440.401733 363.572998,439.727539 
	C365.720093,437.023834 369.527588,434.346802 369.571503,431.609375 
	C369.620483,428.555939 366.274139,425.431976 364.329071,422.387604 
	C364.135773,422.085052 363.416199,422.053680 362.931122,422.012909 
	C358.966370,421.679596 355.246918,421.980957 352.699982,426.643982 
M193.456711,366.553314 
	C192.102875,375.500671 197.836197,380.724701 206.613144,377.730957 
	C211.421951,374.547913 212.640213,371.407440 210.842102,366.527649 
	C209.394226,366.845825 207.917450,367.170349 206.313980,367.522705 
	C206.034424,364.871429 205.797348,362.622955 205.557236,360.345825 
	C199.984741,359.445129 195.937408,360.621063 193.456711,366.553314 
M203.640518,438.792084 
	C209.942932,436.333740 211.975571,433.362183 211.275864,427.018250 
	C207.835693,427.547913 205.709473,426.341614 205.735672,422.303589 
	C205.740463,421.563660 202.970947,419.881042 202.172165,420.227020 
	C199.323090,421.460938 196.771530,423.381744 193.746536,425.733734 
	C191.802872,433.561066 194.419739,437.261475 203.640518,438.792084 
M321.006622,323.308411 
	C319.398712,321.888031 317.790802,320.467651 315.636719,318.451141 
	C311.027985,317.369019 307.004944,317.703522 304.413422,323.456085 
	C302.832764,332.149841 305.764221,335.981934 314.765839,336.021881 
	C321.462341,333.933899 323.370514,330.291779 321.006622,323.308411 
M253.699509,335.943237 
	C256.275848,333.952484 259.656799,332.453247 261.242554,329.857391 
	C263.706085,325.824493 261.868378,323.431976 257.000000,322.999359 
	C257.000000,322.999359 257.018250,323.013947 257.167236,322.531128 
	C256.607330,321.924744 255.445007,321.038879 255.577332,320.753693 
	C257.778534,316.009796 253.407425,316.957458 251.949768,317.282135 
	C249.791107,317.762939 247.931076,319.584564 245.322601,321.222351 
	C242.593811,324.135773 242.472244,327.306213 244.281982,330.742889 
	C246.133255,334.258423 248.757111,336.375000 253.699509,335.943237 
M499.912384,454.089386 
	C527.467651,462.484650 557.523438,450.207245 570.886841,421.846436 
	C582.213806,397.807556 573.616943,366.727692 551.780884,352.190186 
	C550.215393,351.165588 548.649902,350.140991 546.534180,348.664978 
	C543.629822,347.278717 540.725403,345.892487 537.272278,344.129364 
	C510.404755,335.575226 484.487854,342.985809 467.813843,366.463013 
	C457.337585,381.213745 455.049133,397.749512 460.115417,414.829254 
	C465.993896,434.646973 479.380890,447.658783 499.912384,454.089386 
z"/>
<path fill="#E9A138" opacity="1.000000" stroke="none" 
	d="
M476.759308,581.428650 
	C481.755066,581.398682 486.879578,581.921814 492.007568,581.958496 
	C507.836182,582.071716 523.688599,582.540710 539.490906,581.885803 
	C571.864990,580.543884 596.032959,565.079590 611.279968,536.736145 
	C615.225159,529.402283 617.581909,520.312317 617.721375,511.979675 
	C618.604431,459.208862 618.663391,406.424164 618.982971,353.643982 
	C619.023132,347.006317 619.002563,347.238251 625.803467,346.934082 
	C634.239014,346.556793 642.741699,346.358215 649.226135,339.372101 
	C655.873657,332.210358 656.004089,318.738861 649.166931,311.629181 
	C648.034424,310.451508 647.104004,309.079529 646.039368,307.460327 
	C649.965332,307.462769 654.011475,307.416870 657.883850,308.214600 
	C669.123108,310.529816 675.190674,318.222900 675.071655,329.443390 
	C674.957642,340.187500 668.629089,347.786285 657.420044,349.740051 
	C651.390625,350.790924 645.193115,350.876984 638.184021,351.473938 
	C638.184021,353.124878 638.184082,355.030823 638.184021,356.936737 
	C638.182861,407.925781 637.506226,458.926392 638.377197,509.900543 
	C639.191345,557.544189 603.097107,585.166382 570.809204,591.531738 
	C566.741516,592.333679 562.555908,592.898315 558.419861,592.931519 
	C538.925598,593.088135 519.427246,593.206604 499.935394,592.952881 
	C490.698853,592.832642 481.940582,590.894348 476.759308,581.428650 
z"/>
<path fill="#E9A13A" opacity="1.000000" stroke="none" 
	d="
M149.841492,490.620728 
	C152.683167,490.858612 155.593384,491.738464 158.548126,491.929504 
	C166.493134,492.443146 174.454468,492.829803 182.414291,492.957367 
	C192.909729,493.125580 203.417648,492.761963 213.904480,493.106232 
	C218.612030,493.260773 220.795212,492.061920 220.023193,487.112030 
	C219.858185,486.054169 220.153946,484.924438 220.230301,483.921753 
	C229.100235,487.423248 237.571533,491.267395 246.362808,494.128357 
	C262.118591,499.255829 278.229828,500.735901 294.901489,499.281006 
	C310.024719,497.961243 324.490967,495.011749 337.876831,487.978516 
	C364.523254,473.977875 381.819885,452.555511 387.891846,422.736847 
	C388.556305,419.473755 389.623993,419.471802 392.532593,419.799927 
	C398.581390,420.482361 404.772308,420.931580 410.809845,420.399323 
	C416.864319,419.865540 417.660797,419.971771 417.974274,426.750092 
	C415.300659,427.119415 412.630493,427.197144 409.988678,426.959595 
	C407.370667,426.724213 404.781250,426.171021 402.203308,425.761047 
	C399.839142,433.213959 398.245178,440.751801 395.139862,447.604797 
	C379.406372,482.326752 351.782288,501.316132 314.572968,506.968994 
	C285.199463,511.431427 257.259644,506.998993 231.031296,492.728638 
	C230.215515,492.284790 229.218887,492.173309 228.367828,491.924774 
	C228.151321,492.301727 228.017029,492.435425 227.997177,492.584381 
	C226.790634,501.637756 226.790955,501.702789 217.349060,501.623291 
	C201.211395,501.487427 185.066315,501.506012 168.940857,500.966125 
	C161.254395,500.708801 154.193604,498.213928 149.841492,490.620728 
z"/>
<path fill="#EAA23A" opacity="1.000000" stroke="none" 
	d="
M481.257446,495.171112 
	C485.128326,495.612274 489.252655,496.232788 493.348663,497.003998 
	C521.674744,502.337219 548.395081,498.594360 573.049377,483.016022 
	C573.592834,482.672638 574.264465,482.532074 575.965210,481.878357 
	C575.965210,487.673248 575.965210,493.017273 575.935425,498.856567 
	C550.837952,509.878693 525.266785,510.933319 499.386566,502.949554 
	C493.234863,501.051788 487.450897,497.961792 481.257446,495.171112 
z"/>
<path fill="#E9A036" opacity="1.000000" stroke="none" 
	d="
M227.332336,312.276978 
	C225.389328,314.523102 223.508530,316.384521 221.627747,318.245972 
	C221.085938,318.015778 220.544144,317.785614 220.002335,317.555420 
	C220.002335,286.647827 220.002335,255.740204 220.015579,224.354980 
	C222.319717,223.877396 224.610611,223.877396 227.394562,223.877396 
	C227.394562,253.513260 227.394562,282.702789 227.332336,312.276978 
z"/>
<path fill="#EAA33C" opacity="1.000000" stroke="none" 
	d="
M396.046387,370.597443 
	C386.863800,370.920044 384.593933,369.464569 381.443542,361.840149 
	C373.892517,343.565552 361.212372,329.396759 345.505310,317.835358 
	C340.076477,313.839447 334.031769,310.680206 328.155884,306.780609 
	C358.555267,316.400543 379.948181,336.594482 393.833435,365.182983 
	C394.631348,366.825806 395.253876,368.553802 396.046387,370.597443 
z"/>
<path fill="#EBA43F" opacity="1.000000" stroke="none" 
	d="
M575.619934,308.962036 
	C575.988586,311.112183 575.988586,313.237183 575.988586,315.322418 
	C565.814819,310.770538 556.023071,306.389557 546.130371,301.680603 
	C555.770020,303.880707 565.510681,306.408813 575.619934,308.962036 
z"/>
<path fill="#72C3FE" opacity="1.000000" stroke="none" 
	d="
M321.894684,353.930267 
	C346.770264,371.181641 355.008301,407.540344 339.336609,431.820923 
	C330.194122,445.985596 316.609711,453.953125 300.225403,455.690002 
	C288.458801,456.937378 276.430878,455.719604 264.341980,455.067505 
	C273.683533,445.258606 283.222198,436.003754 292.712769,426.699829 
	C296.989929,422.506836 301.306091,418.336304 305.286194,413.871796 
	C306.118347,412.938324 305.550293,410.756622 305.627472,409.150146 
	C304.145050,409.263763 302.599884,409.162537 301.203491,409.570618 
	C300.348206,409.820557 299.711121,410.841156 298.993195,411.533478 
	C289.782471,420.415253 280.511597,429.236023 271.391663,438.210083 
	C266.425842,443.096527 261.717468,448.244598 256.892975,453.274658 
	C251.210464,450.272217 245.527969,447.269745 239.454132,443.829712 
	C238.746231,443.191254 238.429657,442.990356 238.113083,442.789490 
	C238.113083,442.789490 238.128983,442.916840 238.130768,442.605042 
	C237.814880,442.108002 237.497208,441.922821 237.179535,441.737610 
	C237.179535,441.737610 237.171204,441.885223 237.219330,441.552826 
	C236.869766,440.776978 236.472092,440.333557 236.074417,439.890106 
	C236.074417,439.890106 236.059311,439.983734 236.025513,439.606995 
	C211.228989,397.943756 243.828278,346.786011 287.900482,346.005341 
	C276.620300,362.641785 265.395538,378.887085 254.464630,395.327759 
	C253.373398,396.969025 254.069077,399.798309 254.080627,402.385315 
	C256.326172,406.082825 258.350891,409.521210 260.548553,412.845245 
	C262.659973,416.038849 264.953461,417.127106 268.012482,413.589111 
	C273.873779,406.810059 279.977417,400.241180 285.928040,393.538544 
	C296.394867,381.748962 306.803284,369.907501 317.289124,358.134979 
	C318.664398,356.590942 320.351837,355.325012 321.894684,353.930267 
z"/>
<path fill="#72C3FE" opacity="1.000000" stroke="none" 
	d="
M552.118591,352.725098 
	C573.616943,366.727692 582.213806,397.807556 570.886841,421.846436 
	C557.523438,450.207245 527.467651,462.484650 499.382019,453.747925 
	C498.102570,452.709106 497.353455,452.011780 496.934570,451.144714 
	C512.634277,435.344879 527.990479,419.701843 543.379211,404.090729 
	C550.009705,397.364410 550.019409,397.023926 542.790771,391.188263 
	C541.506653,390.151550 540.268250,389.058197 538.627197,387.949402 
	C536.315186,388.993988 534.051697,389.733643 532.505493,391.219635 
	C516.242615,406.848969 500.094330,422.597534 483.621002,438.120819 
	C465.581573,413.369843 470.135254,379.430511 493.574432,359.260956 
	C506.400665,348.223877 521.252747,343.966125 537.821045,344.506226 
	C540.725403,345.892487 543.629822,347.278717 546.741089,349.222168 
	C545.438049,351.518555 544.063599,353.401611 542.395508,354.973053 
	C533.100769,363.729156 523.674927,372.347412 514.471802,381.197754 
	C513.362000,382.265015 513.325989,384.448853 512.792297,386.115234 
	C514.662415,385.767487 517.023804,386.018799 518.312561,384.962036 
	C522.535400,381.499451 526.399414,377.593689 530.344299,373.798920 
	C537.623718,366.796509 544.862732,359.752045 552.118591,352.725098 
z"/>
<path fill="#E8A13A" opacity="1.000000" stroke="none" 
	d="
M496.604370,451.314453 
	C497.353455,452.011780 498.102570,452.709106 499.008972,453.672302 
	C479.380890,447.658783 465.993896,434.646973 460.115417,414.829254 
	C455.049133,397.749512 457.337585,381.213745 467.813843,366.463013 
	C484.487854,342.985809 510.404755,335.575226 537.546631,344.317810 
	C521.252747,343.966125 506.400665,348.223877 493.574432,359.260956 
	C470.135254,379.430511 465.581573,413.369843 483.690918,438.396912 
	C484.679901,439.580231 485.305542,440.295135 486.053467,441.324585 
	C489.651917,444.864227 493.128143,448.089325 496.604370,451.314453 
z"/>
<path fill="#A6DAFF" opacity="1.000000" stroke="none" 
	d="
M321.722870,353.655212 
	C320.351837,355.325012 318.664398,356.590942 317.289124,358.134979 
	C306.803284,369.907501 296.394867,381.748962 285.928040,393.538544 
	C279.977417,400.241180 273.873779,406.810059 268.012482,413.589111 
	C264.953461,417.127106 262.659973,416.038849 260.548553,412.845245 
	C258.350891,409.521210 256.326172,406.082825 254.433594,402.333618 
	C255.394028,401.374115 256.308105,400.898926 256.875031,400.158081 
	C265.108307,389.399139 273.382751,378.669708 281.462219,367.795685 
	C286.858795,360.532562 291.962219,353.051636 297.637146,345.619141 
	C301.047333,345.758545 304.017212,345.947052 306.987061,346.135529 
	C311.841736,348.550415 316.696381,350.965302 321.722870,353.655212 
z"/>
<path fill="#E7A13B" opacity="1.000000" stroke="none" 
	d="
M306.790375,345.821716 
	C304.017212,345.947052 301.047333,345.758545 297.282288,345.440125 
	C293.670929,345.429840 290.854828,345.549530 288.038696,345.669250 
	C243.828278,346.786011 211.228989,397.943756 236.061707,439.576385 
	C229.053177,437.205750 226.213531,430.765717 223.881058,424.565155 
	C213.911133,398.061676 222.379379,369.924103 245.332886,353.463135 
	C264.200256,339.932495 284.793549,337.536499 306.790375,345.821716 
z"/>
<path fill="#A4D9FE" opacity="1.000000" stroke="none" 
	d="
M257.169434,453.502747 
	C261.717468,448.244598 266.425842,443.096527 271.391663,438.210083 
	C280.511597,429.236023 289.782471,420.415253 298.993195,411.533478 
	C299.711121,410.841156 300.348206,409.820557 301.203491,409.570618 
	C302.599884,409.162537 304.145050,409.263763 305.627472,409.150146 
	C305.550293,410.756622 306.118347,412.938324 305.286194,413.871796 
	C301.306091,418.336304 296.989929,422.506836 292.712769,426.699829 
	C283.222198,436.003754 273.683533,445.258606 264.005554,454.845032 
	C261.713074,454.681305 259.579498,454.206055 257.169434,453.502747 
z"/>
<path fill="#A4D9FE" opacity="1.000000" stroke="none" 
	d="
M551.949707,352.457642 
	C544.862732,359.752045 537.623718,366.796509 530.344299,373.798920 
	C526.399414,377.593689 522.535400,381.499451 518.312561,384.962036 
	C517.023804,386.018799 514.662415,385.767487 512.792297,386.115234 
	C513.325989,384.448853 513.362000,382.265015 514.471802,381.197754 
	C523.674927,372.347412 533.100769,363.729156 542.395508,354.973053 
	C544.063599,353.401611 545.438049,351.518555 547.016235,349.447876 
	C548.649902,350.140991 550.215393,351.165588 551.949707,352.457642 
z"/>
<path fill="#D48C0F" opacity="1.000000" stroke="none" 
	d="
M245.943909,320.835388 
	C247.931076,319.584564 249.791107,317.762939 251.949768,317.282135 
	C253.407425,316.957458 257.778534,316.009796 255.577332,320.753693 
	C255.445007,321.038879 256.607330,321.924744 256.952362,322.816772 
	C256.820038,323.062012 256.902557,323.021545 256.985107,322.981079 
	C261.868378,323.431976 263.706085,325.824493 261.242554,329.857391 
	C259.656799,332.453247 256.275848,333.952484 253.172485,335.629700 
	C246.782928,332.168518 245.234467,327.024414 245.943909,320.835388 
z"/>
<path fill="#D38B0E" opacity="1.000000" stroke="none" 
	d="
M304.975006,322.859009 
	C307.004944,317.703522 311.027985,317.369019 315.821167,319.147034 
	C315.819580,323.467163 316.191711,326.426300 321.032104,324.061401 
	C323.370514,330.291779 321.462341,333.933899 314.179108,335.751465 
	C307.971405,333.150177 304.940796,329.050812 304.975006,322.859009 
z"/>
<path fill="#D28B0E" opacity="1.000000" stroke="none" 
	d="
M194.107391,425.042603 
	C196.771530,423.381744 199.323090,421.460938 202.172165,420.227020 
	C202.970947,419.881042 205.740463,421.563660 205.735672,422.303589 
	C205.709473,426.341614 207.835693,427.547913 211.275864,427.018250 
	C211.975571,433.362183 209.942932,436.333740 203.227020,438.443420 
	C196.994614,435.689636 195.951874,430.098724 194.107391,425.042603 
z"/>
<path fill="#D48D11" opacity="1.000000" stroke="none" 
	d="
M193.981598,365.985016 
	C195.937408,360.621063 199.984741,359.445129 205.557236,360.345825 
	C205.797348,362.622955 206.034424,364.871429 206.313980,367.522705 
	C207.917450,367.170349 209.394226,366.845825 210.842102,366.527649 
	C212.640213,371.407440 211.421951,374.547913 206.043015,377.571106 
	C198.483261,376.779694 195.224777,372.395752 193.981598,365.985016 
z"/>
<path fill="#D38B0E" opacity="1.000000" stroke="none" 
	d="
M353.060181,426.029297 
	C355.246918,421.980957 358.966370,421.679596 362.931122,422.012909 
	C363.416199,422.053680 364.135773,422.085052 364.329071,422.387604 
	C366.274139,425.431976 369.620483,428.555939 369.571503,431.609375 
	C369.527588,434.346802 365.720093,437.023834 363.018311,439.559113 
	C357.245941,437.988129 354.340027,434.693787 353.962067,429.210266 
	C353.887909,428.134338 353.372223,427.088837 353.060181,426.029297 
z"/>
<path fill="#D38C10" opacity="1.000000" stroke="none" 
	d="
M432.948029,423.753204 
	C434.955109,422.520874 436.838959,420.563721 438.993317,420.197327 
	C444.596069,419.244476 443.950562,423.919342 445.650787,428.373993 
	C445.769073,426.936798 445.887360,425.499603 446.005646,424.062408 
	C451.037079,431.319122 448.434387,436.412659 440.252441,438.469086 
	C435.255157,434.430725 432.238434,429.985962 432.948029,423.753204 
z"/>
<path fill="#D38B0F" opacity="1.000000" stroke="none" 
	d="
M245.022446,467.003540 
	C247.134720,463.310303 250.607971,460.779144 254.429352,462.381989 
	C257.454895,463.651062 260.453339,466.853394 261.741058,469.920532 
	C263.326233,473.696167 261.091614,477.302551 256.973511,479.498352 
	C249.167450,478.417145 246.582733,473.182404 245.022446,467.003540 
z"/>
<path fill="#D38C0F" opacity="1.000000" stroke="none" 
	d="
M590.029236,367.000671 
	C592.473267,365.342133 594.917358,363.683594 597.361450,362.025085 
	C599.456116,366.390961 607.731628,363.194366 607.540344,370.272766 
	C607.425781,374.513702 605.832153,377.974243 601.099243,379.558502 
	C594.445923,377.478424 591.526672,372.844482 590.029236,367.000671 
z"/>
<path fill="#D38C10" opacity="1.000000" stroke="none" 
	d="
M482.122833,467.056946 
	C484.311737,465.454224 486.288422,463.250885 488.737854,462.385590 
	C492.687073,460.990479 493.877167,462.474609 493.114105,465.466461 
	C495.596252,467.267914 499.040588,468.457336 499.570953,470.430115 
	C500.618927,474.328430 498.492401,477.788849 494.068848,479.569092 
	C489.156921,478.180786 485.249573,476.465698 483.961487,471.469910 
	C483.567657,469.942444 482.747650,468.524841 482.122833,467.056946 
z"/>
<path fill="#D38C10" opacity="1.000000" stroke="none" 
	d="
M304.931244,468.756470 
	C305.660339,465.250671 307.818451,463.360413 311.367645,462.946869 
	C315.199615,462.500366 317.442047,463.808716 317.165924,467.184265 
	C319.268890,468.455109 322.534912,469.839661 322.396362,470.444977 
	C321.720459,473.398163 320.135284,476.143250 318.096375,478.996704 
	C310.041534,479.404205 306.644043,475.096039 304.931244,468.756470 
z"/>
<path fill="#D28B0D" opacity="1.000000" stroke="none" 
	d="
M557.116699,323.164581 
	C561.931763,325.297516 559.931458,328.895386 558.351013,331.602997 
	C557.242493,333.502167 554.634460,334.526062 552.117676,335.695831 
	C544.739563,332.838104 543.101624,330.248871 542.971497,321.906647 
	C545.535828,317.918793 549.208984,317.274597 553.430664,318.891052 
	C553.295837,321.010101 553.206848,322.661041 553.117859,324.311951 
	C554.450806,323.929474 555.783752,323.547028 557.116699,323.164581 
z"/>
<path fill="#D38B0E" opacity="1.000000" stroke="none" 
	d="
M431.122223,366.062164 
	C433.720337,361.788605 437.015045,358.927582 442.571228,361.013885 
	C442.644318,363.103607 442.623688,364.641693 442.603088,366.179749 
	C444.087646,365.814545 445.572174,365.449371 447.056732,365.084229 
	C450.703461,369.551727 449.550720,373.971191 443.121277,377.689514 
	C435.636078,376.757019 433.506683,371.281799 431.122223,366.062164 
z"/>
<path fill="#D28B0D" opacity="1.000000" stroke="none" 
	d="
M368.973938,368.894165 
	C371.894745,374.283936 367.768677,376.780762 364.009949,379.503967 
	C357.139221,378.124969 354.218353,373.474792 352.083771,368.034271 
	C355.259277,361.826904 359.510132,360.340302 365.477936,363.818420 
	C365.091858,365.801025 364.835358,367.269958 364.578857,368.738892 
	C366.043854,368.790649 367.508911,368.842377 368.973938,368.894165 
z"/>
<path fill="#D38C0F" opacity="1.000000" stroke="none" 
	d="
M591.947327,424.817230 
	C595.994690,420.712982 597.304749,420.877533 600.893860,425.161407 
	C601.752258,426.185944 603.670288,426.322662 605.379944,426.359833 
	C609.026855,432.667480 607.571716,436.773743 600.136719,439.674133 
	C592.779480,436.778931 591.247070,431.381317 591.947327,424.817230 
z"/>
<path fill="#D28B0E" opacity="1.000000" stroke="none" 
	d="
M496.997742,321.978394 
	C501.542358,327.206726 499.388580,332.761444 491.056885,335.608154 
	C485.175293,332.002869 482.453003,327.301361 482.993408,320.904602 
	C485.864380,319.769684 488.735382,318.634766 491.686218,318.075439 
	C492.110474,320.186554 492.454865,321.722046 492.799255,323.257568 
	C494.198761,322.831177 495.598267,322.404785 496.997742,321.978394 
z"/>
<path fill="#D28B0D" opacity="1.000000" stroke="none" 
	d="
M542.158875,468.087677 
	C544.512024,463.366913 548.285645,461.997559 553.589783,463.416534 
	C553.747803,466.874573 554.157898,470.478607 559.364807,468.175751 
	C560.979614,473.233551 559.475647,476.852875 555.056030,479.558777 
	C547.354126,478.935516 544.412048,473.886536 542.158875,468.087677 
z"/>
<path fill="#AF7717" opacity="1.000000" stroke="none" 
	d="
M481.934631,467.402466 
	C482.747650,468.524841 483.567657,469.942444 483.961487,471.469910 
	C485.249573,476.465698 489.156921,478.180786 493.738586,479.674561 
	C490.123596,482.161896 486.795380,480.537598 483.940216,478.146912 
	C480.659149,475.399597 480.238403,471.689758 481.934631,467.402466 
z"/>
<path fill="#AF7717" opacity="1.000000" stroke="none" 
	d="
M244.743652,467.285645 
	C246.582733,473.182404 249.167450,478.417145 256.642700,479.601013 
	C253.407501,481.889984 250.174408,481.139191 247.285522,478.757477 
	C243.667358,475.774536 243.146301,471.868317 244.743652,467.285645 
z"/>
<path fill="#AF7717" opacity="1.000000" stroke="none" 
	d="
M542.051575,468.444702 
	C544.412048,473.886536 547.354126,478.935516 554.732300,479.682648 
	C551.381836,481.833801 547.791138,481.678101 544.809387,479.016327 
	C541.831299,476.357849 540.168152,472.969055 542.051575,468.444702 
z"/>
<path fill="#AD7516" opacity="1.000000" stroke="none" 
	d="
M591.630005,425.012695 
	C591.247070,431.381317 592.779480,436.778931 599.776978,439.690857 
	C595.509033,440.793793 592.207153,439.040405 590.089722,435.187347 
	C588.150208,431.658112 588.475952,428.236786 591.630005,425.012695 
z"/>
<path fill="#B47A19" opacity="1.000000" stroke="none" 
	d="
M193.719147,366.269165 
	C195.224777,372.395752 198.483261,376.779694 205.711395,377.674011 
	C197.836197,380.724701 192.102875,375.500671 193.719147,366.269165 
z"/>
<path fill="#AF7717" opacity="1.000000" stroke="none" 
	d="
M304.679871,469.063416 
	C306.644043,475.096039 310.041534,479.404205 317.750122,479.048981 
	C315.282318,482.243988 311.872620,481.590851 308.771576,479.817444 
	C304.821899,477.558746 303.073700,474.017212 304.679871,469.063416 
z"/>
<path fill="#AD7516" opacity="1.000000" stroke="none" 
	d="
M431.028625,366.414825 
	C433.506683,371.281799 435.636078,376.757019 442.768951,377.719788 
	C435.156006,380.453644 429.208710,374.924286 431.028625,366.414825 
z"/>
<path fill="#B47A19" opacity="1.000000" stroke="none" 
	d="
M245.633255,321.028870 
	C245.234467,327.024414 246.782928,332.168518 252.799622,335.605682 
	C248.757111,336.375000 246.133255,334.258423 244.281982,330.742889 
	C242.472244,327.306213 242.593811,324.135773 245.633255,321.028870 
z"/>
<path fill="#AD7516" opacity="1.000000" stroke="none" 
	d="
M589.845825,367.345001 
	C591.526672,372.844482 594.445923,377.478424 600.768311,379.652466 
	C591.974854,380.498047 587.729736,375.905823 589.845825,367.345001 
z"/>
<path fill="#AF7717" opacity="1.000000" stroke="none" 
	d="
M352.880096,426.336639 
	C353.372223,427.088837 353.887909,428.134338 353.962067,429.210266 
	C354.340027,434.693787 357.245941,437.988129 362.681335,439.638489 
	C353.856628,440.401733 349.303009,434.489349 352.880096,426.336639 
z"/>
<path fill="#AD7516" opacity="1.000000" stroke="none" 
	d="
M482.698120,321.152832 
	C482.453003,327.301361 485.175293,332.002869 490.695099,335.597534 
	C482.186859,335.538239 478.627838,329.482147 482.698120,321.152832 
z"/>
<path fill="#AD7516" opacity="1.000000" stroke="none" 
	d="
M432.618622,423.985596 
	C432.238434,429.985962 435.255157,434.430725 439.888458,438.435028 
	C431.335693,437.023682 428.559906,431.747986 432.618622,423.985596 
z"/>
<path fill="#AF7717" opacity="1.000000" stroke="none" 
	d="
M193.926971,425.388184 
	C195.951874,430.098724 196.994614,435.689636 202.873108,438.409119 
	C194.419739,437.261475 191.802872,433.561066 193.926971,425.388184 
z"/>
<path fill="#AF7717" opacity="1.000000" stroke="none" 
	d="
M351.995728,368.378357 
	C354.218353,373.474792 357.139221,378.124969 363.684540,379.599365 
	C355.011688,380.662628 350.651245,376.620972 351.995728,368.378357 
z"/>
<path fill="#AF7717" opacity="1.000000" stroke="none" 
	d="
M542.683350,322.147095 
	C543.101624,330.248871 544.739563,332.838104 551.758057,335.714264 
	C543.092102,336.232880 538.951660,330.360229 542.683350,322.147095 
z"/>
<path fill="#AF7717" opacity="1.000000" stroke="none" 
	d="
M304.694214,323.157532 
	C304.940796,329.050812 307.971405,333.150177 313.805969,335.747253 
	C305.764221,335.981934 302.832764,332.149841 304.694214,323.157532 
z"/>
<path fill="#FBC464" opacity="1.000000" stroke="none" 
	d="
M496.959991,321.627899 
	C495.598267,322.404785 494.198761,322.831177 492.799255,323.257568 
	C492.454865,321.722046 492.110474,320.186554 491.934723,318.341400 
	C493.709686,319.113647 495.315979,320.195526 496.959991,321.627899 
z"/>
<path fill="#FBC464" opacity="1.000000" stroke="none" 
	d="
M557.077271,322.786530 
	C555.783752,323.547028 554.450806,323.929474 553.117859,324.311951 
	C553.206848,322.661041 553.295837,321.010101 553.692383,319.178619 
	C555.012634,320.134857 556.025269,321.271667 557.077271,322.786530 
z"/>
<path fill="#FBC464" opacity="1.000000" stroke="none" 
	d="
M447.007935,364.734131 
	C445.572174,365.449371 444.087646,365.814545 442.603088,366.179749 
	C442.623688,364.641693 442.644318,363.103607 442.834015,361.283386 
	C444.321808,362.128845 445.640472,363.256470 447.007935,364.734131 
z"/>
<path fill="#FBC464" opacity="1.000000" stroke="none" 
	d="
M368.982727,368.521851 
	C367.508911,368.842377 366.043854,368.790649 364.578857,368.738892 
	C364.835358,367.269958 365.091858,365.801025 365.657349,364.155212 
	C366.974731,365.368774 367.983124,366.759155 368.982727,368.521851 
z"/>
<path fill="#FBC464" opacity="1.000000" stroke="none" 
	d="
M321.019348,323.684906 
	C316.191711,326.426300 315.819580,323.467163 316.094299,319.445068 
	C317.790802,320.467651 319.398712,321.888031 321.019348,323.684906 
z"/>
<path fill="#E7A13B" opacity="1.000000" stroke="none" 
	d="
M236.070938,440.218903 
	C236.472092,440.333557 236.869766,440.776978 237.289032,441.528229 
	C236.896240,441.406586 236.481842,440.977142 236.070938,440.218903 
z"/>
<path fill="#E7A13B" opacity="1.000000" stroke="none" 
	d="
M238.205109,443.069092 
	C238.429657,442.990356 238.746231,443.191254 239.171783,443.666138 
	C238.952866,443.743011 238.625000,443.545837 238.205109,443.069092 
z"/>
<path fill="#E7A13B" opacity="1.000000" stroke="none" 
	d="
M237.233002,442.021118 
	C237.497208,441.922821 237.814880,442.108002 238.188843,442.577728 
	C237.925583,442.676361 237.606018,442.490479 237.233002,442.021118 
z"/>
<path fill="#DAEFFE" opacity="1.000000" stroke="none" 
	d="
M287.900482,346.005310 
	C290.854828,345.549530 293.670929,345.429840 296.841949,345.489166 
	C291.962219,353.051636 286.858795,360.532562 281.462219,367.795685 
	C273.382751,378.669708 265.108307,389.399139 256.875031,400.158081 
	C256.308105,400.898926 255.394028,401.374115 254.288406,402.024536 
	C254.069077,399.798309 253.373398,396.969025 254.464630,395.327759 
	C265.395538,378.887085 276.620300,362.641785 287.900482,346.005310 
z"/>
<path fill="#A6DAFF" opacity="1.000000" stroke="none" 
	d="
M496.934601,451.144714 
	C493.128143,448.089325 489.651917,444.864227 486.213654,441.030060 
	C502.756287,424.540375 519.280579,408.679993 535.729431,392.741730 
	C537.084595,391.428650 537.927673,389.587036 539.008667,387.990967 
	C540.268250,389.058197 541.506653,390.151550 542.790771,391.188263 
	C550.019409,397.023926 550.009705,397.364410 543.379211,404.090729 
	C527.990479,419.701843 512.634277,435.344879 496.934601,451.144714 
z"/>
<path fill="#D6EEFE" opacity="1.000000" stroke="none" 
	d="
M538.627197,387.949402 
	C537.927673,389.587036 537.084595,391.428650 535.729431,392.741730 
	C519.280579,408.679993 502.756287,424.540375 486.091370,440.715515 
	C485.305542,440.295135 484.679901,439.580231 483.984344,438.589233 
	C500.094330,422.597534 516.242615,406.848969 532.505493,391.219635 
	C534.051697,389.733643 536.315186,388.993988 538.627197,387.949402 
z"/>
<path fill="#FFB54C" opacity="1.000000" stroke="none" 
	d="
M256.992554,322.990234 
	C256.902557,323.021545 256.820038,323.062012 256.877869,323.058197 
	C257.018250,323.013947 257.000000,322.999359 256.992554,322.990234 
z"/>
</svg>