<svg width="1875" height="369" viewBox="0 0 1875 369" fill="none" xmlns="http://www.w3.org/2000/svg">
<mask id="path-1-inside-1_5_71" fill="white">
<path d="M15.3521 340.67C15.3521 340.67 14.5621 334.37 13.0021 321.74C11.7221 308.99 10.1521 292.49 8.59213 272.06C7.85213 251.39 7.38213 229.33 6.95213 206.3C6.35213 184.43 5.22213 166.82 3.71213 152.67C2.22213 139.38 1.07213 128.6 0.382132 119.99C0.00213152 110.76 -0.00786849 105.09 0.00213151 103.26C0.602132 98.0298 1.12213 93.8298 1.50213 90.6998C2.09213 87.2498 3.24213 84.8798 4.92213 83.6298C6.18213 82.6898 6.54213 81.4098 6.03213 79.8398C5.71213 78.2398 5.72213 76.1798 6.06213 73.6498C6.60213 71.0898 8.71213 68.3898 12.3121 65.4698C15.0821 63.1798 19.3421 59.8798 25.0521 55.5398C30.8321 50.8298 37.6021 47.0098 45.4021 44.1098C53.1321 41.1698 61.4121 41.1598 70.2321 44.0598C79.0521 46.6198 88.0221 53.9498 97.2021 66.0698C103.462 74.3398 107.332 83.0898 108.762 92.3698C110.402 101.32 110.582 110.23 109.342 119.15C108.092 127.76 106.202 135.82 103.652 143.27C101.112 150.41 98.6821 156.18 96.4421 160.56C94.3421 164.94 93.3121 167.13 93.3121 167.13C93.3121 167.13 94.6021 167.91 97.2221 169.46C99.8321 170.99 103.002 173.5 106.772 176.99C110.702 180.39 114.682 185.18 118.712 191.32C122.722 197.06 126.142 204.41 129.032 213.4C132.082 222.31 133.942 232.99 134.592 245.49C135.832 266.64 133.152 284.97 126.562 300.63C120.172 316.42 110.872 329.91 98.6321 341.12C86.5721 352.08 72.4321 360.32 56.1721 365.62C46.7321 368.62 39.3221 369.25 33.9421 367.47C28.4721 365.49 24.3921 362.31 21.6821 358.02C18.9421 353.54 17.1821 349.52 16.4521 345.99C15.7021 342.44 15.3521 340.67 15.3521 340.67ZM45.5321 92.3498C45.5321 92.3498 45.5321 94.9698 45.5521 100.26C45.7621 105.24 45.9021 111.21 45.9521 118.19C46.2321 125.24 46.5121 131.81 46.8021 137.92C47.2821 143.73 47.7321 147.35 48.1521 148.76C48.5521 150.15 49.8621 149.9 52.0721 147.94C54.2621 145.96 56.5321 142.92 58.8921 138.84C61.4121 134.37 63.3621 129.4 64.7721 123.94C66.3321 118.11 66.8021 112.5 66.1821 107.12C64.7721 96.3598 62.0521 90.2498 58.0121 88.6898C53.9521 87.1098 49.8021 88.3498 45.5321 92.3498ZM54.1221 214.32C55.9621 246.7 58.0421 279.39 60.2921 312.38C60.2921 312.38 61.5921 312.12 64.1821 311.59C66.7821 311.03 69.8721 309.78 73.4921 307.8C77.0821 305.83 80.5321 302.53 83.8321 297.97C87.2921 293.39 89.8721 287.33 91.5621 279.83C93.4321 271.94 93.7321 261.81 92.4921 249.38C91.2721 236.96 89.1921 227.97 86.2321 222.42C83.4121 216.42 80.1421 212.64 76.3821 211.08C72.8021 209.43 69.2621 209.02 65.7621 209.87C62.4121 210.28 59.6521 211.21 57.4421 212.7C55.2421 213.8 54.1221 214.32 54.1221 214.32ZM137.532 76.8498C137.532 76.8498 137.332 75.5498 136.902 72.9598C136.492 70.0398 136.502 66.6098 136.942 62.6598C137.582 58.6998 139.112 55.0198 141.542 51.6198C144.142 48.2298 148.312 45.8698 153.992 44.5698C159.692 43.2898 166.092 42.1098 173.212 41.0298C180.522 39.9598 187.452 38.9398 194.032 37.8998C200.812 36.8698 206.312 36.0898 210.582 35.5298C214.852 34.9698 216.992 34.6698 216.992 34.6698C216.992 34.6698 218.162 34.7698 220.482 34.9498C222.982 34.7898 225.842 35.2198 229.072 36.2298C232.492 36.9198 235.572 38.7098 238.322 41.5398C241.082 44.0498 242.792 48.0098 243.482 53.3798C244.172 58.7398 243.672 62.9998 241.972 66.1798C240.292 69.3498 238.222 71.8098 235.752 73.5898C233.312 75.0198 231.092 75.9998 229.142 76.5098C227.182 76.9998 226.212 77.2498 226.212 77.2498C211.982 80.0198 197.742 82.7998 183.482 85.5898C183.482 85.5898 183.822 87.6198 184.472 91.7298C185.122 95.8198 185.792 100.56 186.502 105.96C187.362 110.99 187.952 115.42 188.242 119.25C188.532 122.75 188.852 127.39 189.212 133.14C189.562 138.58 189.902 143.54 190.222 148.05C190.542 152.19 190.712 154.3 190.712 154.3C197.332 153.23 203.942 152.16 210.562 151.06C210.562 151.06 211.542 151.06 213.532 151.05C215.502 150.73 217.762 150.98 220.292 151.8C223.012 152.29 225.412 153.45 227.452 155.28C229.492 157.09 230.692 160.15 231.012 164.48C231.412 170.02 230.322 174.45 227.732 177.78C225.332 181.09 222.742 183.51 219.902 185.03C217.252 186.21 215.582 187.03 214.862 187.49C214.342 187.61 212.902 188.06 210.592 188.86C208.262 189.33 205.672 189.87 202.812 190.46C200.112 191.01 197.702 191.49 195.562 191.94C193.402 192.36 192.332 192.59 192.332 192.59C192.332 192.59 192.432 195.01 192.602 199.87C192.962 204.38 193.352 209.68 193.762 215.8C194.182 221.89 194.412 227.24 194.402 231.83C194.592 236.03 194.712 241.24 194.782 247.44C194.862 253.3 194.902 258.51 194.922 263.09C194.932 267.33 194.922 269.47 194.922 269.47C206.962 265.13 219.002 260.8 231.042 256.49C231.042 256.49 232.202 256.15 234.522 255.46C236.822 254.47 239.602 253.98 242.872 253.95C246.112 253.91 249.062 254.87 251.682 256.84C254.322 258.78 255.862 262.41 256.282 267.74C256.922 272.99 256.232 277.6 254.262 281.61C252.282 285.61 249.882 288.85 247.102 291.33C244.322 293.81 241.782 295.75 239.492 297.16C237.362 298.2 236.302 298.72 236.302 298.72C217.082 307.1 197.852 315.51 178.632 323.99C178.632 323.99 177.192 324.5 174.342 325.5C171.662 326.73 168.532 327.5 164.892 327.76C161.262 327.67 158.012 326.25 155.142 323.49C152.262 320.37 150.742 314.7 150.542 306.52C150.422 295.53 150.022 278.41 149.402 255.08C148.832 231.4 147.622 203.96 145.832 172.82C144.172 141.89 141.402 109.89 137.532 76.8498ZM281.692 264.09C274.652 201.28 267.952 137.85 261.522 73.7898C261.522 73.7898 261.222 72.9398 260.632 71.2098C260.242 69.4598 260.072 67.0698 260.162 64.1098C260.252 61.1298 261.142 57.9198 262.832 54.5398C264.692 51.1098 267.882 47.9398 272.432 44.9298C278.582 40.7198 285.792 37.1998 294.102 34.3398C302.562 31.2498 311.532 29.9798 321.002 30.5098C330.662 31.0198 340.212 34.8098 349.692 41.7898C355.312 45.6898 359.592 51.5698 362.482 59.3698C365.402 67.1298 367.282 75.4698 368.122 84.4298C368.982 93.3398 369.292 101.94 369.062 110.18C369.042 118.37 368.722 125.19 368.062 130.59C367.602 135.96 367.352 138.66 367.352 138.66C367.352 138.66 366.822 140.75 365.772 144.93C364.722 149.1 362.532 154.06 359.232 159.82C356.102 165.32 351.312 170.27 344.892 174.73C358.572 191.81 372.312 208.3 386.092 224.22C386.092 224.22 386.802 225 388.152 226.64C389.552 228.24 390.692 230.44 391.602 233.21C392.672 235.64 392.692 238.59 391.652 242C390.762 245.13 387.972 248.52 383.292 252.24C378.432 256.01 374.002 258.1 370.002 258.48C366.192 258.76 362.982 258.16 360.332 256.68C357.872 255.14 355.952 253.51 354.562 251.83C353.202 250.13 352.522 249.3 352.522 249.3C339.522 231.12 326.572 212.36 313.702 193.01C317.622 211.86 321.552 230.56 325.532 249.11C325.532 249.11 325.772 250.28 326.272 252.63C326.762 254.69 326.722 257.34 326.182 260.6C325.632 263.83 323.992 267.19 321.282 270.64C318.562 273.83 314.072 276.54 307.802 278.74C301.562 280.92 296.602 281.52 292.902 280.5C289.392 279.37 286.842 277.48 285.232 274.82C283.662 272.1 282.622 269.67 282.132 267.48C281.842 265.22 281.692 264.09 281.692 264.09ZM299.172 69.6398C302.282 98.0398 305.472 126.31 308.732 154.45C308.732 154.45 309.712 154.4 311.692 154.3C313.832 154.16 316.312 153.4 319.112 151.99C322.102 150.58 324.842 148.07 327.382 144.54C330.092 140.69 332.202 135.33 333.692 128.42C335.192 121.27 335.452 111.84 334.482 100.13C333.532 88.8998 331.842 80.7898 329.352 75.8198C326.862 70.5098 323.902 67.3298 320.462 66.2698C317.042 64.9098 313.472 64.8298 309.752 66.0398C306.032 66.9598 302.522 68.1598 299.172 69.6398ZM416.632 220.58C408.192 164.61 400.462 107.07 393.382 47.9698C393.382 47.9698 393.262 47.0498 393.042 45.2598C392.812 43.1698 393.012 40.6898 393.632 37.7598C394.282 34.8398 395.902 32.1398 398.512 29.6298C401.282 26.8498 405.692 24.8898 411.712 23.7598C417.732 22.6298 422.382 22.9998 425.622 24.8498C429.012 26.6698 431.462 29.0598 432.952 31.9598C434.422 34.8998 435.282 37.5998 435.502 40.0998C435.902 42.5698 436.112 43.8098 436.112 43.8098C437.962 62.6198 439.872 81.2498 441.882 99.7098C449.342 78.0898 456.992 56.5398 464.792 35.0598C464.792 35.0598 465.482 33.7798 466.862 31.2398C468.262 28.4798 470.692 26.0098 474.212 23.8298C477.702 21.6798 482.422 21.3098 488.262 22.6798C494.172 24.0298 498.102 26.0898 500.072 28.8498C502.072 31.6198 502.902 34.6498 502.572 37.9898C502.422 41.3098 501.682 44.5598 500.372 47.7198C499.542 49.6598 497.982 53.2998 495.682 58.6798C493.382 64.0298 490.702 70.1298 487.622 76.9798C484.722 83.7798 481.932 90.3798 479.232 96.7498C476.562 103.09 474.312 108.5 472.442 112.92C470.722 117.07 469.882 119.17 469.882 119.17C486.082 140.41 502.422 160.97 518.902 180.86C518.902 180.86 519.502 181.81 520.702 183.71C521.892 185.41 522.702 187.57 523.152 190.18C523.572 192.59 522.682 194.96 520.462 197.27C518.392 199.54 514.022 201.32 507.302 202.74C500.612 204.2 495.032 204.35 490.582 202.98C486.122 201.43 482.782 199.56 480.572 197.38C478.522 194.89 477.502 193.66 477.502 193.66C468.912 181.91 460.442 169.8 452.042 157.31C454.682 174.25 457.402 190.99 460.242 207.55C460.242 207.55 460.332 208.42 460.492 210.19C460.652 211.95 460.312 214.09 459.462 216.66C458.762 219.15 457.012 221.81 454.162 224.64C451.292 227.49 446.922 229.94 441.042 232C435.162 234.06 430.552 234.69 427.212 233.92C423.852 233.12 421.372 231.65 419.742 229.5C418.302 227.28 417.422 225.23 417.112 223.38C416.782 221.5 416.632 220.58 416.632 220.58ZM525.092 43.9298C525.092 43.9298 524.922 43.0198 524.562 41.1798C524.212 39.0998 524.262 36.6598 524.692 33.8298C525.322 30.9898 526.752 28.3198 528.972 25.8598C531.382 23.3998 535.172 21.6798 540.322 20.7198C545.482 19.7898 551.282 18.9298 557.732 18.1698C564.342 17.3998 570.632 16.6798 576.582 15.9398C582.702 15.2098 587.702 14.6498 591.552 14.2698C595.422 13.8798 597.342 13.6898 597.342 13.6898C597.342 13.6898 598.392 13.7598 600.502 13.8998C602.762 13.7898 605.352 14.1298 608.282 14.9198C611.362 15.4498 614.162 16.8098 616.632 18.9498C619.132 20.8898 620.682 23.8498 621.302 27.8598C621.942 31.8398 621.482 34.9698 619.962 37.2698C618.412 39.5598 616.542 41.3198 614.322 42.5598C612.112 43.5698 610.102 44.2298 608.332 44.5398C606.562 44.8598 605.672 45.0298 605.672 45.0298C592.772 46.7398 579.822 48.4798 566.892 50.2498C566.892 50.2498 567.182 51.6998 567.762 54.5898C568.352 57.4698 568.962 60.7998 569.582 64.5698C570.362 68.0598 570.882 71.1698 571.142 73.8098C571.412 76.2298 571.712 79.4298 572.032 83.3798C572.362 87.0998 572.662 90.4698 572.992 93.5098C573.282 96.3298 573.422 97.7398 573.422 97.7398C579.452 97.2998 585.502 96.8598 591.512 96.4298C591.512 96.4298 592.402 96.4698 594.212 96.5598C595.992 96.4298 598.042 96.7298 600.362 97.4298C602.822 97.9198 604.992 98.8398 606.842 100.23C608.712 101.61 609.792 103.79 610.132 106.8C610.502 110.65 609.512 113.61 607.192 115.7C605.032 117.79 602.672 119.24 600.102 120.07C597.702 120.67 596.172 121.09 595.542 121.36C595.042 121.41 593.772 121.6 591.652 121.98C589.542 122.14 587.202 122.31 584.592 122.51C582.162 122.7 579.962 122.87 578.002 123.03C576.042 123.18 575.052 123.26 575.052 123.26C575.052 123.26 575.162 124.87 575.362 128.07C575.702 131.03 576.092 134.5 576.502 138.52C576.952 142.53 577.172 146.01 577.222 148.99C577.402 151.71 577.572 155.09 577.712 159.08C577.822 162.88 577.912 166.24 577.962 169.19C578.012 171.9 578.042 173.28 578.042 173.28C588.892 171.91 599.732 170.56 610.572 169.24C610.572 169.24 611.612 169.16 613.712 169.02C615.792 168.66 618.292 168.69 621.232 169.11C624.162 169.53 626.822 170.6 629.192 172.32C631.572 174.05 632.972 176.79 633.372 180.56C633.942 184.3 633.362 187.4 631.592 189.85C629.822 192.29 627.692 194.13 625.202 195.37C622.712 196.59 620.442 197.51 618.382 198.08C616.492 198.43 615.542 198.61 615.542 198.61C598.342 201.03 581.132 203.46 563.922 205.93C563.922 205.93 562.642 206.02 560.072 206.21C557.682 206.61 554.862 206.61 551.612 206.23C548.322 205.65 545.362 204.3 542.742 202.23C540.092 199.94 538.602 196.33 538.292 191.4C537.972 184.78 537.332 174.46 536.412 160.34C535.582 145.84 534.222 128.71 532.402 108.83C530.822 88.5498 528.382 66.9398 525.092 43.9298ZM695.232 152.37C695.392 152.37 696.842 152.28 699.562 152.1C702.282 151.71 705.662 151.38 709.672 151.12C713.672 150.65 717.612 150.3 721.462 150.06C725.452 149.58 728.812 149.25 731.552 149.08C734.262 148.7 735.632 148.52 735.632 148.52C735.632 148.52 736.502 148.46 738.272 148.34C740.032 148.24 742.132 148.52 744.592 149.19C747.032 149.67 749.182 150.96 751.082 153.14C753.132 155.28 754.352 158.71 754.782 163.46C755.172 167.98 754.322 171.65 752.232 174.5C750.282 177.11 747.802 179.03 744.832 180.29C742.002 181.3 739.382 182 736.982 182.39C734.752 182.74 733.642 182.94 733.642 182.94C733.642 182.94 731.972 183.25 728.642 183.9C725.442 184.33 721.242 185.16 716.002 186.36C710.782 187.55 705.102 189.11 698.952 191.02C692.792 192.72 686.882 194.81 681.262 197.32C675.632 199.8 670.882 200.88 667.012 200.54C663.312 200.39 660.352 199.55 658.192 198.04C655.982 196.3 654.342 194.53 653.262 192.71C652.322 190.68 651.832 189.34 651.802 188.72C651.532 187.25 651.742 185.45 652.412 183.3C653.052 180.95 654.472 179.27 656.692 178.27C657.472 178.01 657.692 175.07 657.342 169.42C656.972 163.55 656.192 156.13 655.002 147.16C653.962 137.94 652.672 127.99 651.102 117.25C649.552 106.48 647.862 95.7698 646.032 85.1298C644.402 74.3898 642.832 64.8098 641.342 56.3698C639.862 47.8798 638.472 41.5498 637.192 37.4398C635.322 31.0798 634.992 26.0998 636.132 22.4698C637.292 18.8598 638.992 16.1998 641.202 14.5398C643.542 12.6598 645.692 11.4698 647.612 10.9298C649.662 10.4098 650.712 10.1398 650.712 10.1398C650.712 10.1398 651.762 9.97978 653.852 9.67978C656.082 9.14978 658.672 9.25978 661.592 10.0498C664.682 10.5898 667.562 12.3498 670.262 15.3398C673.092 18.1198 675.222 22.8898 676.622 29.6498C678.422 38.5398 680.562 49.0298 683.022 61.0598C685.652 72.7698 688.082 86.2598 690.272 101.48C692.672 116.59 694.342 133.56 695.232 152.37ZM753.972 32.4898C753.972 32.4898 753.782 31.6398 753.382 29.9298C752.992 28.0198 752.962 25.7398 753.342 23.1198C753.892 20.4998 755.242 18.0598 757.402 15.7898C759.722 13.5398 763.462 11.9698 768.582 11.1198C773.712 10.2798 779.482 9.50978 785.882 8.81978C792.482 8.12978 798.742 7.46978 804.672 6.81978C810.782 6.15978 815.732 5.64978 819.582 5.29978C823.432 4.94978 825.362 4.74978 825.362 4.74978C825.362 4.74978 826.402 4.82978 828.522 4.98978C830.772 4.89978 833.372 5.23978 836.292 5.97978C839.362 6.52978 842.152 7.83978 844.652 9.89978C847.142 11.7498 848.712 14.6098 849.332 18.4698C849.982 22.2998 849.542 25.3198 848.022 27.5298C846.522 29.7098 844.652 31.3798 842.452 32.5298C840.232 33.4498 838.242 34.0498 836.482 34.3398C834.722 34.6198 833.842 34.7698 833.842 34.7698C821.002 36.2098 808.192 37.6698 795.342 39.1598C795.342 39.1598 795.662 40.5198 796.272 43.2798C796.862 46.0098 797.492 49.1798 798.132 52.7798C798.942 56.1198 799.472 59.0898 799.742 61.6098C800.012 63.9198 800.332 66.9698 800.662 70.7398C800.972 74.2998 801.312 77.5298 801.592 80.4498C801.882 83.1598 802.022 84.5198 802.022 84.5198C807.982 84.2498 813.922 83.9698 819.862 83.6998C819.862 83.6998 820.762 83.7498 822.542 83.8898C824.302 83.8198 826.362 84.1398 828.642 84.8898C831.082 85.3998 833.222 86.3498 835.062 87.7198C836.892 89.0798 837.972 91.2098 838.272 94.1098C838.602 97.7898 837.612 100.63 835.282 102.6C833.132 104.55 830.772 105.9 828.232 106.63C825.842 107.15 824.342 107.53 823.702 107.77C823.212 107.81 821.942 107.97 819.852 108.28C817.772 108.38 815.452 108.49 812.882 108.62C810.462 108.75 808.282 108.85 806.362 108.96C804.442 109.05 803.472 109.1 803.472 109.1C803.472 109.1 803.542 110.66 803.702 113.75C804.012 116.63 804.342 120.02 804.702 123.91C805.052 127.79 805.212 131.17 805.202 134.07C805.342 136.71 805.422 140 805.452 143.89C805.492 147.58 805.492 150.85 805.472 153.72C805.462 156.38 805.442 157.72 805.442 157.72C816.212 156.52 827.002 155.35 837.802 154.19C837.802 154.19 838.862 154.12 840.942 154C843.022 153.65 845.492 153.72 848.412 154.16C851.342 154.6 853.952 155.65 856.272 157.31C858.602 158.99 859.932 161.62 860.252 165.21C860.752 168.8 860.072 171.74 858.242 174.07C856.422 176.41 854.262 178.14 851.742 179.34C849.242 180.52 846.952 181.38 844.882 181.93C842.982 182.27 842.022 182.43 842.022 182.43C824.812 184.76 807.592 187.1 790.382 189.45C790.382 189.45 789.122 189.55 786.562 189.74C784.162 190.1 781.352 190.09 778.132 189.71C774.902 189.11 772.022 187.77 769.512 185.68C766.982 183.39 765.672 179.78 765.572 174.83C765.532 168.21 765.312 157.92 764.902 143.89C764.492 129.6 763.462 112.9 761.862 93.7398C760.292 74.4198 757.652 54.0198 753.972 32.4898ZM877.932 1.91978C877.932 1.91978 879.302 1.65978 882.012 1.10978C884.732 0.589777 887.972 1.02978 891.722 2.40978C895.642 3.80978 899.102 7.40978 902.082 13.1698C903.992 16.7798 905.952 21.1698 907.962 26.2898C910.112 31.1798 912.022 36.0398 913.702 40.9298C915.552 45.7898 917.022 49.7998 918.142 52.9598C919.252 56.1098 919.792 57.6598 919.792 57.6598C923.982 42.0998 928.182 26.3898 932.372 10.5398C932.372 10.5398 932.912 9.55978 933.972 7.58978C935.192 5.60978 937.192 3.73978 939.912 1.98978C942.842 0.249777 946.892 -0.300223 952.092 0.149777C967.342 1.68978 973.102 7.96978 969.402 18.9698C968.642 21.0898 967.262 25.0698 965.302 30.8498C963.332 36.3798 961.082 42.6598 958.532 49.6498C956.142 56.3798 953.792 62.9998 951.422 69.4698C949.232 75.8898 947.402 81.1398 945.942 85.2598C944.492 89.3698 943.762 91.3998 943.762 91.3998C945.112 115.92 946.442 140.03 947.732 163.72C947.732 163.72 947.772 164.59 947.842 166.3C948.062 167.83 947.812 169.74 947.102 171.99C946.412 174.05 944.842 175.91 942.382 177.55C939.932 179 936.092 179.77 930.872 179.92C923.862 180.24 918.622 179.4 915.172 177.25C911.892 175.11 909.772 172.7 908.862 170.02C907.952 167.15 907.462 165.02 907.392 163.66C907.352 162.87 907.162 159.97 906.752 154.89C906.522 149.8 906.262 143.83 905.952 136.95C905.622 130.03 905.242 123.08 904.762 116.1C904.422 109.06 904.092 103.22 903.712 98.5698C903.492 93.8798 903.382 91.5398 903.382 91.5398C891.682 69.8498 879.962 47.9598 868.262 25.8598C868.262 25.8598 867.742 24.8998 866.692 23.0198C865.652 21.1198 864.912 18.8798 864.482 16.3098C864.222 13.5198 864.992 10.7998 866.822 8.15978C868.642 5.48978 872.352 3.40978 877.932 1.91978ZM1128.39 68.8798C1122.01 68.0098 1117.47 66.0898 1114.75 63.1998C1112.2 60.2998 1110.69 57.6398 1110.23 55.2498C1109.81 52.6298 1109.57 51.3398 1109.57 51.3398C1109.57 51.3398 1109.44 49.7998 1109.19 46.7498C1108.93 43.6998 1108.16 40.6298 1106.9 37.5298C1105.64 34.4498 1103.33 32.7498 1100.01 32.4598C1097.54 32.1798 1095.51 34.0798 1093.96 38.1498C1092.42 42.0398 1091.18 47.2798 1090.27 53.9698C1089.34 60.5998 1088.66 67.9798 1088.22 76.1098C1087.94 83.9798 1087.73 91.9498 1087.59 100.02C1087.58 110.59 1087.79 120.8 1088.26 130.72C1088.83 140.41 1089.95 148.33 1091.54 154.52C1093.29 160.69 1095.81 163.89 1099.08 164.11C1101.63 164.28 1103.57 162.94 1104.93 160.1C1106.28 157.03 1107.17 153.61 1107.58 149.85C1108.21 146.09 1108.55 142.72 1108.6 139.78C1108.72 136.82 1108.76 135.35 1108.76 135.35C1108.76 135.35 1107.8 135.4 1105.85 135.49C1104.09 135.6 1102.3 135.08 1100.4 133.92C1098.51 132.55 1097.63 129.86 1097.72 125.87C1097.79 121.63 1098.52 118.82 1099.83 117.43C1101.31 116.01 1102.71 115.22 1104.01 115.09C1105.45 114.95 1106.18 114.87 1106.18 114.87C1113.18 115.22 1120.18 115.6 1127.18 115.94C1127.18 115.94 1128.22 115.99 1130.32 116.11C1132.42 116.22 1134.81 116.85 1137.51 118.09C1140.19 119.06 1142.56 120.93 1144.54 123.6C1146.53 126.06 1147.5 129.76 1147.44 134.7C1147.22 146.67 1145.51 156.48 1142.29 164.16C1139.09 171.61 1134.91 177.37 1129.7 181.45C1124.65 185.53 1119.05 188.29 1112.89 189.7C1106.9 190.92 1100.8 191.3 1094.56 190.83C1088.32 190.33 1082.45 188.42 1076.91 185.1C1071.32 181.77 1066.44 176.34 1062.16 168.8C1057.84 161.08 1054.32 150.64 1051.56 137.46C1048.91 124.29 1047.43 107.6 1047.09 87.3198C1046.78 70.8498 1047.99 57.3898 1050.79 47.0198C1053.58 36.5498 1057.25 28.4498 1061.76 22.6998C1066.28 16.9298 1070.98 12.8798 1075.83 10.5698C1080.84 8.05978 1085.41 6.48978 1089.42 5.93978C1093.45 5.34978 1096.29 4.96978 1097.98 4.77978C1099.98 4.60978 1103.22 4.89978 1107.74 5.63978C1112.25 6.39978 1117.06 8.05978 1122.19 10.5898C1127.32 12.9298 1131.99 16.4698 1136.18 21.2098C1140.54 25.9698 1143.67 32.2298 1145.58 39.9898C1147.49 47.7298 1147.72 53.6498 1146.25 57.7698C1144.8 61.6598 1142.65 64.3998 1139.8 66.0498C1136.98 67.6798 1134.31 68.5498 1131.83 68.6898C1129.56 68.8098 1128.39 68.8798 1128.39 68.8798ZM1160.44 102.12C1161.19 84.7598 1164.14 68.9398 1169.33 54.6298C1174.57 39.9698 1181.33 28.3998 1189.72 19.8998C1198.13 11.0898 1207.18 6.76978 1216.89 6.98978C1224.08 7.13978 1230.81 9.92978 1237.06 15.3398C1243.31 20.5098 1248.64 27.8498 1253.07 37.3498C1257.47 46.5998 1260.67 57.2998 1262.63 69.3998C1264.57 81.4598 1265.02 94.1898 1264 107.54C1262.91 120.84 1260.51 133.2 1256.77 144.68C1253.04 156.1 1248.43 166.11 1242.86 174.71C1237.37 183.06 1231.33 189.5 1224.8 194.05C1218.29 198.34 1211.69 200.23 1204.96 199.7C1195.9 199 1187.9 194.16 1180.93 185.22C1173.92 176.1 1168.58 164.32 1164.89 149.91C1161.16 135.49 1159.66 119.58 1160.44 102.12ZM1197.74 102.65C1197.02 115.29 1196.96 126.97 1197.58 137.66C1198.2 148.14 1199.39 156.57 1201.22 162.97C1203 169.16 1205.26 172.38 1207.91 172.55C1210.61 172.75 1213.31 169.89 1215.98 163.97C1218.66 157.84 1221.05 149.61 1223.08 139.23C1225.14 128.61 1226.59 116.91 1227.47 104.19C1228.33 91.1498 1228.44 79.2798 1227.77 68.5298C1227.08 57.7798 1225.77 49.0598 1223.83 42.4698C1221.84 35.8598 1219.44 32.5498 1216.63 32.4498C1213.8 32.3498 1211.06 35.5298 1208.41 41.9698C1205.76 48.3698 1203.5 56.8698 1201.63 67.4498C1199.77 77.9998 1198.46 89.7198 1197.74 102.65ZM1360.54 80.1098C1354.14 78.9498 1349.66 76.7498 1347.12 73.5298C1344.73 70.3398 1343.4 67.4498 1343.13 64.8598C1342.87 62.0098 1342.73 60.5998 1342.73 60.5998C1342.73 60.5998 1342.71 58.9298 1342.65 55.6598C1342.59 52.3398 1342.01 49.0098 1340.96 45.6398C1339.89 42.2798 1337.69 40.4098 1334.38 40.0298C1331.9 39.6898 1329.72 41.7298 1327.89 46.1098C1326.05 50.2498 1324.42 55.8898 1323.02 63.0498C1321.6 70.1498 1320.34 78.0698 1319.25 86.7598C1318.33 95.1598 1317.47 103.65 1316.66 112.25C1315.74 123.47 1315.06 134.32 1314.63 144.81C1314.35 155.05 1314.73 163.39 1315.77 169.92C1316.96 176.43 1319.23 179.84 1322.6 180.13C1325.14 180.33 1327.26 178.99 1328.92 176.04C1330.59 172.88 1331.84 169.33 1332.63 165.41C1333.59 161.5 1334.25 158 1334.6 154.91C1334.95 151.8 1335.13 150.26 1335.13 150.26C1335.13 150.26 1334.15 150.28 1332.18 150.34C1330.36 150.39 1328.55 149.78 1326.72 148.5C1324.93 147.01 1324.26 144.16 1324.72 139.94C1325.19 135.47 1326.16 132.52 1327.63 131.07C1329.26 129.61 1330.72 128.84 1332.07 128.72C1333.56 128.64 1334.3 128.58 1334.3 128.58C1341.42 129.21 1348.53 129.85 1355.66 130.56C1355.66 130.56 1356.73 130.65 1358.85 130.88C1360.97 131.1 1363.38 131.9 1366.05 133.36C1368.74 134.57 1370.99 136.69 1372.81 139.66C1374.65 142.43 1375.33 146.41 1374.85 151.63C1373.6 164.23 1370.93 174.34 1366.92 182.01C1362.9 189.39 1358 194.98 1352.25 198.85C1346.64 202.85 1340.63 205.55 1334.18 206.96C1327.92 208.2 1321.65 208.58 1315.34 208.06C1309.01 207.55 1303.22 205.53 1297.9 202.01C1292.56 198.48 1288.08 192.72 1284.47 184.71C1280.83 176.49 1278.24 165.38 1276.71 151.33C1275.24 137.28 1275.26 119.48 1276.74 97.8598C1277.78 80.3298 1280.08 65.9898 1283.72 54.9598C1287.33 43.8598 1291.63 35.2398 1296.56 29.1398C1301.51 23.0098 1306.48 18.7098 1311.52 16.2598C1316.75 13.5698 1321.4 11.9198 1325.45 11.3398C1329.53 10.7098 1332.42 10.3198 1334.11 10.1398C1336.13 9.93978 1339.39 10.2798 1343.87 11.0898C1348.34 11.9398 1353.06 13.7598 1358.07 16.5498C1363.07 19.1498 1367.55 23.0498 1371.52 28.3098C1375.66 33.5898 1378.46 40.5298 1379.92 49.0998C1381.36 57.6398 1381.2 64.1398 1379.45 68.5898C1377.71 72.7898 1375.34 75.7098 1372.35 77.4198C1369.33 79.0798 1366.58 79.9398 1364.07 79.9998C1361.71 80.0598 1360.54 80.1098 1360.54 80.1098ZM1477.6 91.1498C1471.09 89.6798 1466.57 87.1098 1464.05 83.5198C1461.68 79.9398 1460.38 76.7298 1460.16 73.8998C1459.94 70.8198 1459.85 69.2698 1459.85 69.2698C1459.85 69.2698 1459.84 67.4598 1459.85 63.8898C1459.86 60.2898 1459.34 56.6598 1458.33 53.0198C1457.32 49.3198 1455.12 47.2498 1451.76 46.7698C1449.25 46.3298 1447.01 48.4698 1445.05 53.1298C1443.09 57.5698 1441.33 63.5998 1439.75 71.2798C1438.14 78.9198 1436.67 87.4198 1435.38 96.7798C1434.25 105.85 1433.16 115.03 1432.13 124.3C1430.9 136.46 1429.91 148.22 1429.17 159.64C1428.6 170.8 1428.75 180.03 1429.64 187.34C1430.68 194.73 1432.93 198.83 1436.42 199.66C1439.09 200.28 1441.32 199.06 1443.1 195.96C1444.94 192.62 1446.32 188.79 1447.24 184.45C1448.3 180.15 1449.08 176.27 1449.51 172.84C1449.96 169.37 1450.18 167.67 1450.18 167.67C1450.18 167.67 1449.15 167.6 1447.12 167.46C1445.25 167.34 1443.4 166.49 1441.55 164.89C1439.73 163.05 1439.12 159.83 1439.68 155.22C1440.29 150.34 1441.35 147.16 1442.89 145.68C1444.59 144.21 1446.16 143.44 1447.51 143.41C1449.04 143.43 1449.82 143.42 1449.82 143.42C1457.1 144.63 1464.39 145.82 1471.71 147.06C1471.71 147.06 1472.78 147.23 1474.97 147.6C1477.18 147.97 1479.62 149.02 1482.33 150.8C1485.06 152.3 1487.35 154.82 1489.19 158.31C1491.03 161.53 1491.67 166.15 1491.14 172.13C1489.67 186.67 1486.79 198.35 1482.5 207.15C1478.24 215.61 1473.05 221.79 1466.94 225.69C1460.99 229.58 1454.61 231.73 1447.81 232.15C1441.21 232.35 1434.61 231.51 1427.99 229.65C1421.41 227.78 1415.39 224.38 1409.95 219.47C1404.53 214.61 1400.11 207.66 1396.67 198.61C1393.24 189.47 1391.01 177.6 1389.95 162.85C1388.97 148.06 1389.6 129.38 1391.77 106.65C1393.33 88.1198 1396.08 73.0098 1400.02 61.3498C1403.95 49.5998 1408.48 40.5198 1413.61 34.1098C1418.76 27.6598 1423.9 23.1798 1429.05 20.6698C1434.41 17.8998 1439.15 16.2498 1443.3 15.6998C1447.43 15.1098 1450.37 14.7498 1452.09 14.5898C1454.15 14.4098 1457.45 14.8598 1461.95 15.8198C1466.5 16.8198 1471.25 18.8698 1476.28 21.9998C1481.31 24.8698 1485.79 29.1998 1489.71 34.9398C1493.78 40.7298 1496.48 48.2998 1497.81 57.6798C1499.14 67.0398 1498.85 74.1698 1497.01 79.0198C1495.2 83.5998 1492.74 86.7498 1489.64 88.5398C1486.56 90.2898 1483.74 91.1698 1481.17 91.1498C1478.79 91.1298 1477.6 91.1498 1477.6 91.1498ZM1556.29 205.27C1556.44 205.3 1557.98 205.64 1560.9 206.26C1563.84 206.59 1567.47 207.22 1571.76 208.12C1576.07 208.75 1580.31 209.5 1584.43 210.37C1588.78 210.98 1592.41 211.6 1595.34 212.22C1598.31 212.53 1599.78 212.69 1599.78 212.69C1599.78 212.69 1600.73 212.89 1602.64 213.28C1604.53 213.68 1606.72 214.71 1609.2 216.43C1611.71 217.86 1613.74 220.39 1615.31 224.03C1617.05 227.74 1617.65 232.99 1617.1 239.88C1616.54 246.43 1614.84 251.35 1611.97 254.61C1609.29 257.59 1606.23 259.38 1602.75 260.03C1599.48 260.39 1596.54 260.39 1593.89 260.02C1591.42 259.68 1590.19 259.52 1590.19 259.52C1590.19 259.52 1588.34 259.34 1584.64 258.99C1581.13 258.37 1576.46 257.89 1570.61 257.55C1564.78 257.17 1558.39 257.08 1551.42 257.22C1544.5 257.09 1537.79 257.52 1531.26 258.55C1524.74 259.53 1519.49 259.05 1515.52 257.1C1511.68 255.47 1508.8 253.29 1506.91 250.56C1505.04 247.59 1503.76 244.78 1503.08 242.14C1502.6 239.27 1502.41 237.47 1502.51 236.67C1502.59 234.78 1503.24 232.64 1504.47 230.24C1505.7 227.56 1507.56 225.98 1510.09 225.54C1510.97 225.47 1511.88 221.86 1512.81 214.72C1513.77 207.29 1514.62 197.78 1515.35 186.23C1516.23 174.43 1516.96 161.66 1517.47 147.91C1517.97 134.16 1518.23 120.53 1518.27 107.04C1518.45 93.5498 1518.44 81.5598 1518.28 71.0398C1518.09 60.5298 1517.64 52.6698 1516.95 47.5398C1515.97 39.6698 1516.34 33.6798 1518.1 29.4798C1519.84 25.2898 1521.99 22.3098 1524.57 20.5498C1527.3 18.5398 1529.72 17.3098 1531.83 16.8598C1534.08 16.4298 1535.21 16.2198 1535.21 16.2198C1535.21 16.2198 1536.33 16.1298 1538.57 15.9698C1541 15.5298 1543.71 15.9398 1546.67 17.1898C1549.83 18.1498 1552.6 20.6398 1554.99 24.6098C1557.55 28.3298 1559.04 34.5198 1559.45 43.1298C1559.94 54.5498 1560.47 68.0898 1561.03 83.7698C1561.75 99.2398 1561.88 117.11 1561.39 137.32C1560.97 157.61 1559.3 180.28 1556.29 205.27ZM1640.33 56.9298C1640.33 56.9298 1640.27 55.7398 1640.13 53.3798C1640.02 50.7198 1640.36 47.6398 1641.19 44.1798C1642.19 40.6998 1643.99 37.5798 1646.64 34.7598C1649.44 32.0098 1653.64 30.2898 1659.17 29.6898C1664.72 29.1198 1670.91 28.6698 1677.77 28.4198C1684.82 28.1798 1691.54 27.9098 1697.9 27.5998C1704.45 27.3098 1709.76 27.1098 1713.88 26.9898C1718.01 26.8798 1720.07 26.7998 1720.07 26.7998C1720.07 26.7998 1721.17 27.0198 1723.36 27.4498C1725.77 27.5498 1728.44 28.2898 1731.43 29.6398C1734.59 30.7098 1737.35 32.8598 1739.67 36.0498C1742.01 38.9498 1743.25 43.2198 1743.33 48.8398C1743.42 54.4498 1742.5 58.7498 1740.54 61.7698C1738.59 64.7698 1736.34 66.9698 1733.81 68.3798C1731.32 69.4598 1729.1 70.0898 1727.19 70.2998C1725.28 70.4698 1724.33 70.5598 1724.33 70.5598C1710.51 70.9898 1696.7 71.3998 1682.89 71.7498C1682.89 71.7498 1682.96 73.7398 1683.16 77.7098C1683.36 81.6798 1683.49 86.2598 1683.58 91.4798C1683.86 96.3998 1683.93 100.72 1683.81 104.39C1683.71 107.75 1683.52 112.2 1683.24 117.71C1683 122.91 1682.8 127.68 1682.62 131.99C1682.49 135.99 1682.4 138 1682.4 138C1688.79 138.75 1695.16 139.47 1701.55 140.19C1701.55 140.19 1702.49 140.45 1704.37 140.99C1706.29 141.2 1708.4 142.06 1710.73 143.57C1713.26 144.8 1715.41 146.6 1717.16 149.01C1718.92 151.41 1719.74 154.82 1719.59 159.25C1719.38 164.97 1717.87 169.09 1715.05 171.62C1712.41 174.16 1709.66 175.74 1706.79 176.33C1704.13 176.59 1702.43 176.85 1701.72 177.09C1701.19 177.02 1699.79 176.98 1697.5 177C1695.24 176.69 1692.72 176.34 1689.93 175.95C1687.31 175.59 1684.97 175.27 1682.88 174.96C1680.8 174.67 1679.75 174.53 1679.75 174.53C1679.75 174.53 1679.57 176.86 1679.19 181.5C1679.03 185.85 1678.79 190.99 1678.48 196.92C1678.18 202.86 1677.76 208.01 1677.21 212.36C1676.86 216.4 1676.36 221.39 1675.67 227.31C1675 232.93 1674.38 237.91 1673.8 242.28C1673.25 246.31 1672.98 248.35 1672.98 248.35C1685 250.01 1697.04 251.59 1709.14 253.1C1709.14 253.1 1710.32 253.3 1712.63 253.73C1714.97 253.82 1717.73 254.66 1720.89 256.25C1724.04 257.83 1726.77 260.35 1729.04 263.83C1731.35 267.32 1732.32 272.14 1731.98 278.31C1731.79 284.53 1730.44 289.27 1727.91 292.56C1725.39 295.82 1722.6 297.94 1719.54 298.95C1716.51 299.94 1713.77 300.47 1711.38 300.58C1709.17 300.37 1708.08 300.3 1708.08 300.3C1688.61 297.23 1669.23 294.05 1649.91 290.76C1649.91 290.76 1648.51 290.4 1645.68 289.64C1643 289.24 1639.96 288.13 1636.55 286.29C1633.17 284.13 1630.35 281.04 1628.11 277.05C1625.89 272.78 1625.28 267.07 1626.25 259.92C1627.65 250.4 1629.58 235.48 1631.98 215.16C1634.33 194.54 1636.38 170.45 1638.16 142.95C1639.9 115.54 1640.62 86.8398 1640.33 56.9298ZM1845.58 116.83C1838.21 117.37 1832.82 116.39 1829.26 114.01C1825.76 111.27 1823.31 108.16 1821.91 104.69C1820.69 101.2 1820.06 98.0498 1819.97 95.2198C1819.9 92.0498 1819.88 90.1398 1819.89 89.5198C1819.94 87.9198 1819.66 85.3998 1819 81.9398C1818.54 78.1698 1816.73 76.2798 1813.55 76.2598C1808.36 76.1998 1803.67 78.7798 1799.4 84.0498C1795.29 89.3398 1792.76 97.2298 1791.77 107.74C1790.78 118.27 1791.78 127.47 1794.81 135.28C1797.87 143.06 1804.63 147.2 1815.26 147.56C1820.68 147.44 1826.41 148.54 1832.4 150.81C1838.46 152.95 1844.01 156.62 1848.97 161.82C1854.13 166.53 1857.7 173.68 1859.87 183.43C1862.72 192.52 1863.15 203.79 1863.84 218.29C1864.99 252.51 1859.23 281.91 1846.6 304.22C1833.99 325.12 1817.84 332.48 1797.92 327.79C1784.81 324.7 1774.68 319.04 1767.45 310.97C1760.22 302.73 1755.16 294.04 1752.27 284.81C1749.5 275.77 1748.26 267.96 1748.57 261.39C1748.86 254.83 1749.49 248.54 1750.44 242.5C1751.54 236.48 1753.76 231.49 1757.09 227.45C1760.63 223.41 1765.96 221.22 1773.17 220.77C1780.63 220.23 1785.89 221.67 1788.94 225.21C1792.03 228.41 1793.87 232.1 1794.48 236.3C1795.24 240.55 1795.61 243.24 1795.54 244.31C1795.5 245.39 1795.56 248.09 1795.7 252.46C1796.06 256.49 1796.77 260.59 1797.85 264.8C1799.13 268.63 1801.13 270.69 1803.84 270.87C1807.94 271.13 1811.71 267.97 1815.13 261.47C1818.47 254.95 1820.84 244.58 1822.04 230.79C1823.78 205.17 1816.8 193.28 1801.26 193.44C1797.52 193.4 1792.71 192.32 1786.88 190.17C1781.29 187.62 1775.82 183.41 1770.48 177.57C1765.21 171.36 1761.01 162.96 1757.87 152.41C1754.8 141.91 1753.89 128.39 1755.17 111.95C1756.49 95.4998 1759.07 82.2198 1762.92 71.9998C1766.8 61.4898 1771.44 53.5298 1776.84 48.1198C1782.41 42.3898 1788.28 38.3898 1794.48 36.0998C1800.85 33.8298 1807.07 32.6398 1813.17 32.5298C1821.38 32.4598 1829.24 34.3598 1836.98 38.2098C1845.21 41.8998 1852.66 47.4298 1859.32 54.7198C1866.61 61.5098 1871.54 70.5898 1873.97 81.9898C1875.76 90.4398 1874.68 97.2498 1871.14 102.27C1867.95 106.94 1864.25 110.43 1860.1 112.68C1856.25 114.61 1852.87 115.88 1849.91 116.46C1847.01 116.72 1845.58 116.83 1845.58 116.83Z"/>
</mask>
<path d="M15.3521 340.67C15.3521 340.67 14.5621 334.37 13.0021 321.74C11.7221 308.99 10.1521 292.49 8.59213 272.06C7.85213 251.39 7.38213 229.33 6.95213 206.3C6.35213 184.43 5.22213 166.82 3.71213 152.67C2.22213 139.38 1.07213 128.6 0.382132 119.99C0.00213152 110.76 -0.00786849 105.09 0.00213151 103.26C0.602132 98.0298 1.12213 93.8298 1.50213 90.6998C2.09213 87.2498 3.24213 84.8798 4.92213 83.6298C6.18213 82.6898 6.54213 81.4098 6.03213 79.8398C5.71213 78.2398 5.72213 76.1798 6.06213 73.6498C6.60213 71.0898 8.71213 68.3898 12.3121 65.4698C15.0821 63.1798 19.3421 59.8798 25.0521 55.5398C30.8321 50.8298 37.6021 47.0098 45.4021 44.1098C53.1321 41.1698 61.4121 41.1598 70.2321 44.0598C79.0521 46.6198 88.0221 53.9498 97.2021 66.0698C103.462 74.3398 107.332 83.0898 108.762 92.3698C110.402 101.32 110.582 110.23 109.342 119.15C108.092 127.76 106.202 135.82 103.652 143.27C101.112 150.41 98.6821 156.18 96.4421 160.56C94.3421 164.94 93.3121 167.13 93.3121 167.13C93.3121 167.13 94.6021 167.91 97.2221 169.46C99.8321 170.99 103.002 173.5 106.772 176.99C110.702 180.39 114.682 185.18 118.712 191.32C122.722 197.06 126.142 204.41 129.032 213.4C132.082 222.31 133.942 232.99 134.592 245.49C135.832 266.64 133.152 284.97 126.562 300.63C120.172 316.42 110.872 329.91 98.6321 341.12C86.5721 352.08 72.4321 360.32 56.1721 365.62C46.7321 368.62 39.3221 369.25 33.9421 367.47C28.4721 365.49 24.3921 362.31 21.6821 358.02C18.9421 353.54 17.1821 349.52 16.4521 345.99C15.7021 342.44 15.3521 340.67 15.3521 340.67ZM45.5321 92.3498C45.5321 92.3498 45.5321 94.9698 45.5521 100.26C45.7621 105.24 45.9021 111.21 45.9521 118.19C46.2321 125.24 46.5121 131.81 46.8021 137.92C47.2821 143.73 47.7321 147.35 48.1521 148.76C48.5521 150.15 49.8621 149.9 52.0721 147.94C54.2621 145.96 56.5321 142.92 58.8921 138.84C61.4121 134.37 63.3621 129.4 64.7721 123.94C66.3321 118.11 66.8021 112.5 66.1821 107.12C64.7721 96.3598 62.0521 90.2498 58.0121 88.6898C53.9521 87.1098 49.8021 88.3498 45.5321 92.3498ZM54.1221 214.32C55.9621 246.7 58.0421 279.39 60.2921 312.38C60.2921 312.38 61.5921 312.12 64.1821 311.59C66.7821 311.03 69.8721 309.78 73.4921 307.8C77.0821 305.83 80.5321 302.53 83.8321 297.97C87.2921 293.39 89.8721 287.33 91.5621 279.83C93.4321 271.94 93.7321 261.81 92.4921 249.38C91.2721 236.96 89.1921 227.97 86.2321 222.42C83.4121 216.42 80.1421 212.64 76.3821 211.08C72.8021 209.43 69.2621 209.02 65.7621 209.87C62.4121 210.28 59.6521 211.21 57.4421 212.7C55.2421 213.8 54.1221 214.32 54.1221 214.32ZM137.532 76.8498C137.532 76.8498 137.332 75.5498 136.902 72.9598C136.492 70.0398 136.502 66.6098 136.942 62.6598C137.582 58.6998 139.112 55.0198 141.542 51.6198C144.142 48.2298 148.312 45.8698 153.992 44.5698C159.692 43.2898 166.092 42.1098 173.212 41.0298C180.522 39.9598 187.452 38.9398 194.032 37.8998C200.812 36.8698 206.312 36.0898 210.582 35.5298C214.852 34.9698 216.992 34.6698 216.992 34.6698C216.992 34.6698 218.162 34.7698 220.482 34.9498C222.982 34.7898 225.842 35.2198 229.072 36.2298C232.492 36.9198 235.572 38.7098 238.322 41.5398C241.082 44.0498 242.792 48.0098 243.482 53.3798C244.172 58.7398 243.672 62.9998 241.972 66.1798C240.292 69.3498 238.222 71.8098 235.752 73.5898C233.312 75.0198 231.092 75.9998 229.142 76.5098C227.182 76.9998 226.212 77.2498 226.212 77.2498C211.982 80.0198 197.742 82.7998 183.482 85.5898C183.482 85.5898 183.822 87.6198 184.472 91.7298C185.122 95.8198 185.792 100.56 186.502 105.96C187.362 110.99 187.952 115.42 188.242 119.25C188.532 122.75 188.852 127.39 189.212 133.14C189.562 138.58 189.902 143.54 190.222 148.05C190.542 152.19 190.712 154.3 190.712 154.3C197.332 153.23 203.942 152.16 210.562 151.06C210.562 151.06 211.542 151.06 213.532 151.05C215.502 150.73 217.762 150.98 220.292 151.8C223.012 152.29 225.412 153.45 227.452 155.28C229.492 157.09 230.692 160.15 231.012 164.48C231.412 170.02 230.322 174.45 227.732 177.78C225.332 181.09 222.742 183.51 219.902 185.03C217.252 186.21 215.582 187.03 214.862 187.49C214.342 187.61 212.902 188.06 210.592 188.86C208.262 189.33 205.672 189.87 202.812 190.46C200.112 191.01 197.702 191.49 195.562 191.94C193.402 192.36 192.332 192.59 192.332 192.59C192.332 192.59 192.432 195.01 192.602 199.87C192.962 204.38 193.352 209.68 193.762 215.8C194.182 221.89 194.412 227.24 194.402 231.83C194.592 236.03 194.712 241.24 194.782 247.44C194.862 253.3 194.902 258.51 194.922 263.09C194.932 267.33 194.922 269.47 194.922 269.47C206.962 265.13 219.002 260.8 231.042 256.49C231.042 256.49 232.202 256.15 234.522 255.46C236.822 254.47 239.602 253.98 242.872 253.95C246.112 253.91 249.062 254.87 251.682 256.84C254.322 258.78 255.862 262.41 256.282 267.74C256.922 272.99 256.232 277.6 254.262 281.61C252.282 285.61 249.882 288.85 247.102 291.33C244.322 293.81 241.782 295.75 239.492 297.16C237.362 298.2 236.302 298.72 236.302 298.72C217.082 307.1 197.852 315.51 178.632 323.99C178.632 323.99 177.192 324.5 174.342 325.5C171.662 326.73 168.532 327.5 164.892 327.76C161.262 327.67 158.012 326.25 155.142 323.49C152.262 320.37 150.742 314.7 150.542 306.52C150.422 295.53 150.022 278.41 149.402 255.08C148.832 231.4 147.622 203.96 145.832 172.82C144.172 141.89 141.402 109.89 137.532 76.8498ZM281.692 264.09C274.652 201.28 267.952 137.85 261.522 73.7898C261.522 73.7898 261.222 72.9398 260.632 71.2098C260.242 69.4598 260.072 67.0698 260.162 64.1098C260.252 61.1298 261.142 57.9198 262.832 54.5398C264.692 51.1098 267.882 47.9398 272.432 44.9298C278.582 40.7198 285.792 37.1998 294.102 34.3398C302.562 31.2498 311.532 29.9798 321.002 30.5098C330.662 31.0198 340.212 34.8098 349.692 41.7898C355.312 45.6898 359.592 51.5698 362.482 59.3698C365.402 67.1298 367.282 75.4698 368.122 84.4298C368.982 93.3398 369.292 101.94 369.062 110.18C369.042 118.37 368.722 125.19 368.062 130.59C367.602 135.96 367.352 138.66 367.352 138.66C367.352 138.66 366.822 140.75 365.772 144.93C364.722 149.1 362.532 154.06 359.232 159.82C356.102 165.32 351.312 170.27 344.892 174.73C358.572 191.81 372.312 208.3 386.092 224.22C386.092 224.22 386.802 225 388.152 226.64C389.552 228.24 390.692 230.44 391.602 233.21C392.672 235.64 392.692 238.59 391.652 242C390.762 245.13 387.972 248.52 383.292 252.24C378.432 256.01 374.002 258.1 370.002 258.48C366.192 258.76 362.982 258.16 360.332 256.68C357.872 255.14 355.952 253.51 354.562 251.83C353.202 250.13 352.522 249.3 352.522 249.3C339.522 231.12 326.572 212.36 313.702 193.01C317.622 211.86 321.552 230.56 325.532 249.11C325.532 249.11 325.772 250.28 326.272 252.63C326.762 254.69 326.722 257.34 326.182 260.6C325.632 263.83 323.992 267.19 321.282 270.64C318.562 273.83 314.072 276.54 307.802 278.74C301.562 280.92 296.602 281.52 292.902 280.5C289.392 279.37 286.842 277.48 285.232 274.82C283.662 272.1 282.622 269.67 282.132 267.48C281.842 265.22 281.692 264.09 281.692 264.09ZM299.172 69.6398C302.282 98.0398 305.472 126.31 308.732 154.45C308.732 154.45 309.712 154.4 311.692 154.3C313.832 154.16 316.312 153.4 319.112 151.99C322.102 150.58 324.842 148.07 327.382 144.54C330.092 140.69 332.202 135.33 333.692 128.42C335.192 121.27 335.452 111.84 334.482 100.13C333.532 88.8998 331.842 80.7898 329.352 75.8198C326.862 70.5098 323.902 67.3298 320.462 66.2698C317.042 64.9098 313.472 64.8298 309.752 66.0398C306.032 66.9598 302.522 68.1598 299.172 69.6398ZM416.632 220.58C408.192 164.61 400.462 107.07 393.382 47.9698C393.382 47.9698 393.262 47.0498 393.042 45.2598C392.812 43.1698 393.012 40.6898 393.632 37.7598C394.282 34.8398 395.902 32.1398 398.512 29.6298C401.282 26.8498 405.692 24.8898 411.712 23.7598C417.732 22.6298 422.382 22.9998 425.622 24.8498C429.012 26.6698 431.462 29.0598 432.952 31.9598C434.422 34.8998 435.282 37.5998 435.502 40.0998C435.902 42.5698 436.112 43.8098 436.112 43.8098C437.962 62.6198 439.872 81.2498 441.882 99.7098C449.342 78.0898 456.992 56.5398 464.792 35.0598C464.792 35.0598 465.482 33.7798 466.862 31.2398C468.262 28.4798 470.692 26.0098 474.212 23.8298C477.702 21.6798 482.422 21.3098 488.262 22.6798C494.172 24.0298 498.102 26.0898 500.072 28.8498C502.072 31.6198 502.902 34.6498 502.572 37.9898C502.422 41.3098 501.682 44.5598 500.372 47.7198C499.542 49.6598 497.982 53.2998 495.682 58.6798C493.382 64.0298 490.702 70.1298 487.622 76.9798C484.722 83.7798 481.932 90.3798 479.232 96.7498C476.562 103.09 474.312 108.5 472.442 112.92C470.722 117.07 469.882 119.17 469.882 119.17C486.082 140.41 502.422 160.97 518.902 180.86C518.902 180.86 519.502 181.81 520.702 183.71C521.892 185.41 522.702 187.57 523.152 190.18C523.572 192.59 522.682 194.96 520.462 197.27C518.392 199.54 514.022 201.32 507.302 202.74C500.612 204.2 495.032 204.35 490.582 202.98C486.122 201.43 482.782 199.56 480.572 197.38C478.522 194.89 477.502 193.66 477.502 193.66C468.912 181.91 460.442 169.8 452.042 157.31C454.682 174.25 457.402 190.99 460.242 207.55C460.242 207.55 460.332 208.42 460.492 210.19C460.652 211.95 460.312 214.09 459.462 216.66C458.762 219.15 457.012 221.81 454.162 224.64C451.292 227.49 446.922 229.94 441.042 232C435.162 234.06 430.552 234.69 427.212 233.92C423.852 233.12 421.372 231.65 419.742 229.5C418.302 227.28 417.422 225.23 417.112 223.38C416.782 221.5 416.632 220.58 416.632 220.58ZM525.092 43.9298C525.092 43.9298 524.922 43.0198 524.562 41.1798C524.212 39.0998 524.262 36.6598 524.692 33.8298C525.322 30.9898 526.752 28.3198 528.972 25.8598C531.382 23.3998 535.172 21.6798 540.322 20.7198C545.482 19.7898 551.282 18.9298 557.732 18.1698C564.342 17.3998 570.632 16.6798 576.582 15.9398C582.702 15.2098 587.702 14.6498 591.552 14.2698C595.422 13.8798 597.342 13.6898 597.342 13.6898C597.342 13.6898 598.392 13.7598 600.502 13.8998C602.762 13.7898 605.352 14.1298 608.282 14.9198C611.362 15.4498 614.162 16.8098 616.632 18.9498C619.132 20.8898 620.682 23.8498 621.302 27.8598C621.942 31.8398 621.482 34.9698 619.962 37.2698C618.412 39.5598 616.542 41.3198 614.322 42.5598C612.112 43.5698 610.102 44.2298 608.332 44.5398C606.562 44.8598 605.672 45.0298 605.672 45.0298C592.772 46.7398 579.822 48.4798 566.892 50.2498C566.892 50.2498 567.182 51.6998 567.762 54.5898C568.352 57.4698 568.962 60.7998 569.582 64.5698C570.362 68.0598 570.882 71.1698 571.142 73.8098C571.412 76.2298 571.712 79.4298 572.032 83.3798C572.362 87.0998 572.662 90.4698 572.992 93.5098C573.282 96.3298 573.422 97.7398 573.422 97.7398C579.452 97.2998 585.502 96.8598 591.512 96.4298C591.512 96.4298 592.402 96.4698 594.212 96.5598C595.992 96.4298 598.042 96.7298 600.362 97.4298C602.822 97.9198 604.992 98.8398 606.842 100.23C608.712 101.61 609.792 103.79 610.132 106.8C610.502 110.65 609.512 113.61 607.192 115.7C605.032 117.79 602.672 119.24 600.102 120.07C597.702 120.67 596.172 121.09 595.542 121.36C595.042 121.41 593.772 121.6 591.652 121.98C589.542 122.14 587.202 122.31 584.592 122.51C582.162 122.7 579.962 122.87 578.002 123.03C576.042 123.18 575.052 123.26 575.052 123.26C575.052 123.26 575.162 124.87 575.362 128.07C575.702 131.03 576.092 134.5 576.502 138.52C576.952 142.53 577.172 146.01 577.222 148.99C577.402 151.71 577.572 155.09 577.712 159.08C577.822 162.88 577.912 166.24 577.962 169.19C578.012 171.9 578.042 173.28 578.042 173.28C588.892 171.91 599.732 170.56 610.572 169.24C610.572 169.24 611.612 169.16 613.712 169.02C615.792 168.66 618.292 168.69 621.232 169.11C624.162 169.53 626.822 170.6 629.192 172.32C631.572 174.05 632.972 176.79 633.372 180.56C633.942 184.3 633.362 187.4 631.592 189.85C629.822 192.29 627.692 194.13 625.202 195.37C622.712 196.59 620.442 197.51 618.382 198.08C616.492 198.43 615.542 198.61 615.542 198.61C598.342 201.03 581.132 203.46 563.922 205.93C563.922 205.93 562.642 206.02 560.072 206.21C557.682 206.61 554.862 206.61 551.612 206.23C548.322 205.65 545.362 204.3 542.742 202.23C540.092 199.94 538.602 196.33 538.292 191.4C537.972 184.78 537.332 174.46 536.412 160.34C535.582 145.84 534.222 128.71 532.402 108.83C530.822 88.5498 528.382 66.9398 525.092 43.9298ZM695.232 152.37C695.392 152.37 696.842 152.28 699.562 152.1C702.282 151.71 705.662 151.38 709.672 151.12C713.672 150.65 717.612 150.3 721.462 150.06C725.452 149.58 728.812 149.25 731.552 149.08C734.262 148.7 735.632 148.52 735.632 148.52C735.632 148.52 736.502 148.46 738.272 148.34C740.032 148.24 742.132 148.52 744.592 149.19C747.032 149.67 749.182 150.96 751.082 153.14C753.132 155.28 754.352 158.71 754.782 163.46C755.172 167.98 754.322 171.65 752.232 174.5C750.282 177.11 747.802 179.03 744.832 180.29C742.002 181.3 739.382 182 736.982 182.39C734.752 182.74 733.642 182.94 733.642 182.94C733.642 182.94 731.972 183.25 728.642 183.9C725.442 184.33 721.242 185.16 716.002 186.36C710.782 187.55 705.102 189.11 698.952 191.02C692.792 192.72 686.882 194.81 681.262 197.32C675.632 199.8 670.882 200.88 667.012 200.54C663.312 200.39 660.352 199.55 658.192 198.04C655.982 196.3 654.342 194.53 653.262 192.71C652.322 190.68 651.832 189.34 651.802 188.72C651.532 187.25 651.742 185.45 652.412 183.3C653.052 180.95 654.472 179.27 656.692 178.27C657.472 178.01 657.692 175.07 657.342 169.42C656.972 163.55 656.192 156.13 655.002 147.16C653.962 137.94 652.672 127.99 651.102 117.25C649.552 106.48 647.862 95.7698 646.032 85.1298C644.402 74.3898 642.832 64.8098 641.342 56.3698C639.862 47.8798 638.472 41.5498 637.192 37.4398C635.322 31.0798 634.992 26.0998 636.132 22.4698C637.292 18.8598 638.992 16.1998 641.202 14.5398C643.542 12.6598 645.692 11.4698 647.612 10.9298C649.662 10.4098 650.712 10.1398 650.712 10.1398C650.712 10.1398 651.762 9.97978 653.852 9.67978C656.082 9.14978 658.672 9.25978 661.592 10.0498C664.682 10.5898 667.562 12.3498 670.262 15.3398C673.092 18.1198 675.222 22.8898 676.622 29.6498C678.422 38.5398 680.562 49.0298 683.022 61.0598C685.652 72.7698 688.082 86.2598 690.272 101.48C692.672 116.59 694.342 133.56 695.232 152.37ZM753.972 32.4898C753.972 32.4898 753.782 31.6398 753.382 29.9298C752.992 28.0198 752.962 25.7398 753.342 23.1198C753.892 20.4998 755.242 18.0598 757.402 15.7898C759.722 13.5398 763.462 11.9698 768.582 11.1198C773.712 10.2798 779.482 9.50978 785.882 8.81978C792.482 8.12978 798.742 7.46978 804.672 6.81978C810.782 6.15978 815.732 5.64978 819.582 5.29978C823.432 4.94978 825.362 4.74978 825.362 4.74978C825.362 4.74978 826.402 4.82978 828.522 4.98978C830.772 4.89978 833.372 5.23978 836.292 5.97978C839.362 6.52978 842.152 7.83978 844.652 9.89978C847.142 11.7498 848.712 14.6098 849.332 18.4698C849.982 22.2998 849.542 25.3198 848.022 27.5298C846.522 29.7098 844.652 31.3798 842.452 32.5298C840.232 33.4498 838.242 34.0498 836.482 34.3398C834.722 34.6198 833.842 34.7698 833.842 34.7698C821.002 36.2098 808.192 37.6698 795.342 39.1598C795.342 39.1598 795.662 40.5198 796.272 43.2798C796.862 46.0098 797.492 49.1798 798.132 52.7798C798.942 56.1198 799.472 59.0898 799.742 61.6098C800.012 63.9198 800.332 66.9698 800.662 70.7398C800.972 74.2998 801.312 77.5298 801.592 80.4498C801.882 83.1598 802.022 84.5198 802.022 84.5198C807.982 84.2498 813.922 83.9698 819.862 83.6998C819.862 83.6998 820.762 83.7498 822.542 83.8898C824.302 83.8198 826.362 84.1398 828.642 84.8898C831.082 85.3998 833.222 86.3498 835.062 87.7198C836.892 89.0798 837.972 91.2098 838.272 94.1098C838.602 97.7898 837.612 100.63 835.282 102.6C833.132 104.55 830.772 105.9 828.232 106.63C825.842 107.15 824.342 107.53 823.702 107.77C823.212 107.81 821.942 107.97 819.852 108.28C817.772 108.38 815.452 108.49 812.882 108.62C810.462 108.75 808.282 108.85 806.362 108.96C804.442 109.05 803.472 109.1 803.472 109.1C803.472 109.1 803.542 110.66 803.702 113.75C804.012 116.63 804.342 120.02 804.702 123.91C805.052 127.79 805.212 131.17 805.202 134.07C805.342 136.71 805.422 140 805.452 143.89C805.492 147.58 805.492 150.85 805.472 153.72C805.462 156.38 805.442 157.72 805.442 157.72C816.212 156.52 827.002 155.35 837.802 154.19C837.802 154.19 838.862 154.12 840.942 154C843.022 153.65 845.492 153.72 848.412 154.16C851.342 154.6 853.952 155.65 856.272 157.31C858.602 158.99 859.932 161.62 860.252 165.21C860.752 168.8 860.072 171.74 858.242 174.07C856.422 176.41 854.262 178.14 851.742 179.34C849.242 180.52 846.952 181.38 844.882 181.93C842.982 182.27 842.022 182.43 842.022 182.43C824.812 184.76 807.592 187.1 790.382 189.45C790.382 189.45 789.122 189.55 786.562 189.74C784.162 190.1 781.352 190.09 778.132 189.71C774.902 189.11 772.022 187.77 769.512 185.68C766.982 183.39 765.672 179.78 765.572 174.83C765.532 168.21 765.312 157.92 764.902 143.89C764.492 129.6 763.462 112.9 761.862 93.7398C760.292 74.4198 757.652 54.0198 753.972 32.4898ZM877.932 1.91978C877.932 1.91978 879.302 1.65978 882.012 1.10978C884.732 0.589777 887.972 1.02978 891.722 2.40978C895.642 3.80978 899.102 7.40978 902.082 13.1698C903.992 16.7798 905.952 21.1698 907.962 26.2898C910.112 31.1798 912.022 36.0398 913.702 40.9298C915.552 45.7898 917.022 49.7998 918.142 52.9598C919.252 56.1098 919.792 57.6598 919.792 57.6598C923.982 42.0998 928.182 26.3898 932.372 10.5398C932.372 10.5398 932.912 9.55978 933.972 7.58978C935.192 5.60978 937.192 3.73978 939.912 1.98978C942.842 0.249777 946.892 -0.300223 952.092 0.149777C967.342 1.68978 973.102 7.96978 969.402 18.9698C968.642 21.0898 967.262 25.0698 965.302 30.8498C963.332 36.3798 961.082 42.6598 958.532 49.6498C956.142 56.3798 953.792 62.9998 951.422 69.4698C949.232 75.8898 947.402 81.1398 945.942 85.2598C944.492 89.3698 943.762 91.3998 943.762 91.3998C945.112 115.92 946.442 140.03 947.732 163.72C947.732 163.72 947.772 164.59 947.842 166.3C948.062 167.83 947.812 169.74 947.102 171.99C946.412 174.05 944.842 175.91 942.382 177.55C939.932 179 936.092 179.77 930.872 179.92C923.862 180.24 918.622 179.4 915.172 177.25C911.892 175.11 909.772 172.7 908.862 170.02C907.952 167.15 907.462 165.02 907.392 163.66C907.352 162.87 907.162 159.97 906.752 154.89C906.522 149.8 906.262 143.83 905.952 136.95C905.622 130.03 905.242 123.08 904.762 116.1C904.422 109.06 904.092 103.22 903.712 98.5698C903.492 93.8798 903.382 91.5398 903.382 91.5398C891.682 69.8498 879.962 47.9598 868.262 25.8598C868.262 25.8598 867.742 24.8998 866.692 23.0198C865.652 21.1198 864.912 18.8798 864.482 16.3098C864.222 13.5198 864.992 10.7998 866.822 8.15978C868.642 5.48978 872.352 3.40978 877.932 1.91978ZM1128.39 68.8798C1122.01 68.0098 1117.47 66.0898 1114.75 63.1998C1112.2 60.2998 1110.69 57.6398 1110.23 55.2498C1109.81 52.6298 1109.57 51.3398 1109.57 51.3398C1109.57 51.3398 1109.44 49.7998 1109.19 46.7498C1108.93 43.6998 1108.16 40.6298 1106.9 37.5298C1105.64 34.4498 1103.33 32.7498 1100.01 32.4598C1097.54 32.1798 1095.51 34.0798 1093.96 38.1498C1092.42 42.0398 1091.18 47.2798 1090.27 53.9698C1089.34 60.5998 1088.66 67.9798 1088.22 76.1098C1087.94 83.9798 1087.73 91.9498 1087.59 100.02C1087.58 110.59 1087.79 120.8 1088.26 130.72C1088.83 140.41 1089.95 148.33 1091.54 154.52C1093.29 160.69 1095.81 163.89 1099.08 164.11C1101.63 164.28 1103.57 162.94 1104.93 160.1C1106.28 157.03 1107.17 153.61 1107.58 149.85C1108.21 146.09 1108.55 142.72 1108.6 139.78C1108.72 136.82 1108.76 135.35 1108.76 135.35C1108.76 135.35 1107.8 135.4 1105.85 135.49C1104.09 135.6 1102.3 135.08 1100.4 133.92C1098.51 132.55 1097.63 129.86 1097.72 125.87C1097.79 121.63 1098.52 118.82 1099.83 117.43C1101.31 116.01 1102.71 115.22 1104.01 115.09C1105.45 114.95 1106.18 114.87 1106.18 114.87C1113.18 115.22 1120.18 115.6 1127.18 115.94C1127.18 115.94 1128.22 115.99 1130.32 116.11C1132.42 116.22 1134.81 116.85 1137.51 118.09C1140.19 119.06 1142.56 120.93 1144.54 123.6C1146.53 126.06 1147.5 129.76 1147.44 134.7C1147.22 146.67 1145.51 156.48 1142.29 164.16C1139.09 171.61 1134.91 177.37 1129.7 181.45C1124.65 185.53 1119.05 188.29 1112.89 189.7C1106.9 190.92 1100.8 191.3 1094.56 190.83C1088.32 190.33 1082.45 188.42 1076.91 185.1C1071.32 181.77 1066.44 176.34 1062.16 168.8C1057.84 161.08 1054.32 150.64 1051.56 137.46C1048.91 124.29 1047.43 107.6 1047.09 87.3198C1046.78 70.8498 1047.99 57.3898 1050.79 47.0198C1053.58 36.5498 1057.25 28.4498 1061.76 22.6998C1066.28 16.9298 1070.98 12.8798 1075.83 10.5698C1080.84 8.05978 1085.41 6.48978 1089.42 5.93978C1093.45 5.34978 1096.29 4.96978 1097.98 4.77978C1099.98 4.60978 1103.22 4.89978 1107.74 5.63978C1112.25 6.39978 1117.06 8.05978 1122.19 10.5898C1127.32 12.9298 1131.99 16.4698 1136.18 21.2098C1140.54 25.9698 1143.67 32.2298 1145.58 39.9898C1147.49 47.7298 1147.72 53.6498 1146.25 57.7698C1144.8 61.6598 1142.65 64.3998 1139.8 66.0498C1136.98 67.6798 1134.31 68.5498 1131.83 68.6898C1129.56 68.8098 1128.39 68.8798 1128.39 68.8798ZM1160.44 102.12C1161.19 84.7598 1164.14 68.9398 1169.33 54.6298C1174.57 39.9698 1181.33 28.3998 1189.72 19.8998C1198.13 11.0898 1207.18 6.76978 1216.89 6.98978C1224.08 7.13978 1230.81 9.92978 1237.06 15.3398C1243.31 20.5098 1248.64 27.8498 1253.07 37.3498C1257.47 46.5998 1260.67 57.2998 1262.63 69.3998C1264.57 81.4598 1265.02 94.1898 1264 107.54C1262.91 120.84 1260.51 133.2 1256.77 144.68C1253.04 156.1 1248.43 166.11 1242.86 174.71C1237.37 183.06 1231.33 189.5 1224.8 194.05C1218.29 198.34 1211.69 200.23 1204.96 199.7C1195.9 199 1187.9 194.16 1180.93 185.22C1173.92 176.1 1168.58 164.32 1164.89 149.91C1161.16 135.49 1159.66 119.58 1160.44 102.12ZM1197.74 102.65C1197.02 115.29 1196.96 126.97 1197.58 137.66C1198.2 148.14 1199.39 156.57 1201.22 162.97C1203 169.16 1205.26 172.38 1207.91 172.55C1210.61 172.75 1213.31 169.89 1215.98 163.97C1218.66 157.84 1221.05 149.61 1223.08 139.23C1225.14 128.61 1226.59 116.91 1227.47 104.19C1228.33 91.1498 1228.44 79.2798 1227.77 68.5298C1227.08 57.7798 1225.77 49.0598 1223.83 42.4698C1221.84 35.8598 1219.44 32.5498 1216.63 32.4498C1213.8 32.3498 1211.06 35.5298 1208.41 41.9698C1205.76 48.3698 1203.5 56.8698 1201.63 67.4498C1199.77 77.9998 1198.46 89.7198 1197.74 102.65ZM1360.54 80.1098C1354.14 78.9498 1349.66 76.7498 1347.12 73.5298C1344.73 70.3398 1343.4 67.4498 1343.13 64.8598C1342.87 62.0098 1342.73 60.5998 1342.73 60.5998C1342.73 60.5998 1342.71 58.9298 1342.65 55.6598C1342.59 52.3398 1342.01 49.0098 1340.96 45.6398C1339.89 42.2798 1337.69 40.4098 1334.38 40.0298C1331.9 39.6898 1329.72 41.7298 1327.89 46.1098C1326.05 50.2498 1324.42 55.8898 1323.02 63.0498C1321.6 70.1498 1320.34 78.0698 1319.25 86.7598C1318.33 95.1598 1317.47 103.65 1316.66 112.25C1315.74 123.47 1315.06 134.32 1314.63 144.81C1314.35 155.05 1314.73 163.39 1315.77 169.92C1316.96 176.43 1319.23 179.84 1322.6 180.13C1325.14 180.33 1327.26 178.99 1328.92 176.04C1330.59 172.88 1331.84 169.33 1332.63 165.41C1333.59 161.5 1334.25 158 1334.6 154.91C1334.95 151.8 1335.13 150.26 1335.13 150.26C1335.13 150.26 1334.15 150.28 1332.18 150.34C1330.36 150.39 1328.55 149.78 1326.72 148.5C1324.93 147.01 1324.26 144.16 1324.72 139.94C1325.19 135.47 1326.16 132.52 1327.63 131.07C1329.26 129.61 1330.72 128.84 1332.07 128.72C1333.56 128.64 1334.3 128.58 1334.3 128.58C1341.42 129.21 1348.53 129.85 1355.66 130.56C1355.66 130.56 1356.73 130.65 1358.85 130.88C1360.97 131.1 1363.38 131.9 1366.05 133.36C1368.74 134.57 1370.99 136.69 1372.81 139.66C1374.65 142.43 1375.33 146.41 1374.85 151.63C1373.6 164.23 1370.93 174.34 1366.92 182.01C1362.9 189.39 1358 194.98 1352.25 198.85C1346.64 202.85 1340.63 205.55 1334.18 206.96C1327.92 208.2 1321.65 208.58 1315.34 208.06C1309.01 207.55 1303.22 205.53 1297.9 202.01C1292.56 198.48 1288.08 192.72 1284.47 184.71C1280.83 176.49 1278.24 165.38 1276.71 151.33C1275.24 137.28 1275.26 119.48 1276.74 97.8598C1277.78 80.3298 1280.08 65.9898 1283.72 54.9598C1287.33 43.8598 1291.63 35.2398 1296.56 29.1398C1301.51 23.0098 1306.48 18.7098 1311.52 16.2598C1316.75 13.5698 1321.4 11.9198 1325.45 11.3398C1329.53 10.7098 1332.42 10.3198 1334.11 10.1398C1336.13 9.93978 1339.39 10.2798 1343.87 11.0898C1348.34 11.9398 1353.06 13.7598 1358.07 16.5498C1363.07 19.1498 1367.55 23.0498 1371.52 28.3098C1375.66 33.5898 1378.46 40.5298 1379.92 49.0998C1381.36 57.6398 1381.2 64.1398 1379.45 68.5898C1377.71 72.7898 1375.34 75.7098 1372.35 77.4198C1369.33 79.0798 1366.58 79.9398 1364.07 79.9998C1361.71 80.0598 1360.54 80.1098 1360.54 80.1098ZM1477.6 91.1498C1471.09 89.6798 1466.57 87.1098 1464.05 83.5198C1461.68 79.9398 1460.38 76.7298 1460.16 73.8998C1459.94 70.8198 1459.85 69.2698 1459.85 69.2698C1459.85 69.2698 1459.84 67.4598 1459.85 63.8898C1459.86 60.2898 1459.34 56.6598 1458.33 53.0198C1457.32 49.3198 1455.12 47.2498 1451.76 46.7698C1449.25 46.3298 1447.01 48.4698 1445.05 53.1298C1443.09 57.5698 1441.33 63.5998 1439.75 71.2798C1438.14 78.9198 1436.67 87.4198 1435.38 96.7798C1434.25 105.85 1433.16 115.03 1432.13 124.3C1430.9 136.46 1429.91 148.22 1429.17 159.64C1428.6 170.8 1428.75 180.03 1429.64 187.34C1430.68 194.73 1432.93 198.83 1436.42 199.66C1439.09 200.28 1441.32 199.06 1443.1 195.96C1444.94 192.62 1446.32 188.79 1447.24 184.45C1448.3 180.15 1449.08 176.27 1449.51 172.84C1449.96 169.37 1450.18 167.67 1450.18 167.67C1450.18 167.67 1449.15 167.6 1447.12 167.46C1445.25 167.34 1443.4 166.49 1441.55 164.89C1439.73 163.05 1439.12 159.83 1439.68 155.22C1440.29 150.34 1441.35 147.16 1442.89 145.68C1444.59 144.21 1446.16 143.44 1447.51 143.41C1449.04 143.43 1449.82 143.42 1449.82 143.42C1457.1 144.63 1464.39 145.82 1471.71 147.06C1471.71 147.06 1472.78 147.23 1474.97 147.6C1477.18 147.97 1479.62 149.02 1482.33 150.8C1485.06 152.3 1487.35 154.82 1489.19 158.31C1491.03 161.53 1491.67 166.15 1491.14 172.13C1489.67 186.67 1486.79 198.35 1482.5 207.15C1478.24 215.61 1473.05 221.79 1466.94 225.69C1460.99 229.58 1454.61 231.73 1447.81 232.15C1441.21 232.35 1434.61 231.51 1427.99 229.65C1421.41 227.78 1415.39 224.38 1409.95 219.47C1404.53 214.61 1400.11 207.66 1396.67 198.61C1393.24 189.47 1391.01 177.6 1389.95 162.85C1388.97 148.06 1389.6 129.38 1391.77 106.65C1393.33 88.1198 1396.08 73.0098 1400.02 61.3498C1403.95 49.5998 1408.48 40.5198 1413.61 34.1098C1418.76 27.6598 1423.9 23.1798 1429.05 20.6698C1434.41 17.8998 1439.15 16.2498 1443.3 15.6998C1447.43 15.1098 1450.37 14.7498 1452.09 14.5898C1454.15 14.4098 1457.45 14.8598 1461.95 15.8198C1466.5 16.8198 1471.25 18.8698 1476.28 21.9998C1481.31 24.8698 1485.79 29.1998 1489.71 34.9398C1493.78 40.7298 1496.48 48.2998 1497.81 57.6798C1499.14 67.0398 1498.85 74.1698 1497.01 79.0198C1495.2 83.5998 1492.74 86.7498 1489.64 88.5398C1486.56 90.2898 1483.74 91.1698 1481.17 91.1498C1478.79 91.1298 1477.6 91.1498 1477.6 91.1498ZM1556.29 205.27C1556.44 205.3 1557.98 205.64 1560.9 206.26C1563.84 206.59 1567.47 207.22 1571.76 208.12C1576.07 208.75 1580.31 209.5 1584.43 210.37C1588.78 210.98 1592.41 211.6 1595.34 212.22C1598.31 212.53 1599.78 212.69 1599.78 212.69C1599.78 212.69 1600.73 212.89 1602.64 213.28C1604.53 213.68 1606.72 214.71 1609.2 216.43C1611.71 217.86 1613.74 220.39 1615.31 224.03C1617.05 227.74 1617.65 232.99 1617.1 239.88C1616.54 246.43 1614.84 251.35 1611.97 254.61C1609.29 257.59 1606.23 259.38 1602.75 260.03C1599.48 260.39 1596.54 260.39 1593.89 260.02C1591.42 259.68 1590.19 259.52 1590.19 259.52C1590.19 259.52 1588.34 259.34 1584.64 258.99C1581.13 258.37 1576.46 257.89 1570.61 257.55C1564.78 257.17 1558.39 257.08 1551.42 257.22C1544.5 257.09 1537.79 257.52 1531.26 258.55C1524.74 259.53 1519.49 259.05 1515.52 257.1C1511.68 255.47 1508.8 253.29 1506.91 250.56C1505.04 247.59 1503.76 244.78 1503.08 242.14C1502.6 239.27 1502.41 237.47 1502.51 236.67C1502.59 234.78 1503.24 232.64 1504.47 230.24C1505.7 227.56 1507.56 225.98 1510.09 225.54C1510.97 225.47 1511.88 221.86 1512.81 214.72C1513.77 207.29 1514.62 197.78 1515.35 186.23C1516.23 174.43 1516.96 161.66 1517.47 147.91C1517.97 134.16 1518.23 120.53 1518.27 107.04C1518.45 93.5498 1518.44 81.5598 1518.28 71.0398C1518.09 60.5298 1517.64 52.6698 1516.95 47.5398C1515.97 39.6698 1516.34 33.6798 1518.1 29.4798C1519.84 25.2898 1521.99 22.3098 1524.57 20.5498C1527.3 18.5398 1529.72 17.3098 1531.83 16.8598C1534.08 16.4298 1535.21 16.2198 1535.21 16.2198C1535.21 16.2198 1536.33 16.1298 1538.57 15.9698C1541 15.5298 1543.71 15.9398 1546.67 17.1898C1549.83 18.1498 1552.6 20.6398 1554.99 24.6098C1557.55 28.3298 1559.04 34.5198 1559.45 43.1298C1559.94 54.5498 1560.47 68.0898 1561.03 83.7698C1561.75 99.2398 1561.88 117.11 1561.39 137.32C1560.97 157.61 1559.3 180.28 1556.29 205.27ZM1640.33 56.9298C1640.33 56.9298 1640.27 55.7398 1640.13 53.3798C1640.02 50.7198 1640.36 47.6398 1641.19 44.1798C1642.19 40.6998 1643.99 37.5798 1646.64 34.7598C1649.44 32.0098 1653.64 30.2898 1659.17 29.6898C1664.72 29.1198 1670.91 28.6698 1677.77 28.4198C1684.82 28.1798 1691.54 27.9098 1697.9 27.5998C1704.45 27.3098 1709.76 27.1098 1713.88 26.9898C1718.01 26.8798 1720.07 26.7998 1720.07 26.7998C1720.07 26.7998 1721.17 27.0198 1723.36 27.4498C1725.77 27.5498 1728.44 28.2898 1731.43 29.6398C1734.59 30.7098 1737.35 32.8598 1739.67 36.0498C1742.01 38.9498 1743.25 43.2198 1743.33 48.8398C1743.42 54.4498 1742.5 58.7498 1740.54 61.7698C1738.59 64.7698 1736.34 66.9698 1733.81 68.3798C1731.32 69.4598 1729.1 70.0898 1727.19 70.2998C1725.28 70.4698 1724.33 70.5598 1724.33 70.5598C1710.51 70.9898 1696.7 71.3998 1682.89 71.7498C1682.89 71.7498 1682.96 73.7398 1683.16 77.7098C1683.36 81.6798 1683.49 86.2598 1683.58 91.4798C1683.86 96.3998 1683.93 100.72 1683.81 104.39C1683.71 107.75 1683.52 112.2 1683.24 117.71C1683 122.91 1682.8 127.68 1682.62 131.99C1682.49 135.99 1682.4 138 1682.4 138C1688.79 138.75 1695.16 139.47 1701.55 140.19C1701.55 140.19 1702.49 140.45 1704.37 140.99C1706.29 141.2 1708.4 142.06 1710.73 143.57C1713.26 144.8 1715.41 146.6 1717.16 149.01C1718.92 151.41 1719.74 154.82 1719.59 159.25C1719.38 164.97 1717.87 169.09 1715.05 171.62C1712.41 174.16 1709.66 175.74 1706.79 176.33C1704.13 176.59 1702.43 176.85 1701.72 177.09C1701.19 177.02 1699.79 176.98 1697.5 177C1695.24 176.69 1692.72 176.34 1689.93 175.95C1687.31 175.59 1684.97 175.27 1682.88 174.96C1680.8 174.67 1679.75 174.53 1679.75 174.53C1679.75 174.53 1679.57 176.86 1679.19 181.5C1679.03 185.85 1678.79 190.99 1678.48 196.92C1678.18 202.86 1677.76 208.01 1677.21 212.36C1676.86 216.4 1676.36 221.39 1675.67 227.31C1675 232.93 1674.38 237.91 1673.8 242.28C1673.25 246.31 1672.98 248.35 1672.98 248.35C1685 250.01 1697.04 251.59 1709.14 253.1C1709.14 253.1 1710.32 253.3 1712.63 253.73C1714.97 253.82 1717.73 254.66 1720.89 256.25C1724.04 257.83 1726.77 260.35 1729.04 263.83C1731.35 267.32 1732.32 272.14 1731.98 278.31C1731.79 284.53 1730.44 289.27 1727.91 292.56C1725.39 295.82 1722.6 297.94 1719.54 298.95C1716.51 299.94 1713.77 300.47 1711.38 300.58C1709.17 300.37 1708.08 300.3 1708.08 300.3C1688.61 297.23 1669.23 294.05 1649.91 290.76C1649.91 290.76 1648.51 290.4 1645.68 289.64C1643 289.24 1639.96 288.13 1636.55 286.29C1633.17 284.13 1630.35 281.04 1628.11 277.05C1625.89 272.78 1625.28 267.07 1626.25 259.92C1627.65 250.4 1629.58 235.48 1631.98 215.16C1634.33 194.54 1636.38 170.45 1638.16 142.95C1639.9 115.54 1640.62 86.8398 1640.33 56.9298ZM1845.58 116.83C1838.21 117.37 1832.82 116.39 1829.26 114.01C1825.76 111.27 1823.31 108.16 1821.91 104.69C1820.69 101.2 1820.06 98.0498 1819.97 95.2198C1819.9 92.0498 1819.88 90.1398 1819.89 89.5198C1819.94 87.9198 1819.66 85.3998 1819 81.9398C1818.54 78.1698 1816.73 76.2798 1813.55 76.2598C1808.36 76.1998 1803.67 78.7798 1799.4 84.0498C1795.29 89.3398 1792.76 97.2298 1791.77 107.74C1790.78 118.27 1791.78 127.47 1794.81 135.28C1797.87 143.06 1804.63 147.2 1815.26 147.56C1820.68 147.44 1826.41 148.54 1832.4 150.81C1838.46 152.95 1844.01 156.62 1848.97 161.82C1854.13 166.53 1857.7 173.68 1859.87 183.43C1862.72 192.52 1863.15 203.79 1863.84 218.29C1864.99 252.51 1859.23 281.91 1846.6 304.22C1833.99 325.12 1817.84 332.48 1797.92 327.79C1784.81 324.7 1774.68 319.04 1767.45 310.97C1760.22 302.73 1755.16 294.04 1752.27 284.81C1749.5 275.77 1748.26 267.96 1748.57 261.39C1748.86 254.83 1749.49 248.54 1750.44 242.5C1751.54 236.48 1753.76 231.49 1757.09 227.45C1760.63 223.41 1765.96 221.22 1773.17 220.77C1780.63 220.23 1785.89 221.67 1788.94 225.21C1792.03 228.41 1793.87 232.1 1794.48 236.3C1795.24 240.55 1795.61 243.24 1795.54 244.31C1795.5 245.39 1795.56 248.09 1795.7 252.46C1796.06 256.49 1796.77 260.59 1797.85 264.8C1799.13 268.63 1801.13 270.69 1803.84 270.87C1807.94 271.13 1811.71 267.97 1815.13 261.47C1818.47 254.95 1820.84 244.58 1822.04 230.79C1823.78 205.17 1816.8 193.28 1801.26 193.44C1797.52 193.4 1792.71 192.32 1786.88 190.17C1781.29 187.62 1775.82 183.41 1770.48 177.57C1765.21 171.36 1761.01 162.96 1757.87 152.41C1754.8 141.91 1753.89 128.39 1755.17 111.95C1756.49 95.4998 1759.07 82.2198 1762.92 71.9998C1766.8 61.4898 1771.44 53.5298 1776.84 48.1198C1782.41 42.3898 1788.28 38.3898 1794.48 36.0998C1800.85 33.8298 1807.07 32.6398 1813.17 32.5298C1821.38 32.4598 1829.24 34.3598 1836.98 38.2098C1845.21 41.8998 1852.66 47.4298 1859.32 54.7198C1866.61 61.5098 1871.54 70.5898 1873.97 81.9898C1875.76 90.4398 1874.68 97.2498 1871.14 102.27C1867.95 106.94 1864.25 110.43 1860.1 112.68C1856.25 114.61 1852.87 115.88 1849.91 116.46C1847.01 116.72 1845.58 116.83 1845.58 116.83Z" fill="#9DC7FF" stroke="#9BC8FF" stroke-width="2" mask="url(#path-1-inside-1_5_71)"/>
</svg>
