<svg width="1920" height="650" viewBox="0 0 1920 650" fill="none" xmlns="http://www.w3.org/2000/svg">
<g clip-path="url(#clip0_128_3)">
<path d="M239.739 229.401C239.739 229.401 240.841 229.017 243.045 228.25C245.193 227.325 247.927 226.814 251.247 226.717C254.511 226.462 257.763 227.183 261.001 228.879C264.341 230.363 267.125 233.541 269.351 238.413C271.036 242.238 273.447 247.134 276.585 253.101C279.667 258.91 282.938 265.007 286.397 271.391C289.856 277.775 293.099 283.793 296.126 289.445C299.256 294.885 301.794 299.384 303.739 302.942C305.842 306.446 306.893 308.197 306.893 308.197L303.888 266.887C303.888 266.887 303.898 265.648 303.918 263.171C303.882 260.536 304.504 257.76 305.783 254.844C307.219 251.873 310.061 249.648 314.311 248.167C318.561 246.687 322.089 246.429 324.895 247.393C327.647 248.199 329.906 249.619 331.673 251.651C333.597 253.628 335.257 255.608 336.654 257.593C337.675 259.002 339.315 261.431 341.575 264.88C343.938 268.116 346.304 271.616 348.673 275.379C351.201 279.088 353.351 282.221 355.125 284.78C356.898 287.339 357.785 288.619 357.785 288.619L353.085 268.283L338.825 195.419C338.825 195.419 338.941 194.232 339.173 191.857C339.507 189.269 340.813 186.432 343.091 183.344C345.526 180.202 349.895 177.798 356.198 176.132C365.704 173.527 372.028 173.442 375.17 175.878C378.47 178.258 380.128 182.004 380.144 187.117C380.124 189.595 380.616 194.806 381.618 202.752C382.566 210.54 383.798 219.906 385.316 230.849C386.833 241.792 388.621 253.259 390.679 265.249C392.682 277.082 394.73 288.282 396.822 298.848C398.001 304.261 397.983 308.768 396.766 312.369C395.652 315.757 394.106 318.413 392.129 320.337C390.152 322.261 388.325 323.604 386.648 324.364C384.972 325.125 384.134 325.505 384.134 325.505C384.134 325.505 383.111 325.861 381.064 326.574C379.073 327.444 376.445 328.006 373.181 328.261C370.074 328.46 366.665 327.795 362.955 326.263C359.402 324.677 355.907 321.482 352.469 316.679C345.751 307.018 340.029 298.951 335.304 292.478C330.578 286.005 328.216 282.769 328.216 282.769L328.974 327.509C328.974 327.509 328.831 328.618 328.544 330.836C328.257 333.053 327.027 335.6 324.851 338.475C322.834 341.296 319.149 343.638 313.798 345.502C305.77 348.298 299.744 348.985 295.72 347.563C291.797 345.929 287.956 342.502 284.196 337.281C283.012 335.399 280.806 332.108 277.581 327.408C274.3 322.55 270.561 316.881 266.363 310.401C262.165 303.921 257.833 297.312 253.368 290.572C248.848 283.675 244.704 277.353 240.938 271.605C237.116 265.7 233.969 260.972 231.497 257.421C229.127 253.658 227.942 251.776 227.942 251.776C227.942 251.776 227.538 251.123 226.73 249.816C225.922 248.509 225.504 246.802 225.476 244.694C225.393 242.428 226.309 239.991 228.224 237.383C230.297 234.72 234.135 232.059 239.739 229.401Z" fill="#9DC7FF"/>
<path d="M408.212 181.075C408.212 181.075 407.887 180.47 407.236 179.259C406.545 177.887 406.196 176.17 406.19 174.109C406.345 172.006 407.349 169.861 409.201 167.672C411.216 165.443 414.746 163.431 419.794 161.637C424.841 159.842 430.555 157.965 436.936 156.005C443.478 154.004 449.697 152.085 455.593 150.248C461.651 148.37 466.598 146.859 470.435 145.715C474.271 144.571 476.189 143.999 476.189 143.999C476.189 143.999 477.26 143.814 479.401 143.444C481.663 142.871 484.33 142.539 487.402 142.449C490.594 142.156 493.607 142.51 496.44 143.512C499.232 144.353 501.238 146.165 502.459 148.951C503.681 151.736 503.688 154.141 502.482 156.166C501.275 158.191 499.643 159.894 497.586 161.275C495.488 162.494 493.571 163.409 491.834 164.021C490.098 164.633 489.23 164.938 489.23 164.938L451.007 176.941C451.007 176.941 451.515 177.93 452.532 179.907C453.549 181.885 454.647 184.186 455.828 186.809C457.129 189.231 458.105 191.39 458.758 193.288C459.37 195.025 460.125 197.326 461.023 200.194C461.88 202.899 462.676 205.363 463.411 207.584C464.104 209.643 464.451 210.673 464.451 210.673L482.385 206.13C482.385 206.13 483.294 205.986 485.112 205.697C486.889 205.247 488.99 205.059 491.416 205.132C493.962 205.003 496.267 205.279 498.331 205.96C500.394 206.64 501.794 208.091 502.528 210.312C503.426 213.18 502.848 215.647 500.793 217.715C498.899 219.742 496.721 221.325 494.259 222.465C491.917 223.402 490.444 224.033 489.838 224.358C489.354 224.481 488.082 224.889 486.022 225.583C483.922 226.115 481.579 226.708 478.994 227.363C476.571 227.977 474.389 228.529 472.451 229.02C470.512 229.511 469.543 229.757 469.543 229.757C469.543 229.757 469.849 230.968 470.463 233.392C471.198 235.613 472.035 238.238 472.974 241.267C473.913 244.295 474.588 246.961 474.999 249.264C475.531 251.364 476.105 253.97 476.721 257.081C477.296 260.03 477.79 262.656 478.201 264.958C478.571 267.1 478.757 268.17 478.757 268.17L511.166 258.672C511.166 258.672 512.217 258.406 514.317 257.874C516.376 257.18 518.922 256.707 521.952 256.455C524.983 256.204 527.814 256.518 530.444 257.399C533.074 258.281 534.839 260.155 535.737 263.022C536.796 265.848 536.582 268.396 535.093 270.664C533.605 272.932 531.67 274.798 529.29 276.26C526.909 277.723 524.71 278.882 522.691 279.737C520.794 280.389 519.845 280.716 519.845 280.716L468.173 296.64C468.173 296.64 466.88 296.968 464.295 297.623C461.913 298.398 459.045 298.953 455.691 299.286C452.296 299.459 449.161 298.963 446.288 297.8C443.373 296.475 441.506 293.853 440.685 289.934C439.699 284.683 437.976 276.522 435.516 265.454C433.015 254.224 429.56 241.259 425.148 226.559C420.737 211.859 415.092 196.698 408.212 181.075Z" fill="#9DC7FF"/>
<path d="M602.945 230.927C603.109 230.898 604.586 230.633 607.375 230.133C610.134 229.47 613.565 228.77 617.666 228.035C621.738 227.136 625.742 226.334 629.68 225.628C633.752 224.729 637.182 224.03 639.971 223.53C642.731 222.866 644.11 222.535 644.11 222.535C644.11 222.535 645.013 222.373 646.817 222.049C648.622 221.726 650.813 221.672 653.392 221.887C655.941 221.938 658.279 222.705 660.407 224.186C662.699 225.638 664.265 228.235 665.105 231.979C665.916 235.559 665.364 238.621 663.45 241.165C661.67 243.516 659.295 245.381 656.325 246.76C653.49 247.945 650.856 248.84 648.425 249.445C646.157 250.021 645.024 250.309 645.024 250.309C645.024 250.309 643.331 250.782 639.944 251.727C636.693 252.479 632.419 253.668 627.123 255.295C621.826 256.921 616.082 258.882 609.89 261.177C603.668 263.307 597.751 265.722 592.139 268.421C586.527 271.12 581.709 272.576 577.683 272.79C573.851 273.138 570.751 272.847 568.383 271.916C565.986 270.822 564.163 269.625 562.914 268.325C561.8 266.831 561.199 265.838 561.11 265.346C560.741 264.227 560.819 262.774 561.345 260.986C561.842 259.035 563.18 257.525 565.359 256.457C566.15 256.146 566.149 253.776 565.355 249.347C564.532 244.753 563.16 238.988 561.24 232.051C559.454 224.921 557.319 217.261 554.836 209.071C552.352 200.88 549.719 192.801 546.937 184.834C544.318 176.837 541.862 169.742 539.567 163.55C537.272 157.358 535.271 152.806 533.564 149.895C531.071 145.431 530.245 141.769 531.088 138.909C531.93 136.049 533.396 133.839 535.487 132.279C537.713 130.526 539.78 129.309 541.69 128.628C543.764 127.918 544.801 127.563 544.801 127.563C544.801 127.563 545.853 127.289 547.956 126.743C550.194 126.003 552.848 125.697 555.919 125.824C559.124 125.758 562.245 126.638 565.281 128.464C568.452 130.097 571.068 133.353 573.127 138.233C575.809 144.695 578.958 152.343 582.573 161.177C586.322 169.818 589.994 179.912 593.587 191.459C597.344 202.977 600.463 216.133 602.945 230.927Z" fill="#9DC7FF"/>
<path d="M777.274 210.516C777.274 210.516 777.142 211.619 776.877 213.827C776.612 216.035 775.821 218.802 774.504 222.13C773.186 225.457 770.966 228.965 767.844 232.654C764.869 236.16 760.598 239.303 755.031 242.082C749.463 244.862 742.288 246.725 733.506 247.672C722.901 248.816 714.022 248.097 706.871 245.516C699.885 242.916 694.183 239.005 689.764 233.782C685.328 228.393 681.906 222.309 679.498 215.528C677.073 208.581 675.283 201.314 674.13 193.727C673.142 186.123 672.43 178.74 671.993 171.579C671.538 164.252 671.081 157.68 670.621 151.862C669.84 143.062 670.654 135.85 673.065 130.226C675.624 124.418 678.989 119.864 683.159 116.565C687.477 113.082 692.059 110.492 696.905 108.796C701.751 107.1 706.154 105.955 710.113 105.36C718.179 103.987 726.533 104.511 735.176 106.932C743.819 109.353 751.191 114.76 757.293 123.154C760.426 127.342 761.556 130.825 760.682 133.601C759.956 136.194 758.247 138.222 755.555 139.686C753.029 141.132 750.375 142.172 747.594 142.807C744.813 143.443 743.008 143.805 742.179 143.894C736.877 144.466 732.736 144.158 729.759 142.971C726.946 141.765 724.853 140.231 723.479 138.367C722.252 136.32 721.55 134.468 721.371 132.811C721.228 131.486 720.671 130.205 719.699 128.968C718.876 127.549 717.857 126.653 716.644 126.281C715.596 125.891 714.581 126.587 713.6 128.369C712.784 130.133 712.304 133.454 712.16 138.331C712.074 142.196 712.287 147.285 712.801 153.6C713.462 159.731 714.25 166.268 715.167 173.209C716.065 179.985 716.928 186.43 717.754 192.543C718.747 198.639 719.541 203.666 720.135 207.625C720.878 211.401 721.249 213.288 721.249 213.288C721.249 213.288 721.548 214.513 722.148 216.963C722.913 219.395 724.092 221.782 725.686 224.125C727.446 226.45 729.743 227.543 732.578 227.405C734.75 227.339 736.335 226.497 737.334 224.881C738.481 223.081 739.196 221.159 739.479 219.117C739.909 216.892 740.127 215.024 740.132 213.515C740.119 211.84 740.112 211.003 740.112 211.003C740.112 211.003 739.958 210.349 739.649 209.041C739.506 207.715 739.76 206.179 740.41 204.433C741.042 202.521 742.621 200.842 745.147 199.396C747.655 197.784 751.653 196.767 757.139 196.343C762.625 195.919 766.783 196.392 769.613 197.763C772.425 198.969 774.362 200.604 775.422 202.669C776.465 204.568 776.993 206.355 777.006 208.03C777.185 209.687 777.274 210.516 777.274 210.516Z" fill="#9DC7FF"/>
<path d="M792.863 168.733C792.352 155.409 794.216 143.162 798.457 131.991C802.692 120.653 808.682 111.584 816.426 104.781C824.165 97.8126 832.864 94.1427 842.523 93.7718C849.685 93.4967 856.586 95.1497 863.229 98.7308C869.865 102.145 875.812 107.171 881.07 113.807C886.323 120.277 890.534 127.871 893.704 136.589C896.874 145.307 898.651 154.663 899.035 164.655C899.419 174.648 898.364 184.112 895.872 193.048C893.38 201.983 889.767 209.961 885.033 216.981C880.292 223.835 874.748 229.302 868.4 233.382C862.045 237.295 855.287 239.389 848.126 239.664C838.466 240.035 829.515 237.127 821.271 230.938C813.021 224.584 806.354 216 801.268 205.187C796.183 194.374 793.381 182.223 792.863 168.733ZM831.047 166.266C831.418 175.925 832.426 184.81 834.072 192.919C835.711 200.862 837.789 207.204 840.306 211.944C842.817 216.518 845.488 218.75 848.319 218.641C851.151 218.533 853.643 216.102 855.795 211.349C857.941 206.43 859.527 199.947 860.552 191.902C861.571 183.69 861.895 174.755 861.524 165.095C861.147 155.269 860.139 146.385 858.499 138.442C856.86 130.499 854.782 124.157 852.264 119.417C849.747 114.677 847.073 112.361 844.242 112.47C841.411 112.578 838.922 115.092 836.776 120.012C834.63 124.931 833.044 131.413 832.019 139.459C830.993 147.504 830.669 156.439 831.047 166.266Z" fill="#9DC7FF"/>
<path d="M943.64 237.668C937.479 237.396 932.854 236.357 929.764 234.553C926.84 232.755 924.927 230.752 924.023 228.544C923.12 226.335 922.705 224.398 922.778 222.733C922.852 221.068 922.889 220.235 922.889 220.235L924.676 111.709C924.676 111.709 924.63 110.872 924.537 109.2C924.444 107.528 924.861 105.628 925.789 103.5C926.725 101.205 928.561 99.2846 931.299 97.7371C934.044 96.0232 938.247 95.2912 943.908 95.5411C951.408 95.7053 957.021 97.0375 960.748 99.5376C964.482 101.871 966.881 104.229 967.943 106.612C969.18 108.835 969.798 109.947 969.798 109.947L996.216 163.414C996.216 163.414 996.948 161.945 998.412 159.006C1000.05 155.909 1001.97 152.073 1004.18 147.499C1006.55 142.933 1008.92 138.283 1011.3 133.55C1013.68 128.817 1015.77 124.739 1017.59 121.316C1019.42 117.726 1020.6 115.443 1021.15 114.466C1022.05 112.838 1023.65 110.656 1025.94 107.921C1028.24 105.019 1031.44 102.408 1035.55 100.087C1039.82 97.773 1045.29 96.6798 1051.96 96.8073C1056.96 96.8613 1060.76 97.6131 1063.37 99.0628C1065.98 100.346 1067.75 101.842 1068.68 103.551C1069.77 105.268 1070.37 106.796 1070.48 108.135C1070.58 109.474 1070.64 110.144 1070.64 110.144C1070.64 110.144 1070.54 112.309 1070.35 116.638C1070.17 120.8 1069.92 126.378 1069.61 133.371C1069.47 140.372 1069.21 148.035 1068.85 156.36C1068.48 164.685 1068.11 173.094 1067.73 181.586C1067.37 189.911 1067.03 197.57 1066.72 204.563C1066.58 211.564 1066.41 217.229 1066.22 221.558C1066.03 225.887 1065.93 228.135 1065.92 228.301C1065.91 228.468 1065.79 229.296 1065.56 230.788C1065.5 232.286 1064.84 234.009 1063.58 235.955C1062.34 237.735 1060.18 239.309 1057.12 240.675C1054.23 241.882 1049.95 242.361 1044.29 242.111C1038.63 241.861 1034.33 241.087 1031.38 239.789C1028.61 238.332 1026.67 236.829 1025.58 235.279C1024.48 233.562 1023.88 232.117 1023.76 230.945C1023.65 229.772 1023.59 229.185 1023.59 229.185C1023.59 229.185 1023.65 227.77 1023.78 224.939C1023.91 221.942 1024.07 218.279 1024.26 213.95C1024.63 209.462 1024.91 205.053 1025.1 200.724C1025.46 196.236 1025.71 192.493 1025.84 189.496C1025.98 186.499 1026.04 185 1026.04 185L1029.62 149.373L1015.41 176.523C1015.41 176.523 1014.87 177.417 1013.79 179.204C1012.87 180.999 1011.13 182.757 1008.55 184.478C1005.97 186.2 1002.18 187.033 997.177 186.979C992.341 186.933 988.541 186.098 985.777 184.474C983.186 182.691 981.341 181.025 980.242 179.475C979.316 177.766 978.854 176.911 978.854 176.911L963.931 146.474C963.931 146.474 963.926 148.475 963.917 152.479C964.08 156.323 964.189 161.416 964.243 167.758C964.304 173.933 964.347 180.525 964.371 187.533C964.403 194.374 964.366 200.879 964.26 207.047C964.329 213.056 964.365 217.896 964.37 221.566C964.338 226.069 963.268 229.525 961.16 231.935C959.059 234.177 956.654 235.74 953.946 236.621C951.245 237.336 948.809 237.729 946.637 237.8C944.639 237.712 943.64 237.668 943.64 237.668Z" fill="#9DC7FF"/>
<path d="M1096.6 119.475C1096.6 119.475 1096.52 118.793 1096.35 117.428C1096.21 115.898 1096.51 114.172 1097.26 112.251C1098.17 110.35 1099.89 108.719 1102.41 107.357C1105.1 106.016 1109.12 105.432 1114.48 105.603C1119.83 105.774 1125.83 106.112 1132.49 106.615C1139.31 107.14 1145.8 107.623 1151.96 108.063C1158.29 108.525 1163.45 108.924 1167.43 109.259C1171.42 109.594 1173.42 109.762 1173.42 109.762C1173.42 109.762 1174.48 109.98 1176.61 110.417C1178.93 110.709 1181.53 111.373 1184.42 112.41C1187.5 113.302 1190.18 114.732 1192.45 116.698C1194.74 118.499 1195.95 120.919 1196.07 123.958C1196.19 126.997 1195.32 129.239 1193.46 130.684C1191.6 132.129 1189.46 133.119 1187.04 133.654C1184.64 134.023 1182.52 134.176 1180.68 134.112C1178.84 134.048 1177.92 134.016 1177.92 134.016L1137.95 131.242C1137.95 131.242 1138.06 132.349 1138.29 134.561C1138.51 136.773 1138.7 139.316 1138.84 142.189C1139.17 144.919 1139.29 147.286 1139.2 149.291C1139.14 151.131 1139 153.549 1138.79 156.546C1138.6 159.378 1138.44 161.962 1138.32 164.298C1138.21 166.469 1138.16 167.554 1138.16 167.554L1156.51 169.869C1156.51 169.869 1157.41 170.066 1159.21 170.461C1161.03 170.691 1163.06 171.282 1165.29 172.235C1167.7 173.044 1169.75 174.142 1171.42 175.529C1173.1 176.916 1173.87 178.777 1173.74 181.113C1173.53 184.111 1172.09 186.197 1169.43 187.372C1166.92 188.568 1164.32 189.248 1161.61 189.41C1159.09 189.428 1157.48 189.478 1156.8 189.56C1156.31 189.497 1154.97 189.413 1152.8 189.307C1150.65 189.036 1148.26 188.734 1145.61 188.4C1143.13 188.087 1140.9 187.806 1138.91 187.555C1136.93 187.305 1135.94 187.18 1135.94 187.18C1135.94 187.18 1135.78 188.42 1135.47 190.9C1135.34 193.236 1135.16 195.985 1134.93 199.148C1134.7 202.311 1134.36 205.039 1133.9 207.333C1133.63 209.483 1133.21 212.118 1132.65 215.239C1132.11 218.195 1131.61 220.819 1131.15 223.114C1130.72 225.242 1130.5 226.307 1130.5 226.307L1164.14 229.29C1164.14 229.29 1165.21 229.426 1167.36 229.697C1169.53 229.803 1172.08 230.291 1174.99 231.163C1177.9 232.034 1180.42 233.36 1182.55 235.14C1184.68 236.92 1185.64 239.309 1185.43 242.306C1185.38 245.325 1184.25 247.618 1182.04 249.187C1179.83 250.755 1177.34 251.786 1174.59 252.279C1171.84 252.772 1169.37 253.049 1167.18 253.108C1165.18 253.023 1164.17 252.981 1164.17 252.981L1110.25 248.952C1110.25 248.952 1108.93 248.785 1106.29 248.451C1103.78 248.304 1100.91 247.773 1097.67 246.86C1094.44 245.781 1091.71 244.176 1089.45 242.045C1087.22 239.747 1086.44 236.625 1087.11 232.677C1088.11 227.428 1089.48 219.201 1091.23 207.999C1093 196.631 1094.51 183.299 1095.77 168.003C1097.03 152.707 1097.3 136.531 1096.6 119.475Z" fill="#9DC7FF"/>
<path d="M1329.21 166.048C1327.03 165.863 1323.97 165.383 1320.05 164.606C1316.16 163.667 1312.25 162.466 1308.31 161.002C1304.38 159.538 1301.11 157.806 1298.51 155.806C1295.94 153.644 1294.83 151.146 1295.17 148.314C1295.68 145.521 1297.02 143.529 1299.19 142.339C1301.52 141.188 1304.09 140.521 1306.87 140.337C1309.7 139.99 1312.11 139.971 1314.09 140.278C1316.27 140.463 1317.36 140.555 1317.36 140.555L1386.94 150.665C1386.94 150.665 1388.07 150.939 1390.34 151.486C1392.64 151.872 1395.22 152.579 1398.06 153.607C1401.06 154.674 1403.61 156.149 1405.73 158.032C1407.89 159.753 1408.73 161.929 1408.27 164.56C1407.97 167.231 1406.63 169.222 1404.26 170.535C1402.08 171.725 1399.56 172.574 1396.7 173.082C1393.87 173.428 1391.43 173.61 1389.36 173.626C1387.34 173.481 1386.33 173.408 1386.33 173.408L1370.19 172.084C1369.86 176.29 1369.2 182.218 1368.21 189.866C1367.26 197.352 1366.12 205.648 1364.78 214.754C1363.43 223.861 1362.05 232.785 1360.63 241.528C1359.2 250.271 1357.83 258.084 1356.51 264.967C1355.35 271.889 1354.42 276.808 1353.72 279.724C1352.82 283.45 1351.08 286.031 1348.51 287.467C1346.13 288.78 1343.47 289.509 1340.52 289.654C1337.77 289.676 1335.32 289.514 1333.18 289.167C1331.23 288.698 1330.26 288.463 1330.26 288.463C1330.26 288.463 1329.21 288.209 1327.1 287.7C1325.04 287.03 1322.76 285.795 1320.28 283.996C1317.96 282.236 1316.12 279.563 1314.76 275.976C1313.56 272.429 1313.7 267.576 1315.19 261.42C1316.52 255.912 1317.82 249.11 1319.09 241.015C1320.52 232.959 1321.84 224.621 1323.07 216.001C1324.33 207.219 1325.36 199.065 1326.14 191.54C1327.09 184.054 1327.79 177.964 1328.24 173.271C1328.89 168.456 1329.21 166.048 1329.21 166.048Z" fill="#9DC7FF"/>
<path d="M1414.62 234.902C1418.68 222.202 1424.61 211.323 1432.4 202.266C1440.25 193.051 1448.97 186.565 1458.57 182.809C1468.22 178.895 1477.65 178.409 1486.86 181.352C1493.68 183.534 1499.61 187.441 1504.63 193.071C1509.71 198.543 1513.59 205.294 1516.27 213.325C1519 221.198 1520.37 229.772 1520.38 239.049C1520.39 248.325 1518.87 257.726 1515.83 267.252C1512.78 276.777 1508.57 285.315 1503.18 292.866C1497.79 300.418 1491.68 306.687 1484.83 311.673C1478.04 316.501 1470.97 319.751 1463.61 321.424C1456.3 322.937 1449.23 322.603 1442.41 320.421C1433.2 317.478 1425.77 311.693 1420.13 303.066C1414.54 294.28 1411.2 283.937 1410.1 272.039C1409.01 260.14 1410.51 247.761 1414.62 234.902ZM1451.36 245.596C1448.42 254.803 1446.34 263.5 1445.12 271.684C1443.96 279.711 1443.75 286.381 1444.5 291.695C1445.3 296.851 1447.05 299.86 1449.75 300.722C1452.45 301.585 1455.62 300.149 1459.27 296.414C1462.96 292.521 1466.66 286.967 1470.36 279.753C1474.12 272.38 1477.47 264.089 1480.41 254.882C1483.41 245.515 1485.49 236.819 1486.65 228.793C1487.82 220.767 1488.03 214.096 1487.28 208.782C1486.52 203.468 1484.8 200.379 1482.1 199.517C1479.4 198.654 1476.21 200.169 1472.51 204.063C1468.82 207.956 1465.12 213.51 1461.41 220.724C1457.71 227.939 1454.36 236.229 1451.36 245.596Z" fill="#9DC7FF"/>
<path d="M90.7947 631.857C90.7947 631.857 89.4371 629.948 86.722 626.129C84.1509 622.227 80.7423 617.27 76.4961 611.257C72.3941 605.161 67.96 598.68 63.1938 591.813C58.3409 584.805 53.7048 578.152 49.2853 571.854C44.9232 565.331 41.3267 559.905 38.4955 555.576C35.5778 551.104 33.8588 548.441 33.3388 547.587C32.1535 545 31.1995 542.952 30.4768 541.445C29.8116 539.712 29.882 538.225 30.6881 536.986C31.2927 536.057 31.1622 535.362 30.2965 534.901C29.5749 534.357 28.9394 533.473 28.3901 532.251C27.9849 530.944 28.6892 528.897 30.503 526.109C31.9137 523.94 34.2172 520.674 37.4135 516.311C40.6673 511.723 45.0457 507.059 50.5488 502.319C56.0519 497.58 62.7674 493.87 70.6953 491.191C78.5365 488.369 87.7066 487.569 98.2056 488.792C105.359 489.646 110.653 491.773 114.089 495.173C117.582 498.347 119.879 502.119 120.98 506.49C121.994 510.719 122.33 514.956 121.989 519.201C121.561 523.304 120.93 526.754 120.097 529.551C119.408 532.264 119.063 533.621 119.063 533.621C119.063 533.621 120.289 533.391 122.74 532.93C125.19 532.47 128.334 532.185 132.169 532.076C136.149 531.884 140.475 532.26 145.148 533.207C149.735 534.011 154.207 535.748 158.565 538.42C163.066 541.007 166.95 544.821 170.214 549.862C175.79 558.379 177.386 567.087 175.002 575.988C172.762 584.806 167.465 593.569 159.112 602.278C150.815 610.76 140.182 618.769 127.213 626.306C119.72 630.66 113.609 633.44 108.88 634.646C104.152 635.851 100.446 636.174 97.7637 635.613C95.081 635.052 93.2488 634.285 92.2672 633.314C91.2855 632.343 90.7947 631.857 90.7947 631.857ZM63.5066 523.12C63.5066 523.12 64.2 524.258 65.5868 526.536C67.0311 528.588 68.6633 531.108 70.4836 534.098C72.4479 537.003 74.2822 539.695 75.9865 542.174C77.7482 544.427 78.9466 545.754 79.5815 546.156C80.2164 546.558 81.1385 545.829 82.3476 543.97C83.5568 542.111 84.5781 539.784 85.4113 536.987C86.3019 533.964 86.6303 530.979 86.3963 528.031C86.2197 524.857 85.2218 522.257 83.4027 520.231C79.6202 516.262 75.9272 514.842 72.3235 515.973C68.7198 517.103 65.7808 519.485 63.5066 523.12ZM98.4258 569.896L121.522 604.463C121.522 604.463 122.53 603.876 124.548 602.704C126.565 601.532 128.885 599.895 131.507 597.793C134.129 595.691 136.376 593.133 138.247 590.119C140.262 587.02 141.239 583.658 141.177 580.033C141.173 576.181 139.409 572.002 135.886 567.497C132.362 562.992 128.826 560.229 125.278 559.207C121.787 557.959 118.384 557.817 115.068 558.78C111.897 559.659 109.029 561.036 106.464 562.912C103.957 564.562 102.012 566.174 100.63 567.748C99.1604 569.18 98.4258 569.896 98.4258 569.896Z" fill="#9DC7FF"/>
<path d="M141.907 472.64C141.907 472.64 141.455 472.119 140.55 471.076C139.57 469.885 138.85 468.289 138.393 466.289C138.085 464.215 138.602 461.926 139.945 459.421C141.437 456.843 144.468 454.166 149.039 451.389C153.609 448.613 158.816 445.619 164.661 442.409C170.656 439.125 176.351 435.987 181.747 432.995C187.292 429.93 191.826 427.45 195.348 425.553C198.87 423.656 200.631 422.708 200.631 422.708C200.631 422.708 201.643 422.309 203.668 421.51C205.766 420.491 208.316 419.622 211.317 418.905C214.392 417.967 217.432 417.694 220.437 418.086C223.366 418.331 225.736 419.68 227.547 422.135C229.358 424.59 229.892 426.924 229.149 429.138C228.406 431.351 227.174 433.339 225.454 435.102C223.658 436.716 221.973 437.997 220.399 438.947C218.826 439.897 218.039 440.372 218.039 440.372L183.083 459.858C183.083 459.858 183.799 460.715 185.232 462.427C186.665 464.139 188.249 466.148 189.984 468.455C191.794 470.54 193.227 472.437 194.284 474.147C195.266 475.707 196.513 477.788 198.024 480.389C199.459 482.841 200.781 485.07 201.99 487.077C203.123 488.935 203.689 489.864 203.689 489.864L220.329 481.778C220.329 481.778 221.191 481.452 222.916 480.799C224.565 479.998 226.59 479.385 228.991 478.959C231.467 478.312 233.793 478.108 235.972 478.346C238.15 478.584 239.844 479.707 241.052 481.713C242.563 484.314 242.535 486.829 240.967 489.258C239.549 491.615 237.754 493.598 235.582 495.209C233.485 496.599 232.174 497.514 231.65 497.954C231.2 498.172 230.039 498.829 228.166 499.925C226.217 500.872 224.043 501.928 221.645 503.093C219.396 504.186 217.373 505.169 215.574 506.043C213.775 506.917 212.875 507.354 212.875 507.354C212.875 507.354 213.442 508.468 214.577 510.696C215.785 512.703 217.183 515.08 218.77 517.829C220.356 520.579 221.604 523.029 222.513 525.181C223.496 527.112 224.631 529.525 225.918 532.42C227.129 535.166 228.189 537.615 229.098 539.767C229.931 541.771 230.348 542.773 230.348 542.773L260.137 526.909C260.137 526.909 261.111 526.435 263.06 525.488C264.933 524.393 267.332 523.413 270.258 522.547C273.183 521.681 276.035 521.407 278.814 521.724C281.594 522.041 283.739 523.5 285.25 526.1C286.911 528.628 287.258 531.146 286.291 533.654C285.324 536.162 283.83 538.369 281.81 540.278C279.789 542.186 277.88 543.762 276.083 545.006C274.36 546.028 273.498 546.539 273.498 546.539L226.176 572.59C226.176 572.59 224.976 573.173 222.578 574.338C220.405 575.579 217.706 576.706 214.481 577.717C211.18 578.58 207.99 578.74 204.909 578.199C201.753 577.51 199.343 575.346 197.678 571.709C195.558 566.81 192.076 559.238 187.234 548.993C182.316 538.599 176.078 526.716 168.522 513.343C160.965 499.97 152.093 486.403 141.907 472.64Z" fill="#9DC7FF"/>
<path d="M309.083 519.07L256.42 422.733C256.42 422.733 255.995 422.364 255.145 421.626C254.451 420.827 253.86 419.627 253.373 418.027C252.885 416.428 253.063 414.473 253.905 412.165C254.903 409.795 257.125 407.116 260.573 404.128C265.158 399.97 270.833 395.827 277.596 391.698C284.451 387.354 292.11 383.855 300.573 381.202C309.191 378.487 318.425 377.68 328.274 378.78C334.101 379.329 339.138 381.448 343.386 385.138C347.635 388.827 351.082 393.194 353.729 398.238C356.376 403.283 358.462 408.282 359.988 413.235C361.668 418.126 362.763 422.264 363.272 425.649C363.937 428.972 364.269 430.633 364.269 430.633C364.269 430.633 364.208 432.003 364.087 434.741C363.966 437.48 362.967 440.927 361.09 445.083C359.304 449.023 355.899 452.98 350.876 456.954L398.588 479.118C398.588 479.118 399.387 479.518 400.984 480.316C402.581 481.115 404.075 482.314 405.465 483.913C406.945 485.297 407.528 487.127 407.215 489.405C406.992 491.467 405.047 493.945 401.379 496.841C397.558 499.798 393.815 501.647 390.152 502.389C386.643 503.068 383.516 503.148 380.771 502.627C378.18 502.044 376.086 501.354 374.489 500.555C372.892 499.756 372.093 499.357 372.093 499.357L325.741 473.96L346.981 503.438C346.981 503.438 347.425 504.069 348.312 505.33C349.135 506.437 349.59 507.96 349.677 509.898C349.764 511.837 348.857 513.992 346.958 516.363C344.994 518.58 341.302 520.768 335.883 522.926C330.463 525.084 325.949 526.165 322.338 526.168C318.883 526.109 316.183 525.48 314.238 524.282C312.293 523.083 310.909 521.93 310.086 520.823C309.418 519.654 309.083 519.07 309.083 519.07ZM289.072 409.46L313.999 453.614C313.999 453.614 314.883 453.351 316.65 452.827C318.573 452.241 320.676 451.223 322.961 449.775C325.401 448.266 327.429 446.202 329.045 443.585C330.752 440.753 331.61 437.183 331.618 432.875C331.561 428.413 329.921 422.967 326.696 416.538C323.6 410.417 320.436 406.296 317.203 404.176C313.906 401.901 310.627 400.965 307.364 401.368C304.037 401.616 300.844 402.619 297.785 404.376C294.661 405.978 291.757 407.673 289.072 409.46Z" fill="#9DC7FF"/>
<path d="M427.271 474.017L377.747 366.65C377.747 366.65 377.487 366.12 376.965 365.061C376.392 363.843 376.14 362.263 376.207 360.322C376.274 358.381 377.269 356.326 379.19 354.156C381.218 351.778 384.86 349.509 390.115 347.348C395.37 345.186 399.636 344.293 402.914 344.668C406.351 344.993 409.017 345.908 410.911 347.413C412.804 348.917 414.09 350.437 414.766 351.972C415.602 353.457 416.019 354.199 416.019 354.199L431.712 389.37L440.639 341.814C440.639 341.814 441.016 340.824 441.772 338.843C442.476 336.703 444.212 334.504 446.981 332.245C449.749 329.986 454.019 328.567 459.792 327.991C465.723 327.364 469.954 327.704 472.484 329.01C475.014 330.316 476.482 332.128 476.888 334.445C477.454 336.713 477.436 339.075 476.836 341.531C476.454 343.047 475.718 345.894 474.629 350.074C473.539 354.254 472.207 359.033 470.633 364.411C469.217 369.74 467.829 374.885 466.47 379.847C465.11 384.81 463.941 389.014 462.962 392.461C462.092 395.7 461.656 397.319 461.656 397.319L519.161 434.908C519.161 434.908 519.897 435.551 521.369 436.838C522.79 437.966 523.916 439.535 524.747 441.546C525.527 443.397 524.982 445.487 523.113 447.815C521.403 450.094 517.337 452.408 510.917 454.758C504.604 456.9 499.228 457.615 494.788 456.904C490.296 456.034 486.839 454.843 484.416 453.328C482.101 451.606 480.943 450.745 480.943 450.745L451.116 427.049L466.57 462.294C466.57 462.294 466.777 462.928 467.19 464.195C467.604 465.463 467.593 467.037 467.155 468.919C466.877 470.751 465.592 472.723 463.301 474.833C461.01 476.944 457.239 478.817 451.988 480.453C446.737 482.09 442.473 482.72 439.195 482.346C435.917 481.971 433.357 481.11 431.514 479.764C429.832 478.368 428.704 477.062 428.131 475.844C427.558 474.626 427.271 474.017 427.271 474.017Z" fill="#9DC7FF"/>
<path d="M509.434 331.063C509.434 331.063 509.113 330.453 508.473 329.233C507.794 327.851 507.461 326.131 507.475 324.075C507.652 321.981 508.679 319.86 510.558 317.713C512.599 315.528 516.158 313.589 521.234 311.896C526.311 310.204 532.057 308.441 538.472 306.609C545.049 304.739 551.302 302.944 557.23 301.225C563.32 299.468 568.293 298.056 572.15 296.989C576.007 295.922 577.935 295.388 577.935 295.388C577.935 295.388 579.01 295.224 581.16 294.896C583.433 294.368 586.109 294.088 589.189 294.057C592.392 293.826 595.408 294.238 598.237 295.292C601.027 296.183 603.021 298.03 604.217 300.832C605.414 303.634 605.397 306.033 604.168 308.029C602.939 310.026 601.286 311.693 599.211 313.03C597.096 314.206 595.165 315.082 593.418 315.659C591.672 316.236 590.799 316.524 590.799 316.524L552.369 327.762C552.369 327.762 552.868 328.758 553.868 330.75C554.867 332.742 555.946 335.058 557.103 337.697C558.383 340.138 559.341 342.31 559.976 344.216C560.572 345.96 561.306 348.27 562.178 351.147C563.01 353.862 563.783 356.335 564.498 358.564C565.172 360.632 565.51 361.665 565.51 361.665L583.53 357.479C583.53 357.479 584.443 357.353 586.268 357.1C588.054 356.685 590.162 356.538 592.592 356.657C595.146 356.577 597.453 356.897 599.515 357.616C601.577 358.334 602.965 359.808 603.679 362.038C604.551 364.915 603.946 367.365 601.866 369.388C599.948 371.374 597.749 372.911 595.27 374C592.914 374.89 591.431 375.491 590.821 375.804C590.334 375.917 589.055 376.3 586.984 376.952C584.873 377.442 582.519 377.989 579.922 378.592C577.486 379.158 575.295 379.667 573.347 380.12C571.399 380.572 570.424 380.798 570.424 380.798C570.424 380.798 570.72 382.013 571.311 384.442C572.026 386.671 572.838 389.306 573.75 392.345C574.661 395.384 575.311 398.056 575.701 400.361C576.213 402.466 576.763 405.076 577.35 408.19C577.897 411.143 578.365 413.772 578.755 416.077C579.105 418.219 579.28 419.291 579.28 419.291L611.859 410.44C611.859 410.44 612.914 410.194 615.024 409.704C617.096 409.052 619.651 408.629 622.692 408.436C625.732 408.243 628.566 408.612 631.194 409.541C633.821 410.47 635.571 412.374 636.443 415.251C637.477 418.09 637.237 420.627 635.723 422.861C634.208 425.095 632.251 426.918 629.85 428.331C627.45 429.744 625.234 430.858 623.202 431.672C621.293 432.287 620.339 432.594 620.339 432.594L568.39 447.485C568.39 447.485 567.091 447.787 564.494 448.39C562.098 449.118 559.218 449.616 555.852 449.884C552.448 449.991 549.311 449.436 546.442 448.22C543.534 446.843 541.688 444.192 540.905 440.268C539.968 435.01 538.322 426.838 535.966 415.751C533.571 404.502 530.235 391.503 525.959 376.756C521.683 362.008 516.175 346.777 509.434 331.063Z" fill="#9DC7FF"/>
<path d="M699.765 385.723C699.929 385.697 701.411 385.464 704.21 385.023C706.981 384.417 710.425 383.79 714.541 383.142C718.63 382.329 722.65 381.611 726.601 380.989C730.69 380.176 734.134 379.549 736.932 379.108C739.704 378.502 741.09 378.2 741.09 378.2C741.09 378.2 741.995 378.057 743.806 377.772C745.617 377.486 747.812 377.478 750.39 377.747C752.941 377.851 755.271 378.665 757.381 380.188C759.655 381.686 761.187 384.313 761.976 388.069C762.738 391.661 762.143 394.707 760.191 397.208C758.377 399.518 755.973 401.331 752.981 402.646C750.126 403.771 747.477 404.61 745.035 405.163C742.757 405.691 741.618 405.955 741.618 405.955C741.618 405.955 739.917 406.392 736.514 407.265C733.248 407.949 728.953 409.047 723.629 410.561C718.304 412.075 712.527 413.913 706.296 416.076C700.038 418.074 694.082 420.362 688.426 422.94C682.771 425.519 677.927 426.872 673.894 427.002C670.053 427.269 666.954 426.914 664.596 425.936C662.212 424.793 660.403 423.559 659.171 422.235C658.077 420.72 657.489 419.716 657.407 419.223C657.052 418.098 657.151 416.648 657.703 414.874C658.227 412.936 659.588 411.456 661.784 410.435C662.58 410.141 662.611 407.774 661.878 403.334C661.118 398.73 659.825 392.944 657.999 385.977C656.311 378.819 654.28 371.125 651.908 362.894C649.536 354.663 647.012 346.541 644.337 338.526C641.828 330.486 639.467 323.35 637.256 317.118C635.044 310.886 633.105 306.299 631.436 303.356C629.003 298.847 628.227 295.173 629.11 292.334C629.993 289.496 631.491 287.319 633.606 285.805C635.859 284.101 637.945 282.928 639.867 282.288C641.953 281.622 642.996 281.289 642.996 281.289C642.996 281.289 644.052 281.038 646.165 280.536C648.416 279.844 651.077 279.594 654.149 279.785C657.359 279.785 660.471 280.729 663.485 282.616C666.637 284.313 669.21 287.619 671.204 292.535C673.799 299.044 676.844 306.747 680.34 315.644C683.973 324.351 687.508 334.508 690.945 346.114C694.546 357.695 697.486 370.897 699.765 385.723Z" fill="#9DC7FF"/>
<path d="M760 284.381C760 284.381 759.775 283.731 759.325 282.431C758.861 280.965 758.789 279.215 759.111 277.181C759.599 275.132 760.932 273.18 763.109 271.323C765.453 269.452 769.261 268.043 774.531 267.095C779.801 266.148 785.743 265.227 792.356 264.333C799.136 263.426 805.583 262.546 811.699 261.694C817.98 260.828 823.106 260.144 827.077 259.641C831.048 259.138 833.034 258.886 833.034 258.886C833.034 258.886 834.121 258.878 836.295 258.861C838.62 258.665 841.306 258.772 844.354 259.183C847.554 259.414 850.473 260.255 853.111 261.704C855.735 262.988 857.428 265.102 858.191 268.049C858.954 270.995 858.579 273.368 857.065 275.169C855.551 276.969 853.669 278.383 851.417 279.41C849.151 280.27 847.112 280.861 845.3 281.182C843.488 281.502 842.582 281.662 842.582 281.662L802.923 287.274C802.923 287.274 803.267 288.332 803.957 290.448C804.646 292.565 805.365 295.013 806.114 297.793C807.013 300.393 807.634 302.682 807.977 304.66C808.305 306.472 808.684 308.865 809.115 311.84C809.531 314.648 809.926 317.207 810.298 319.517C810.655 321.661 810.834 322.734 810.834 322.734L829.268 321.175C829.268 321.175 830.189 321.18 832.03 321.192C833.857 321.037 835.962 321.194 838.346 321.661C840.881 321.949 843.114 322.596 845.044 323.604C846.973 324.611 848.124 326.27 848.496 328.58C848.927 331.555 847.963 333.894 845.605 335.599C843.412 337.29 841.009 338.497 838.396 339.219C835.935 339.762 834.379 340.144 833.729 340.367C833.231 340.409 831.91 340.604 829.766 340.953C827.607 341.135 825.199 341.339 822.541 341.564C820.05 341.774 817.808 341.964 815.815 342.133C813.823 342.301 812.826 342.385 812.826 342.385C812.826 342.385 812.936 343.631 813.157 346.121C813.529 348.431 813.938 351.156 814.384 354.296C814.829 357.437 815.072 360.176 815.112 362.514C815.303 364.672 815.455 367.336 815.569 370.504C815.668 373.506 815.737 376.177 815.777 378.515C815.802 380.687 815.815 381.773 815.815 381.773L849.334 377.684C849.334 377.684 850.414 377.593 852.573 377.41C854.717 377.062 857.306 377.01 860.339 377.255C863.373 377.5 866.118 378.272 868.576 379.569C871.033 380.867 872.477 383.003 872.908 385.977C873.505 388.937 872.888 391.415 871.057 393.409C869.226 395.404 867.019 396.929 864.435 397.984C861.851 399.038 859.495 399.823 857.365 400.338C855.387 400.672 854.398 400.84 854.398 400.84L800.833 408.129C800.833 408.129 799.504 408.242 796.847 408.466C794.371 408.843 791.45 408.923 788.084 408.706C784.704 408.323 781.687 407.323 779.034 405.708C776.367 403.926 774.939 401.036 774.752 397.038C774.614 391.697 774.21 383.368 773.542 372.051C772.859 360.568 771.508 347.218 769.491 332C767.473 316.783 764.309 300.91 760 284.381Z" fill="#9DC7FF"/>
<path d="M898.788 254.48C898.788 254.48 900.202 254.295 903.031 253.925C905.859 253.556 909.198 253.93 913.047 255.047C917.062 256.163 920.516 258.952 923.41 263.415C925.281 266.225 927.16 269.618 929.047 273.594C931.098 277.401 932.899 281.212 934.451 285.026C936.169 288.837 937.544 291.987 938.578 294.474C939.611 296.961 940.128 298.204 940.128 298.204L954.637 261.515C954.637 261.515 955.21 260.758 956.357 259.243C957.67 257.726 959.734 256.283 962.549 254.914C965.531 253.542 969.607 252.99 974.778 253.257C989.957 254.063 995.604 258.741 991.718 267.291C990.907 268.968 989.449 272.071 987.342 276.598C985.234 280.959 982.8 285.907 980.041 291.443C977.446 296.81 974.85 302.093 972.253 307.294C969.822 312.492 967.796 316.768 966.174 320.123C964.552 323.477 963.741 325.154 963.741 325.154L965.809 386.133C965.809 386.133 965.82 386.883 965.84 388.382C966.024 389.713 965.713 391.384 964.907 393.395C964.098 395.239 962.371 396.927 959.724 398.461C957.076 399.829 953.002 400.548 947.502 400.618C940.169 400.712 934.74 399.781 931.213 397.826C927.853 395.869 925.741 393.729 924.877 391.407C924.01 388.918 923.569 387.09 923.553 385.923C923.544 385.257 923.427 382.758 923.202 378.427C923.144 374.094 923.076 369.011 922.998 363.179C922.92 357.346 922.758 351.514 922.513 345.683C922.435 339.851 922.287 335.019 922.069 331.188C922.017 327.355 921.992 325.438 921.992 325.438L888.033 272.869C888.033 272.869 887.523 272.125 886.503 270.638C885.483 269.151 884.793 267.41 884.433 265.414C884.237 263.25 885.126 261.155 887.099 259.13C889.072 257.104 892.968 255.554 898.788 254.48Z" fill="#9DC7FF"/>
<path d="M1165.89 315.245C1159.48 314.098 1154.97 312.306 1152.38 309.868C1149.96 307.446 1148.59 305.299 1148.28 303.426C1148 301.387 1147.85 300.368 1147.85 300.368C1147.85 300.368 1147.81 299.191 1147.72 296.837C1147.63 294.483 1147.05 292.079 1145.96 289.625C1144.88 287.172 1142.69 285.695 1139.39 285.197C1136.92 284.781 1134.78 286.073 1132.95 289.072C1131.15 291.906 1129.56 295.85 1128.19 300.905C1126.82 305.96 1125.64 311.621 1124.64 317.886C1123.83 324.002 1123.09 330.209 1122.43 336.508C1121.72 344.812 1121.29 352.893 1121.14 360.75C1121.16 368.457 1121.84 374.806 1123.15 379.796C1124.64 384.803 1127.12 387.481 1130.6 387.831C1133.26 388.097 1135.37 387.137 1136.94 384.95C1138.53 382.597 1139.64 379.945 1140.29 376.995C1141.1 374.061 1141.63 371.434 1141.87 369.114C1142.12 366.793 1142.24 365.633 1142.24 365.633C1142.24 365.633 1141.24 365.616 1139.23 365.582C1137.39 365.564 1135.52 365.041 1133.61 364.013C1131.73 362.818 1130.95 360.646 1131.28 357.497C1131.63 354.182 1132.53 352.011 1133.98 350.984C1135.59 349.974 1137.07 349.452 1138.42 349.42C1139.93 349.404 1140.68 349.396 1140.68 349.396L1162.32 351.569C1162.32 351.569 1163.4 351.677 1165.56 351.894C1167.71 352.11 1170.16 352.775 1172.89 353.886C1175.64 354.832 1177.98 356.408 1179.93 358.614C1181.9 360.654 1182.76 363.588 1182.52 367.417C1181.88 376.732 1179.74 384.306 1176.11 390.14C1172.5 395.807 1167.86 400.114 1162.18 403.062C1156.68 406.027 1150.61 407.93 1143.99 408.773C1137.54 409.466 1131.01 409.479 1124.37 408.813C1117.74 408.147 1111.56 406.354 1105.83 403.434C1100.11 400.514 1095.23 395.92 1091.2 389.652C1087.18 383.219 1084.23 374.631 1082.34 363.889C1080.62 353.164 1080.44 339.746 1081.8 323.634C1082.83 310.672 1085.18 300.272 1088.86 292.433C1092.53 284.595 1096.84 278.662 1101.79 274.637C1106.74 270.611 1111.71 267.928 1116.72 266.588C1121.9 265.098 1126.51 264.305 1130.54 264.207C1134.57 264.11 1137.43 264.061 1139.1 264.062C1141.11 264.096 1144.33 264.587 1148.75 265.534C1153.18 266.48 1157.86 268.124 1162.81 270.463C1167.78 272.637 1172.23 275.681 1176.18 279.594C1180.29 283.525 1183.12 288.499 1184.67 294.517C1186.21 300.535 1186.15 305.051 1184.5 308.068C1182.86 310.918 1180.56 312.864 1177.6 313.907C1174.64 314.95 1171.91 315.43 1169.4 315.346C1167.06 315.278 1165.89 315.245 1165.89 315.245Z" fill="#9DC7FF"/>
<path d="M1202.64 344.21C1205.02 331.091 1209.5 319.519 1216.06 309.494C1222.66 299.305 1230.48 291.696 1239.52 286.667C1248.6 281.475 1257.89 279.705 1267.42 281.357C1274.48 282.581 1280.87 285.634 1286.59 290.517C1292.34 295.235 1297.07 301.383 1300.77 308.96C1304.5 316.374 1306.98 324.668 1308.19 333.843C1309.4 343.019 1309.11 352.526 1307.33 362.364C1305.54 372.203 1302.46 381.226 1298.09 389.433C1293.72 397.64 1288.46 404.678 1282.31 410.547C1276.19 416.252 1269.59 420.435 1262.5 423.095C1255.44 425.592 1248.38 426.229 1241.32 425.004C1231.79 423.352 1223.67 418.645 1216.95 410.883C1210.26 402.957 1205.6 393.184 1202.97 381.564C1200.33 369.943 1200.23 357.492 1202.64 344.21ZM1240.51 349.762C1238.78 359.272 1237.84 368.159 1237.69 376.422C1237.58 384.521 1238.24 391.148 1239.67 396.302C1241.14 401.292 1243.26 404.029 1246.06 404.513C1248.85 404.997 1251.81 403.143 1254.94 398.95C1258.11 394.594 1261.06 388.594 1263.8 380.95C1266.58 373.143 1268.83 364.484 1270.56 354.973C1272.32 345.298 1273.25 336.411 1273.37 328.312C1273.49 320.213 1272.83 313.587 1271.39 308.433C1269.96 303.279 1267.84 300.459 1265.05 299.975C1262.26 299.491 1259.28 301.427 1256.12 305.784C1252.96 310.141 1250 316.141 1247.26 323.784C1244.51 331.428 1242.26 340.087 1240.51 349.762Z" fill="#9DC7FF"/>
<path d="M1410.9 362.238C1404.71 360.187 1400.52 357.772 1398.32 354.993C1396.27 352.253 1395.24 349.936 1395.22 348.041C1395.24 345.985 1395.25 344.957 1395.25 344.957C1395.25 344.957 1395.38 343.788 1395.64 341.449C1395.91 339.111 1395.69 336.652 1394.98 334.072C1394.27 331.493 1392.32 329.721 1389.13 328.756C1386.75 327.992 1384.43 328.962 1382.17 331.665C1379.96 334.207 1377.8 337.877 1375.69 342.677C1373.58 347.476 1371.57 352.9 1369.65 358.949C1367.93 364.876 1366.28 370.905 1364.68 377.034C1362.75 385.139 1361.12 393.062 1359.79 400.804C1358.67 408.424 1358.39 414.794 1358.95 419.914C1359.67 425.073 1361.73 428.075 1365.13 428.918C1367.72 429.561 1369.95 428.914 1371.84 426.977C1373.76 424.879 1375.26 422.419 1376.34 419.596C1377.58 416.813 1378.49 414.292 1379.08 412.034C1379.67 409.776 1379.96 408.647 1379.96 408.647C1379.96 408.647 1378.97 408.487 1376.99 408.166C1375.17 407.885 1373.39 407.101 1371.66 405.812C1369.97 404.363 1369.53 402.105 1370.32 399.041C1371.16 395.815 1372.38 393.798 1373.96 392.99C1375.71 392.223 1377.26 391.919 1378.59 392.079C1380.09 392.279 1380.84 392.38 1380.84 392.38L1401.95 397.622C1401.95 397.622 1403 397.883 1405.1 398.405C1407.2 398.927 1409.53 399.933 1412.07 401.422C1414.65 402.751 1416.74 404.643 1418.34 407.101C1419.98 409.398 1420.4 412.421 1419.59 416.171C1417.57 425.284 1414.32 432.463 1409.86 437.707C1405.43 442.791 1400.19 446.384 1394.14 448.485C1388.24 450.627 1381.95 451.641 1375.26 451.526C1368.78 451.29 1362.3 450.368 1355.83 448.761C1349.36 447.154 1343.51 444.499 1338.28 440.795C1333.04 437.09 1328.89 431.853 1325.83 425.083C1322.81 418.152 1321.17 409.244 1320.9 398.359C1320.8 387.515 1322.62 374.229 1326.37 358.503C1329.32 345.842 1333.2 335.901 1338 328.681C1342.81 321.46 1347.96 316.215 1353.46 312.944C1358.97 309.674 1364.29 307.734 1369.44 307.125C1374.8 306.394 1379.48 306.269 1383.49 306.75C1387.5 307.23 1390.33 307.59 1391.99 307.83C1393.97 308.151 1397.09 309.096 1401.33 310.664C1405.57 312.233 1409.97 314.527 1414.52 317.546C1419.11 320.405 1423.07 324.049 1426.4 328.481C1429.88 332.953 1431.94 338.273 1432.58 344.44C1433.21 350.608 1432.48 355.063 1430.39 357.806C1428.34 360.388 1425.77 361.983 1422.69 362.59C1419.6 363.198 1416.83 363.281 1414.36 362.84C1412.05 362.439 1410.9 362.238 1410.9 362.238Z" fill="#9DC7FF"/>
<path d="M1529.19 398.385C1523.17 395.9 1519.17 393.194 1517.17 390.266C1515.34 387.39 1514.48 385.007 1514.59 383.117C1514.76 381.07 1514.85 380.046 1514.85 380.046C1514.85 380.046 1515.07 378.89 1515.5 376.578C1515.94 374.267 1515.9 371.8 1515.38 369.179C1514.87 366.558 1513.05 364.653 1509.94 363.464C1507.61 362.532 1505.23 363.333 1502.78 365.866C1500.39 368.241 1497.96 371.745 1495.5 376.377C1493.04 381.009 1490.63 386.271 1488.27 392.162C1486.12 397.947 1484.02 403.837 1481.98 409.831C1479.44 417.77 1477.23 425.549 1475.34 433.17C1473.65 440.684 1472.9 447.012 1473.09 452.154C1473.43 457.347 1475.26 460.486 1478.59 461.569C1481.13 462.394 1483.41 461.909 1485.43 460.113C1487.5 458.16 1489.18 455.815 1490.47 453.079C1491.91 450.394 1493.01 447.948 1493.76 445.739C1494.52 443.531 1494.89 442.426 1494.89 442.426C1494.89 442.426 1493.92 442.196 1491.96 441.735C1490.16 441.325 1488.45 440.416 1486.81 439.009C1485.24 437.443 1484.96 435.162 1485.98 432.165C1487.06 429.01 1488.42 427.087 1490.06 426.395C1491.86 425.755 1493.43 425.562 1494.75 425.817C1496.23 426.124 1496.97 426.277 1496.97 426.277L1517.65 433.009C1517.65 433.009 1518.68 433.344 1520.74 434.014C1522.8 434.685 1525.04 435.853 1527.47 437.519C1529.95 439.026 1531.89 441.062 1533.31 443.626C1534.78 446.031 1534.97 449.074 1533.89 452.754C1531.2 461.691 1527.43 468.613 1522.58 473.521C1517.79 478.272 1512.3 481.478 1506.1 483.14C1500.06 484.854 1493.7 485.414 1487.04 484.822C1480.58 484.124 1474.19 482.743 1467.85 480.68C1461.51 478.617 1455.86 475.553 1450.91 471.487C1445.96 467.422 1442.21 461.906 1439.65 454.941C1437.15 447.818 1436.17 438.823 1436.7 427.957C1437.4 417.142 1440.2 404.032 1445.1 388.628C1448.98 376.221 1453.58 366.591 1458.91 359.738C1464.24 352.886 1469.78 348.026 1475.51 345.16C1481.24 342.293 1486.7 340.74 1491.89 340.501C1497.29 340.156 1501.97 340.365 1505.93 341.13C1509.9 341.895 1512.7 342.456 1514.34 342.814C1516.29 343.275 1519.33 344.439 1523.45 346.305C1527.57 348.171 1531.79 350.771 1536.11 354.105C1540.48 357.282 1544.17 361.197 1547.16 365.851C1550.31 370.556 1551.97 376.004 1552.15 382.196C1552.32 388.388 1551.27 392.776 1548.98 395.36C1546.74 397.787 1544.06 399.193 1540.94 399.578C1537.81 399.963 1535.03 399.848 1532.6 399.232C1530.33 398.667 1529.19 398.385 1529.19 398.385Z" fill="#9DC7FF"/>
<path d="M1593.98 489.461C1594.13 489.524 1595.52 490.09 1598.15 491.161C1600.84 492.079 1604.11 493.324 1607.97 494.899C1611.89 496.32 1615.7 497.787 1619.41 499.298C1623.33 500.719 1626.6 501.965 1629.23 503.036C1631.92 503.953 1633.26 504.412 1633.26 504.412C1633.26 504.412 1634.11 504.758 1635.81 505.451C1637.5 506.144 1639.38 507.269 1641.43 508.827C1643.55 510.231 1645.1 512.123 1646.07 514.501C1647.2 516.943 1647.09 519.957 1645.74 523.545C1644.45 526.979 1642.3 529.251 1639.29 530.362C1636.5 531.382 1633.47 531.677 1630.21 531.246C1627.17 530.725 1624.46 530.069 1622.08 529.278C1619.86 528.549 1618.74 528.185 1618.74 528.185C1618.74 528.185 1617.06 527.677 1613.69 526.661C1610.53 525.555 1606.28 524.269 1600.93 522.804C1595.57 521.338 1589.66 519.914 1583.18 518.53C1576.77 516.993 1570.46 515.858 1564.25 515.123C1558.04 514.388 1553.18 513.035 1549.67 511.064C1546.25 509.309 1543.8 507.409 1542.32 505.364C1540.9 503.166 1540.03 501.189 1539.69 499.432C1539.58 497.584 1539.62 496.431 1539.81 495.971C1540.12 494.836 1540.98 493.659 1542.41 492.441C1543.9 491.071 1545.86 490.52 1548.28 490.788C1549.12 490.95 1550.42 488.962 1552.19 484.825C1554.03 480.534 1556.05 474.968 1558.25 468.127C1560.67 461.195 1563.09 453.633 1565.5 445.44C1567.92 437.247 1570.15 429.067 1572.19 420.901C1574.39 412.798 1576.22 405.538 1577.7 399.121C1579.18 392.704 1580 387.819 1580.16 384.466C1580.52 379.393 1581.84 375.882 1584.12 373.934C1586.4 371.986 1588.86 370.916 1591.47 370.725C1594.31 370.444 1596.72 370.528 1598.71 370.977C1600.84 371.49 1601.91 371.746 1601.91 371.746C1601.91 371.746 1602.95 372.078 1605.02 372.744C1607.31 373.319 1609.72 374.48 1612.23 376.227C1614.97 377.883 1617.11 380.288 1618.66 383.441C1620.43 386.504 1620.84 390.631 1619.89 395.822C1618.59 402.672 1617.03 410.765 1615.22 420.102C1613.62 429.349 1611.15 439.773 1607.82 451.373C1604.65 463.036 1600.03 475.732 1593.98 489.461Z" fill="#9DC7FF"/>
<path d="M1699.73 434.457C1699.73 434.457 1699.89 433.791 1700.21 432.46C1700.6 430.981 1701.48 429.465 1702.85 427.911C1704.37 426.432 1706.56 425.471 1709.41 425.027C1712.42 424.658 1716.43 425.435 1721.44 427.359C1726.45 429.282 1732.02 431.576 1738.15 434.239C1744.42 436.977 1750.4 439.566 1756.08 442.008C1761.91 444.523 1766.65 446.595 1770.31 448.222C1773.98 449.85 1775.81 450.664 1775.81 450.664C1775.81 450.664 1776.74 451.219 1778.6 452.328C1780.69 453.364 1782.93 454.844 1785.31 456.767C1787.92 458.616 1789.96 460.836 1791.43 463.425C1792.98 465.866 1793.29 468.528 1792.35 471.413C1791.42 474.298 1789.82 476.11 1787.56 476.849C1785.3 477.588 1782.93 477.81 1780.46 477.514C1778.06 477.07 1776 476.515 1774.28 475.849C1772.56 475.183 1771.7 474.85 1771.7 474.85L1734.82 459.092C1734.82 459.092 1734.55 460.164 1734 462.309C1733.45 464.454 1732.74 466.895 1731.88 469.632C1731.25 472.294 1730.55 474.55 1729.78 476.399C1729.08 478.1 1728.12 480.319 1726.89 483.056C1725.73 485.645 1724.69 488.011 1723.76 490.156C1722.92 492.153 1722.49 493.152 1722.49 493.152L1739.07 501.364C1739.07 501.364 1739.85 501.845 1741.42 502.806C1743.06 503.62 1744.77 504.841 1746.56 506.468C1748.57 508.022 1750.13 509.723 1751.23 511.573C1752.34 513.422 1752.43 515.419 1751.5 517.564C1750.27 520.3 1748.19 521.78 1745.25 522.001C1742.47 522.297 1739.77 522.075 1737.15 521.335C1734.76 520.521 1733.22 520.04 1732.55 519.892C1732.1 519.67 1730.87 519.152 1728.85 518.338C1726.91 517.376 1724.74 516.304 1722.35 515.12C1720.11 514.01 1718.1 513.011 1716.3 512.124C1714.51 511.236 1713.62 510.792 1713.62 510.792C1713.62 510.792 1713.04 511.901 1711.89 514.12C1710.96 516.265 1709.85 518.78 1708.54 521.665C1707.23 524.549 1705.96 526.99 1704.73 528.987C1703.74 530.91 1702.43 533.24 1700.83 535.976C1699.29 538.565 1697.92 540.858 1696.69 542.855C1695.54 544.704 1694.97 545.628 1694.97 545.628L1725.79 559.5C1725.79 559.5 1726.76 559.981 1728.7 560.943C1730.72 561.757 1732.96 563.051 1735.42 564.827C1737.87 566.602 1739.8 568.674 1741.2 571.041C1742.6 573.408 1742.69 575.96 1741.45 578.696C1740.37 581.507 1738.51 583.282 1735.87 584.021C1733.24 584.761 1730.53 584.908 1727.76 584.464C1724.98 584.02 1722.55 583.465 1720.45 582.799C1718.58 582.059 1717.65 581.689 1717.65 581.689L1668 560.16C1668 560.16 1666.8 559.568 1664.41 558.384C1662.09 557.423 1659.56 555.98 1656.8 554.056C1654.12 551.985 1652.08 549.581 1650.69 546.844C1649.37 543.959 1649.71 540.779 1651.7 537.303C1654.45 532.717 1658.59 525.469 1664.11 515.558C1669.71 505.499 1675.74 493.517 1682.21 479.612C1688.67 465.707 1694.52 450.655 1699.73 434.457Z" fill="#9DC7FF"/>
<path d="M1865.56 553.719C1860.67 550.854 1857.28 548.094 1855.39 545.441C1853.59 542.646 1852.59 540.13 1852.4 537.893C1852.35 535.741 1852.65 533.984 1853.29 532.621C1854.02 531.117 1854.47 530.223 1854.65 529.939C1855.08 529.229 1855.49 527.924 1855.88 526.025C1856.49 524.068 1855.58 522.373 1853.13 520.94C1849.11 518.58 1844.77 517.68 1840.13 518.24C1835.62 518.884 1831.79 521.465 1828.62 525.983C1825.46 530.501 1824.19 535.265 1824.83 540.274C1825.47 545.284 1829.77 550.22 1837.73 555.082C1841.76 557.442 1845.65 560.497 1849.41 564.246C1853.17 567.995 1856.21 572.285 1858.52 577.117C1861.06 581.891 1862.18 587.083 1861.86 592.692C1861.77 598.243 1859.81 604.143 1855.97 610.392C1848.15 622.805 1838.84 630.481 1828.04 633.421C1817.24 636.36 1804.15 633.321 1788.76 624.302C1778.55 618.318 1771.1 612.306 1766.4 606.268C1761.79 600.087 1759.09 594.45 1758.31 589.356C1757.67 584.346 1758.11 580.45 1759.62 577.667C1761.13 574.885 1762.89 572.342 1764.89 570.038C1767.04 567.819 1769.9 566.503 1773.48 566.09C1777.2 565.761 1782 567.027 1787.87 569.888C1793.88 572.833 1797.67 575.732 1799.24 578.585C1800.9 581.296 1801.5 583.673 1801.03 585.714C1800.7 587.839 1800.4 589.115 1800.14 589.541C1799.88 589.967 1799.37 591.117 1798.61 592.989C1798.08 594.804 1797.84 596.788 1797.89 598.94C1798.17 601.035 1799.31 602.672 1801.32 603.852C1804.34 605.622 1807.67 605.932 1811.31 604.782C1814.95 603.632 1818.72 600.527 1822.61 595.468C1830.16 585.407 1828.04 576.921 1816.25 570.009C1813.37 568.323 1809.89 565.706 1805.82 562.157C1801.97 558.55 1798.56 554.233 1795.58 549.206C1792.7 544.036 1791.14 538.295 1790.91 531.98C1790.68 525.666 1792.91 518.858 1797.59 511.558C1802.27 504.257 1807.34 499.022 1812.81 495.853C1818.36 492.542 1824.01 490.83 1829.75 490.718C1835.72 490.549 1841.57 491.371 1847.3 493.185C1853.18 495.083 1858.67 497.436 1863.79 500.244C1870.64 504.063 1876.63 508.637 1881.76 513.966C1887.04 519.379 1890.68 525.082 1892.67 531.077C1894.89 537.014 1894.58 542.92 1891.76 548.796C1889.66 553.167 1887.09 555.912 1884.06 557.031C1881.25 558.092 1878.37 558.332 1875.4 557.751C1872.67 557.113 1870.32 556.317 1868.36 555.363C1866.49 554.267 1865.56 553.719 1865.56 553.719Z" fill="#9DC7FF"/>
</g>
<defs>
<clipPath id="clip0_128_3">
<rect width="1920" height="650" fill="white"/>
</clipPath>
</defs>
</svg>
